Open453.ufo
<glyph name="zero" format="1">
  <advance width="1140"/>
  <unicode hex="0030"/>
  <outline>
    <contour>
      <point x="408" y="-49" type="curve"/>
      <point x="414" y="-49" type="line"/>
      <point x="420" y="-51"/>
      <point x="465" y="-61"/>
      <point x="471" y="-63" type="curve" smooth="yes"/>
      <point x="516" y="-71"/>
      <point x="551" y="-72"/>
      <point x="596" y="-72" type="curve" smooth="yes"/>
      <point x="668" y="-72"/>
      <point x="740" y="-51"/>
      <point x="801" y="-14" type="curve" smooth="yes"/>
      <point x="946" y="76"/>
      <point x="1024" y="227"/>
      <point x="1053" y="393" type="curve"/>
      <point x="1053" y="409"/>
      <point x="1055" y="492"/>
      <point x="1055" y="508" type="curve" smooth="yes"/>
      <point x="1055" y="574"/>
      <point x="1058" y="643"/>
      <point x="1038" y="709" type="curve" smooth="yes"/>
      <point x="1036" y="715"/>
      <point x="1014" y="758"/>
      <point x="1010" y="764" type="curve"/>
      <point x="1010" y="768"/>
      <point x="1004" y="782"/>
      <point x="1004" y="784" type="curve" smooth="yes"/>
      <point x="913" y="911" type="line"/>
      <point x="884" y="923"/>
      <point x="873" y="949"/>
      <point x="850" y="969" type="curve"/>
      <point x="842" y="973"/>
      <point x="809" y="998"/>
      <point x="801" y="1004" type="curve" smooth="yes"/>
      <point x="785" y="1012"/>
      <point x="721" y="1047"/>
      <point x="709" y="1053" type="curve" smooth="yes"/>
      <point x="658" y="1076"/>
      <point x="598" y="1073"/>
      <point x="543" y="1073" type="curve" smooth="yes"/>
      <point x="484" y="1073"/>
      <point x="428" y="1053"/>
      <point x="373" y="1030" type="curve" smooth="yes"/>
      <point x="369" y="1030"/>
      <point x="360" y="1024"/>
      <point x="358" y="1024" type="curve" smooth="yes"/>
      <point x="288" y="975"/>
      <point x="211" y="926"/>
      <point x="170" y="848" type="curve" smooth="yes"/>
      <point x="162" y="836"/>
      <point x="133" y="778"/>
      <point x="127" y="764" type="curve" smooth="yes"/>
      <point x="100" y="670"/>
      <point x="78" y="579"/>
      <point x="78" y="483" type="curve" smooth="yes"/>
      <point x="78" y="469" type="line" smooth="yes"/>
      <point x="84" y="434"/>
      <point x="102" y="315"/>
      <point x="106" y="301" type="curve" smooth="yes"/>
      <point x="141" y="147"/>
      <point x="267" y="12"/>
    </contour>
    <contour>
      <point x="238" y="504" type="curve" smooth="yes"/>
      <point x="238" y="522"/>
      <point x="240" y="567"/>
      <point x="240" y="567" type="curve" smooth="yes"/>
      <point x="242" y="581"/>
      <point x="266" y="669"/>
      <point x="274" y="694" type="curve" smooth="yes"/>
      <point x="327" y="844"/>
      <point x="422" y="928"/>
      <point x="584" y="928" type="curve" smooth="yes"/>
      <point x="697" y="928"/>
      <point x="772" y="872"/>
      <point x="827" y="778" type="curve" smooth="yes"/>
      <point x="835" y="766"/>
      <point x="871" y="700"/>
      <point x="877" y="688" type="curve" smooth="yes"/>
      <point x="879" y="686"/>
      <point x="883" y="665"/>
      <point x="885" y="659" type="curve" smooth="yes"/>
      <point x="893" y="612"/>
      <point x="899" y="567"/>
      <point x="899" y="520" type="curve" smooth="yes"/>
      <point x="899" y="454"/>
      <point x="891" y="393"/>
      <point x="877" y="330" type="curve" smooth="yes"/>
      <point x="877" y="326"/>
      <point x="872" y="311"/>
      <point x="870" y="309" type="curve" smooth="yes"/>
      <point x="827" y="217"/>
      <point x="780" y="139"/>
      <point x="688" y="90" type="curve" smooth="yes"/>
      <point x="678" y="86"/>
      <point x="643" y="70"/>
      <point x="639" y="70" type="curve" smooth="yes"/>
      <point x="602" y="70" type="line" smooth="yes"/>
      <point x="567" y="70"/>
      <point x="527" y="70"/>
      <point x="492" y="78" type="curve" smooth="yes"/>
      <point x="488" y="78"/>
      <point x="463" y="88"/>
      <point x="457" y="90" type="curve" smooth="yes"/>
      <point x="404" y="121"/>
      <point x="371" y="150"/>
      <point x="330" y="197" type="curve" smooth="yes"/>
      <point x="254" y="287"/>
      <point x="238" y="389"/>
    </contour>
    <contour>
      <point x="477" y="164" type="curve" smooth="yes"/>
      <point x="473" y="164"/>
      <point x="473" y="158"/>
      <point x="477" y="158" type="curve" smooth="yes"/>
      <point x="481" y="158"/>
      <point x="481" y="164"/>
    </contour>
    <contour>
      <point x="393" y="713" type="curve" smooth="yes"/>
      <point x="389" y="713"/>
      <point x="389" y="705"/>
      <point x="393" y="705" type="curve" smooth="yes"/>
      <point x="397" y="705"/>
      <point x="397" y="713"/>
    </contour>
  </outline>
</glyph>
<glyph name="four" format="1">
  <advance width="1097"/>
  <unicode hex="0034"/>
  <outline>
    <contour>
      <point x="39" y="41" type="curve" smooth="yes"/>
      <point x="39" y="27"/>
      <point x="37" y="-35"/>
      <point x="53" y="-35" type="curve" smooth="yes"/>
      <point x="580" y="-35" type="line" smooth="yes"/>
      <point x="594" y="-35"/>
      <point x="600" y="-51"/>
      <point x="600" y="-63" type="curve" smooth="yes"/>
      <point x="600" y="-393" type="line" smooth="yes"/>
      <point x="600" y="-399"/>
      <point x="608" y="-410"/>
      <point x="614" y="-414" type="curve"/>
      <point x="643" y="-414" type="line" smooth="yes"/>
      <point x="670" y="-414" type="line" smooth="yes"/>
      <point x="672" y="-414"/>
      <point x="682" y="-408"/>
      <point x="684" y="-408" type="curve" smooth="yes"/>
      <point x="686" y="-408"/>
      <point x="696" y="-412"/>
      <point x="698" y="-414" type="curve"/>
      <point x="776" y="-414" type="line" smooth="yes"/>
      <point x="782" y="-414"/>
      <point x="795" y="-391"/>
      <point x="797" y="-385" type="curve" smooth="yes"/>
      <point x="799" y="-352"/>
      <point x="803" y="-195"/>
      <point x="803" y="-162" type="curve" smooth="yes"/>
      <point x="803" y="-43" type="line"/>
      <point x="811" y="-35" type="line"/>
      <point x="1008" y="-35" type="line" smooth="yes"/>
      <point x="1010" y="-35"/>
      <point x="1024" y="-31"/>
      <point x="1028" y="-29" type="curve" smooth="yes"/>
      <point x="1030" y="-27"/>
      <point x="1034" y="-22"/>
      <point x="1034" y="-20" type="curve" smooth="yes"/>
      <point x="1034" y="104" type="line" smooth="yes"/>
      <point x="1034" y="114"/>
      <point x="1024" y="127"/>
      <point x="1014" y="127" type="curve" smooth="yes"/>
      <point x="797" y="127" type="line"/>
      <point x="797" y="518" type="line"/>
      <point x="799" y="530"/>
      <point x="803" y="584"/>
      <point x="803" y="596" type="curve" smooth="yes"/>
      <point x="803" y="614"/>
      <point x="797" y="754"/>
      <point x="797" y="772" type="curve" smooth="yes"/>
      <point x="797" y="1094" type="line"/>
      <point x="782" y="1108" type="line"/>
      <point x="782" y="1108"/>
      <point x="758" y="1110"/>
      <point x="750" y="1110" type="curve" smooth="yes"/>
      <point x="738" y="1110"/>
      <point x="700" y="1108"/>
      <point x="698" y="1108" type="curve" smooth="yes"/>
      <point x="669" y="1106"/>
      <point x="671" y="1090"/>
      <point x="655" y="1065" type="curve" smooth="yes"/>
      <point x="635" y="1034"/>
      <point x="612" y="1002"/>
      <point x="594" y="969" type="curve" smooth="yes"/>
      <point x="553" y="903"/>
      <point x="455" y="745"/>
      <point x="453" y="743" type="curve" smooth="yes"/>
      <point x="446" y="735" type="line"/>
      <point x="166" y="281" type="line" smooth="yes"/>
      <point x="164" y="279"/>
      <point x="160" y="274"/>
      <point x="158" y="272" type="curve" smooth="yes"/>
      <point x="150" y="262"/>
      <point x="125" y="227"/>
      <point x="123" y="223" type="curve" smooth="yes"/>
      <point x="119" y="217"/>
      <point x="86" y="153"/>
      <point x="82" y="147" type="curve" smooth="yes"/>
      <point x="78" y="143"/>
      <point x="55" y="117"/>
      <point x="53" y="113" type="curve" smooth="yes"/>
      <point x="39" y="84"/>
      <point x="39" y="68"/>
    </contour>
    <contour>
      <point x="565" y="-74" type="curve" smooth="yes"/>
      <point x="561" y="-74"/>
      <point x="561" y="-80"/>
      <point x="565" y="-80" type="curve" smooth="yes"/>
      <point x="569" y="-80"/>
      <point x="569" y="-74"/>
    </contour>
    <contour>
      <point x="186" y="137" type="curve" smooth="yes"/>
      <point x="186" y="139" type="line"/>
      <point x="188" y="143"/>
      <point x="199" y="164"/>
      <point x="201" y="168" type="curve" smooth="yes"/>
      <point x="303" y="344"/>
      <point x="411" y="516"/>
      <point x="522" y="688" type="curve" smooth="yes"/>
      <point x="538" y="713"/>
      <point x="580" y="772"/>
      <point x="580" y="772" type="curve"/>
      <point x="594" y="764" type="line"/>
      <point x="594" y="764"/>
      <point x="598" y="735"/>
      <point x="600" y="723" type="curve" smooth="yes"/>
      <point x="600" y="713" type="line" smooth="yes"/>
      <point x="600" y="654"/>
      <point x="592" y="594"/>
      <point x="592" y="535" type="curve" smooth="yes"/>
      <point x="592" y="496"/>
      <point x="600" y="461"/>
      <point x="600" y="424" type="curve" smooth="yes"/>
      <point x="600" y="420" type="line" smooth="yes"/>
      <point x="600" y="412"/>
      <point x="594" y="338"/>
      <point x="594" y="330" type="curve" smooth="yes"/>
      <point x="594" y="324"/>
      <point x="600" y="278"/>
      <point x="600" y="272" type="curve" smooth="yes"/>
      <point x="600" y="256" type="line" smooth="yes"/>
      <point x="600" y="215"/>
      <point x="590" y="180"/>
      <point x="594" y="139" type="curve"/>
      <point x="580" y="127" type="line"/>
      <point x="476" y="129"/>
      <point x="372" y="119"/>
      <point x="268" y="119" type="curve" smooth="yes"/>
      <point x="236" y="119" type="line" smooth="yes"/>
      <point x="232" y="119"/>
      <point x="207" y="125"/>
      <point x="201" y="127" type="curve" smooth="yes"/>
      <point x="191" y="129"/>
      <point x="186" y="129"/>
    </contour>
  </outline>
</glyph>
<glyph name="seven" format="1">
  <advance width="1038"/>
  <unicode hex="0037"/>
  <outline>
    <contour>
      <point x="301" y="-379" type="curve"/>
      <point x="307" y="-397"/>
      <point x="326" y="-414"/>
      <point x="344" y="-414" type="curve" smooth="yes"/>
      <point x="430" y="-414"/>
      <point x="428" y="-340"/>
      <point x="457" y="-274" type="curve" smooth="yes"/>
      <point x="459" y="-270"/>
      <point x="475" y="-242"/>
      <point x="477" y="-240" type="curve" smooth="yes"/>
      <point x="495" y="-199"/>
      <point x="503" y="-150"/>
      <point x="526" y="-113" type="curve" smooth="yes"/>
      <point x="528" y="-111"/>
      <point x="539" y="-94"/>
      <point x="541" y="-92" type="curve" smooth="yes"/>
      <point x="545" y="-82"/>
      <point x="569" y="-16"/>
      <point x="575" y="0" type="curve" smooth="yes"/>
      <point x="577" y="4"/>
      <point x="582" y="25"/>
      <point x="582" y="29" type="curve" smooth="yes"/>
      <point x="752" y="434" type="line"/>
      <point x="752" y="449" type="line"/>
      <point x="989" y="1030" type="line" smooth="yes"/>
      <point x="989" y="1038" type="line" smooth="yes"/>
      <point x="989" y="1044"/>
      <point x="989" y="1049"/>
      <point x="983" y="1053" type="curve"/>
      <point x="793" y="1049"/>
      <point x="606" y="1059"/>
      <point x="418" y="1059" type="curve" smooth="yes"/>
      <point x="246" y="1059" type="line" smooth="yes"/>
      <point x="236" y="1059"/>
      <point x="186" y="1053"/>
      <point x="176" y="1053" type="curve" smooth="yes"/>
      <point x="141" y="1047"/>
      <point x="133" y="992"/>
      <point x="133" y="969" type="curve"/>
      <point x="63" y="723" type="line" smooth="yes"/>
      <point x="63" y="715" type="line" smooth="yes"/>
      <point x="63" y="692"/>
      <point x="99" y="694"/>
      <point x="113" y="694" type="curve" smooth="yes"/>
      <point x="127" y="694"/>
      <point x="154" y="691"/>
      <point x="162" y="709" type="curve" smooth="yes"/>
      <point x="189" y="764"/>
      <point x="194" y="820"/>
      <point x="260" y="834" type="curve" smooth="yes"/>
      <point x="272" y="838"/>
      <point x="332" y="852"/>
      <point x="344" y="856" type="curve"/>
      <point x="752" y="856" type="line" smooth="yes"/>
      <point x="772" y="856"/>
      <point x="780" y="841"/>
      <point x="780" y="823" type="curve" smooth="yes"/>
      <point x="780" y="821"/>
      <point x="778" y="813"/>
      <point x="778" y="813" type="curve"/>
      <point x="702" y="651" type="line"/>
      <point x="690" y="579"/>
      <point x="643" y="497"/>
      <point x="618" y="434" type="curve" smooth="yes"/>
      <point x="579" y="336"/>
      <point x="545" y="231"/>
      <point x="506" y="133" type="curve" smooth="yes"/>
      <point x="504" y="127"/>
      <point x="479" y="82"/>
      <point x="477" y="78" type="curve" smooth="yes"/>
      <point x="475" y="72"/>
      <point x="465" y="33"/>
      <point x="463" y="29" type="curve" smooth="yes"/>
      <point x="461" y="23"/>
      <point x="438" y="-23"/>
      <point x="436" y="-29" type="curve" smooth="yes"/>
      <point x="424" y="-56"/>
      <point x="375" y="-188"/>
      <point x="365" y="-217" type="curve"/>
      <point x="345" y="-240"/>
      <point x="354" y="-239"/>
      <point x="344" y="-266" type="curve" smooth="yes"/>
      <point x="342" y="-272"/>
      <point x="317" y="-324"/>
      <point x="315" y="-330" type="curve" smooth="yes"/>
      <point x="313" y="-338"/>
      <point x="303" y="-371"/>
    </contour>
  </outline>
</glyph>
<glyph name="B" format="1">
  <advance width="1480"/>
  <unicode hex="0042"/>
  <outline>
    <contour>
      <point x="559" y="0" type="line" smooth="yes"/>
      <point x="1070" y="0"/>
      <point x="1312" y="155"/>
      <point x="1312" y="444" type="curve" smooth="yes"/>
      <point x="1312" y="676"/>
      <point x="1155" y="784"/>
      <point x="911" y="858" type="curve"/>
      <point x="1135" y="907"/>
      <point x="1210" y="1059"/>
      <point x="1210" y="1201" type="curve" smooth="yes"/>
      <point x="1210" y="1433"/>
      <point x="1082" y="1577"/>
      <point x="532" y="1577" type="curve" smooth="yes"/>
      <point x="84" y="1577" type="line"/>
      <point x="84" y="1551" type="line" smooth="yes"/>
      <point x="94" y="1544"/>
      <point x="271" y="1479"/>
      <point x="307" y="1411" type="curve"/>
      <point x="307" y="190" type="line"/>
      <point x="307" y="151"/>
      <point x="291" y="118"/>
      <point x="74" y="42" type="curve" smooth="yes"/>
      <point x="74" y="42"/>
      <point x="74" y="1"/>
      <point x="76" y="0" type="curve"/>
    </contour>
    <contour>
      <point x="873" y="1515"/>
      <point x="980" y="1367"/>
      <point x="980" y="1178" type="curve" smooth="yes"/>
      <point x="980" y="984"/>
      <point x="834" y="863"/>
      <point x="547" y="863" type="curve"/>
      <point x="547" y="1515" type="line"/>
    </contour>
    <contour>
      <point x="547" y="69" type="line" smooth="yes"/>
      <point x="547" y="800" type="line"/>
      <point x="923" y="800"/>
      <point x="1077" y="694"/>
      <point x="1077" y="445" type="curve" smooth="yes"/>
      <point x="1077.0" y="254.166040758"/>
      <point x="1007.98778298" y="69.0"/>
      <point x="547" y="69" type="curve"/>
    </contour>
    <contour>
      <point x="740" y="1577" type="move" name="top"/>
    </contour>
    <contour>
      <point x="740" y="0" type="move" name="bottom"/>
    </contour>
    <contour>
      <point x="1332" y="10" type="move" name="ogonek"/>
    </contour>
  </outline>
</glyph>
<glyph name="E" format="1">
  <advance width="1480"/>
  <unicode hex="0045"/>
  <outline>
    <contour>
      <point x="1163" y="569" type="line" smooth="yes"/>
      <point x="1163" y="553"/>
      <point x="1131" y="553"/>
      <point x="1112" y="553" type="curve" smooth="yes"/>
      <point x="1106" y="553"/>
      <point x="1085" y="555"/>
      <point x="1079" y="555" type="curve"/>
      <point x="1048" y="578"/>
      <point x="1054" y="612"/>
      <point x="1044" y="645" type="curve" smooth="yes"/>
      <point x="1001" y="774"/>
      <point x="899" y="786"/>
      <point x="756" y="786" type="curve" smooth="yes"/>
      <point x="717" y="786"/>
      <point x="675" y="786"/>
      <point x="631" y="786" type="curve" smooth="yes"/>
      <point x="547" y="786" type="line"/>
      <point x="547" y="399" type="line" smooth="yes"/>
      <point x="547" y="106"/>
      <point x="658" y="104"/>
      <point x="817" y="104" type="curve" smooth="yes"/>
      <point x="1025" y="104"/>
      <point x="1173" y="178"/>
      <point x="1262" y="315" type="curve" smooth="yes"/>
      <point x="1293" y="363"/>
      <point x="1298" y="401"/>
      <point x="1368" y="401" type="curve" smooth="yes"/>
      <point x="1388" y="401"/>
      <point x="1393" y="382"/>
      <point x="1393" y="359" type="curve" smooth="yes"/>
      <point x="1393" y="344"/>
      <point x="1391" y="328"/>
      <point x="1389" y="315" type="curve" smooth="yes"/>
      <point x="1333" y="57" type="line" smooth="yes"/>
      <point x="1323" y="6"/>
      <point x="1292" y="0"/>
      <point x="1247" y="0" type="curve" smooth="yes"/>
      <point x="88" y="0" type="line"/>
      <point x="74" y="14"/>
      <point x="74" y="47"/>
      <point x="74" y="80" type="curve" smooth="yes"/>
      <point x="74" y="96" type="line" smooth="yes"/>
      <point x="74" y="143"/>
      <point x="307" y="98"/>
      <point x="307" y="256" type="curve" smooth="yes"/>
      <point x="307" y="1321" type="line" smooth="yes"/>
      <point x="307" y="1479"/>
      <point x="74" y="1434"/>
      <point x="74" y="1481" type="curve" smooth="yes"/>
      <point x="74" y="1497" type="line" smooth="yes"/>
      <point x="74" y="1530"/>
      <point x="74" y="1563"/>
      <point x="88" y="1577" type="curve"/>
      <point x="1077" y="1577" type="line" smooth="yes"/>
      <point x="1104" y="1577"/>
      <point x="1230" y="1579"/>
      <point x="1257" y="1579" type="curve" smooth="yes"/>
      <point x="1261" y="1579"/>
      <point x="1276" y="1569"/>
      <point x="1276" y="1552" type="curve" smooth="yes"/>
      <point x="1276" y="1255" type="line"/>
      <point x="1272" y="1242"/>
      <point x="1241" y="1241"/>
      <point x="1220" y="1241" type="curve" smooth="yes"/>
      <point x="1206" y="1241" type="line" smooth="yes"/>
      <point x="1167" y="1241"/>
      <point x="1135" y="1481"/>
      <point x="961" y="1481" type="curve" smooth="yes"/>
      <point x="547" y="1481" type="line"/>
      <point x="547" y="877" type="line"/>
      <point x="653" y="877" type="line" smooth="yes"/>
      <point x="857" y="877"/>
      <point x="1073" y="880"/>
      <point x="1073" y="1081" type="curve"/>
      <point x="1087" y="1096" type="line"/>
      <point x="1151" y="1096" type="line"/>
      <point x="1162" y="1083"/>
      <point x="1163" y="1071"/>
      <point x="1163" y="1043" type="curve" smooth="yes"/>
    </contour>
    <contour>
      <point x="740" y="1577" type="move" name="top"/>
    </contour>
    <contour>
      <point x="740" y="0" type="move" name="bottom"/>
    </contour>
    <contour>
      <point x="1332" y="10" type="move" name="ogonek"/>
    </contour>
  </outline>
</glyph>
<glyph name="N" format="1">
  <advance width="1859"/>
  <unicode hex="004E"/>
  <outline>
    <contour>
      <point x="1454" y="63" type="line"/>
      <point x="1462" y="43"/>
      <point x="1478" y="14"/>
      <point x="1503" y="14" type="curve" smooth="yes"/>
      <point x="1587" y="14" type="line" smooth="yes"/>
      <point x="1591" y="14"/>
      <point x="1602" y="25"/>
      <point x="1602" y="29" type="curve" smooth="yes"/>
      <point x="1602" y="45" type="line" smooth="yes"/>
      <point x="1602" y="63" type="line" smooth="yes"/>
      <point x="1600" y="79"/>
      <point x="1577" y="209"/>
      <point x="1573" y="225" type="curve" smooth="yes"/>
      <point x="1573" y="227"/>
      <point x="1575" y="256"/>
      <point x="1573" y="260" type="curve" smooth="yes"/>
      <point x="1573" y="264"/>
      <point x="1567" y="297"/>
      <point x="1567" y="301" type="curve" smooth="yes"/>
      <point x="1567" y="324" type="line" smooth="yes"/>
      <point x="1567" y="340"/>
      <point x="1561" y="488"/>
      <point x="1561" y="506" type="curve" smooth="yes"/>
      <point x="1559" y="543"/>
      <point x="1561" y="852"/>
      <point x="1561" y="891" type="curve"/>
      <point x="1559" y="905"/>
      <point x="1552" y="1018"/>
      <point x="1552" y="1030" type="curve" smooth="yes"/>
      <point x="1552" y="1094" type="line" smooth="yes"/>
      <point x="1552" y="1151" type="line" smooth="yes"/>
      <point x="1552" y="1157"/>
      <point x="1559" y="1213"/>
      <point x="1561" y="1221" type="curve"/>
      <point x="1561" y="1231"/>
      <point x="1559" y="1309"/>
      <point x="1561" y="1319" type="curve" smooth="yes"/>
      <point x="1561" y="1321"/>
      <point x="1565" y="1346"/>
      <point x="1567" y="1354" type="curve" smooth="yes"/>
      <point x="1569" y="1364"/>
      <point x="1585" y="1413"/>
      <point x="1587" y="1423" type="curve" smooth="yes"/>
      <point x="1589" y="1425"/>
      <point x="1593" y="1430"/>
      <point x="1595" y="1432" type="curve" smooth="yes"/>
      <point x="1597" y="1436"/>
      <point x="1626" y="1469"/>
      <point x="1630" y="1473" type="curve" smooth="yes"/>
      <point x="1638" y="1481"/>
      <point x="1678" y="1505"/>
      <point x="1686" y="1507" type="curve" smooth="yes"/>
      <point x="1711" y="1517"/>
      <point x="1762" y="1505"/>
      <point x="1778" y="1536" type="curve" smooth="yes"/>
      <point x="1778" y="1565" type="line" smooth="yes"/>
      <point x="1778" y="1581"/>
      <point x="1782" y="1610"/>
      <point x="1755" y="1614" type="curve"/>
      <point x="1704" y="1612"/>
      <point x="1458" y="1612"/>
      <point x="1405" y="1614" type="curve" smooth="yes"/>
      <point x="1391" y="1614"/>
      <point x="1280" y="1620"/>
      <point x="1266" y="1620" type="curve" smooth="yes"/>
      <point x="1245" y="1620" type="line" smooth="yes"/>
      <point x="1210" y="1620"/>
      <point x="1188" y="1612"/>
      <point x="1188" y="1571" type="curve" smooth="yes"/>
      <point x="1188" y="1551"/>
      <point x="1197" y="1536"/>
      <point x="1217" y="1530" type="curve" smooth="yes"/>
      <point x="1227" y="1526"/>
      <point x="1305" y="1503"/>
      <point x="1315" y="1501" type="curve" smooth="yes"/>
      <point x="1358" y="1487"/>
      <point x="1405" y="1430"/>
      <point x="1419" y="1389" type="curve" smooth="yes"/>
      <point x="1431" y="1352"/>
      <point x="1430" y="1319"/>
      <point x="1440" y="1284" type="curve"/>
      <point x="1450" y="1075"/>
      <point x="1450" y="866"/>
      <point x="1454" y="659" type="curve" smooth="yes"/>
      <point x="1454" y="649"/>
      <point x="1462" y="571"/>
      <point x="1462" y="561" type="curve" smooth="yes"/>
      <point x="1462" y="543"/>
      <point x="1456" y="458"/>
      <point x="1454" y="442" type="curve"/>
      <point x="1440" y="442" type="line" smooth="yes"/>
      <point x="1438" y="442"/>
      <point x="1394" y="492"/>
      <point x="1378" y="512" type="curve" smooth="yes"/>
      <point x="1372" y="518"/>
      <point x="1333" y="576"/>
      <point x="1329" y="582" type="curve" smooth="yes"/>
      <point x="1311" y="605"/>
      <point x="1222" y="703"/>
      <point x="1202" y="723" type="curve"/>
      <point x="1167" y="791"/>
      <point x="1108" y="852"/>
      <point x="1055" y="905" type="curve" smooth="yes"/>
      <point x="1055" y="907"/>
      <point x="1049" y="918"/>
      <point x="1049" y="920" type="curve" smooth="yes"/>
      <point x="1045" y="924"/>
      <point x="1016" y="950"/>
      <point x="1012" y="954" type="curve" smooth="yes"/>
      <point x="1008" y="960"/>
      <point x="987" y="989"/>
      <point x="985" y="995" type="curve"/>
      <point x="768" y="1241" type="line"/>
      <point x="731" y="1290" type="line"/>
      <point x="453" y="1606" type="line"/>
      <point x="143" y="1606" type="line" smooth="yes"/>
      <point x="135" y="1606"/>
      <point x="106" y="1601"/>
      <point x="100" y="1599" type="curve" smooth="yes"/>
      <point x="82" y="1591"/>
      <point x="80" y="1562"/>
      <point x="80" y="1546" type="curve" smooth="yes"/>
      <point x="80" y="1507"/>
      <point x="114" y="1519"/>
      <point x="143" y="1507" type="curve" smooth="yes"/>
      <point x="206" y="1482"/>
      <point x="256" y="1436"/>
      <point x="311" y="1397" type="curve"/>
      <point x="311" y="1389" type="line"/>
      <point x="319" y="1385"/>
      <point x="348" y="1360"/>
      <point x="354" y="1354" type="curve" smooth="yes"/>
      <point x="364" y="1340"/>
      <point x="360" y="1302"/>
      <point x="360" y="1290" type="curve" smooth="yes"/>
      <point x="360" y="1278"/>
      <point x="367" y="1183"/>
      <point x="367" y="1171" type="curve" smooth="yes"/>
      <point x="369" y="1095"/>
      <point x="369" y="748"/>
      <point x="367" y="674" type="curve"/>
      <point x="369" y="664"/>
      <point x="373" y="614"/>
      <point x="375" y="604" type="curve" smooth="yes"/>
      <point x="375" y="600" type="line" smooth="yes"/>
      <point x="375" y="596" type="line"/>
      <point x="373" y="588"/>
      <point x="369" y="526"/>
      <point x="367" y="518" type="curve"/>
      <point x="367" y="506"/>
      <point x="369" y="393"/>
      <point x="367" y="379" type="curve" smooth="yes"/>
      <point x="367" y="365"/>
      <point x="352" y="284"/>
      <point x="346" y="266" type="curve" smooth="yes"/>
      <point x="334" y="223"/>
      <point x="295" y="183"/>
      <point x="262" y="154" type="curve" smooth="yes"/>
      <point x="260" y="154"/>
      <point x="252" y="147"/>
      <point x="248" y="147" type="curve" smooth="yes"/>
      <point x="236" y="143"/>
      <point x="192" y="135"/>
      <point x="184" y="133" type="curve" smooth="yes"/>
      <point x="143" y="133" type="line" smooth="yes"/>
      <point x="108" y="129"/>
      <point x="106" y="86"/>
      <point x="106" y="61" type="curve" smooth="yes"/>
      <point x="106" y="57"/>
      <point x="109" y="43"/>
      <point x="109" y="43" type="curve"/>
      <point x="123" y="35" type="line"/>
      <point x="711" y="35" type="line" smooth="yes"/>
      <point x="736" y="35"/>
      <point x="733" y="72"/>
      <point x="733" y="84" type="curve" smooth="yes"/>
      <point x="733" y="107"/>
      <point x="732" y="135"/>
      <point x="705" y="139" type="curve" smooth="yes"/>
      <point x="699" y="141"/>
      <point x="647" y="145"/>
      <point x="641" y="147" type="curve" smooth="yes"/>
      <point x="631" y="149"/>
      <point x="577" y="174"/>
      <point x="563" y="182" type="curve" smooth="yes"/>
      <point x="526" y="202"/>
      <point x="496" y="332"/>
      <point x="494" y="365" type="curve" smooth="yes"/>
      <point x="494" y="379"/>
      <point x="487" y="486"/>
      <point x="487" y="498" type="curve" smooth="yes"/>
      <point x="485" y="521"/>
      <point x="487" y="700"/>
      <point x="487" y="723" type="curve"/>
      <point x="485" y="733"/>
      <point x="479" y="811"/>
      <point x="479" y="821" type="curve" smooth="yes"/>
      <point x="479" y="989" type="line" smooth="yes"/>
      <point x="479" y="1001"/>
      <point x="473" y="1108"/>
      <point x="473" y="1122" type="curve" smooth="yes"/>
      <point x="473" y="1161" type="line" smooth="yes"/>
      <point x="473" y="1192" type="line" smooth="yes"/>
      <point x="473" y="1198"/>
      <point x="475" y="1206"/>
      <point x="483" y="1206" type="curve" smooth="yes"/>
      <point x="487" y="1206" type="line" smooth="yes"/>
      <point x="528" y="1163" type="line"/>
      <point x="745" y="897" type="line"/>
      <point x="776" y="872"/>
      <point x="798" y="838"/>
      <point x="823" y="807" type="curve" smooth="yes"/>
      <point x="872" y="746"/>
      <point x="926" y="684"/>
      <point x="977" y="625" type="curve" smooth="yes"/>
      <point x="1020" y="582" type="line" smooth="yes"/>
      <point x="1026" y="576"/>
      <point x="1069" y="512"/>
      <point x="1075" y="506" type="curve" smooth="yes"/>
      <point x="1079" y="502"/>
      <point x="1108" y="473"/>
      <point x="1110" y="469" type="curve"/>
      <point x="1114" y="467"/>
      <point x="1122" y="453"/>
      <point x="1124" y="449" type="curve" smooth="yes"/>
    </contour>
    <contour>
      <point x="930" y="1577" type="move" name="top"/>
    </contour>
    <contour>
      <point x="930" y="0" type="move" name="bottom"/>
    </contour>
  </outline>
</glyph>
<glyph name="O" format="1">
  <advance width="1652"/>
  <unicode hex="004F"/>
  <outline>
    <contour>
      <point x="417.71" y="1593"/>
      <point x="74" y="1208.6"/>
      <point x="74" y="753" type="curve" smooth="yes"/>
      <point x="74" y="312.477"/>
      <point x="394.967" y="-35"/>
      <point x="823" y="-35" type="curve" smooth="yes"/>
      <point x="1255.31" y="-35"/>
      <point x="1575" y="316.552"/>
      <point x="1575" y="756" type="curve" smooth="yes"/>
      <point x="1575" y="1225.79"/>
      <point x="1300.39" y="1593"/>
      <point x="827" y="1593" type="curve" smooth="yes"/>
    </contour>
    <contour>
      <point x="1176.19" y="1491.47"/>
      <point x="1323" y="1079.7"/>
      <point x="1323" y="704" type="curve" smooth="yes"/>
      <point x="1323" y="353.785"/>
      <point x="1176.66" y="63.7263"/>
      <point x="837.973" y="63.7263" type="curve" smooth="yes"/>
      <point x="486.217" y="63.7263"/>
      <point x="326" y="461.36"/>
      <point x="326" y="792" type="curve" smooth="yes"/>
      <point x="326" y="1133.46"/>
      <point x="443.444" y="1491.47"/>
      <point x="807.681" y="1491.47" type="curve" smooth="yes"/>
    </contour>
    <contour>
      <point x="826" y="1577" type="move" name="top"/>
    </contour>
  </outline>
</glyph>
<glyph name="R" format="1">
  <advance width="1511"/>
  <unicode hex="0052"/>
  <outline>
    <contour>
      <point x="82" y="338" type="curve" smooth="yes"/>
      <point x="82" y="315"/>
      <point x="86" y="301"/>
      <point x="113" y="301" type="curve" smooth="yes"/>
      <point x="668" y="301" type="line"/>
      <point x="668" y="391" type="line"/>
      <point x="586" y="406" type="line" smooth="yes"/>
      <point x="582" y="408"/>
      <point x="575" y="416"/>
      <point x="575" y="420" type="curve"/>
      <point x="542" y="420"/>
      <point x="524" y="440"/>
      <point x="504" y="467" type="curve" smooth="yes"/>
      <point x="502" y="467"/>
      <point x="496" y="479"/>
      <point x="496" y="481" type="curve" smooth="yes"/>
      <point x="494" y="491"/>
      <point x="487" y="535"/>
      <point x="487" y="541" type="curve" smooth="yes"/>
      <point x="487" y="940" type="line" smooth="yes"/>
      <point x="487" y="948"/>
      <point x="510" y="954"/>
      <point x="518" y="954" type="curve" smooth="yes"/>
      <point x="586" y="954"/>
      <point x="649" y="917"/>
      <point x="690" y="864" type="curve" smooth="yes"/>
      <point x="1059" y="391" type="line"/>
      <point x="1141" y="307" type="line"/>
      <point x="1413" y="301" type="line" smooth="yes"/>
      <point x="1438" y="299"/>
      <point x="1442" y="318"/>
      <point x="1442" y="338" type="curve" smooth="yes"/>
      <point x="1442" y="399"/>
      <point x="1393" y="399"/>
      <point x="1346" y="428" type="curve" smooth="yes"/>
      <point x="1338" y="434"/>
      <point x="1300" y="459"/>
      <point x="1292" y="467" type="curve" smooth="yes"/>
      <point x="1261" y="492"/>
      <point x="1242" y="520"/>
      <point x="1217" y="549" type="curve" smooth="yes"/>
      <point x="1207" y="561"/>
      <point x="1128" y="658"/>
      <point x="1118" y="670" type="curve" smooth="yes"/>
      <point x="1104" y="684" type="line" smooth="yes"/>
      <point x="1102" y="688"/>
      <point x="1083" y="719"/>
      <point x="1081" y="721" type="curve" smooth="yes"/>
      <point x="1077" y="725"/>
      <point x="1046" y="756"/>
      <point x="1044" y="760" type="curve" smooth="yes"/>
      <point x="1034" y="770"/>
      <point x="962" y="862"/>
      <point x="954" y="872" type="curve" smooth="yes"/>
      <point x="940" y="886"/>
      <point x="872" y="957"/>
      <point x="856" y="969" type="curve"/>
      <point x="999" y="1030" type="line"/>
      <point x="1003" y="1040"/>
      <point x="1020" y="1040"/>
      <point x="1028" y="1044" type="curve" smooth="yes"/>
      <point x="1036" y="1048"/>
      <point x="1067" y="1069"/>
      <point x="1073" y="1075" type="curve" smooth="yes"/>
      <point x="1147" y="1132"/>
      <point x="1180" y="1237"/>
      <point x="1180" y="1327" type="curve" smooth="yes"/>
      <point x="1180" y="1474"/>
      <point x="1050" y="1610"/>
      <point x="915" y="1653" type="curve"/>
      <point x="860" y="1673"/>
      <point x="790" y="1692"/>
      <point x="729" y="1692" type="curve" smooth="yes"/>
      <point x="90" y="1692" type="line"/>
      <point x="90" y="1616" type="line" smooth="yes"/>
      <point x="90" y="1593"/>
      <point x="192" y="1596"/>
      <point x="217" y="1571" type="curve" smooth="yes"/>
      <point x="248" y="1540"/>
      <point x="270" y="1495"/>
      <point x="270" y="1450" type="curve" smooth="yes"/>
      <point x="270" y="541" type="line" smooth="yes"/>
      <point x="270" y="475"/>
      <point x="218" y="407"/>
      <point x="150" y="397" type="curve"/>
      <point x="136" y="397"/>
      <point x="98" y="391"/>
      <point x="96" y="391" type="curve" smooth="yes"/>
      <point x="94" y="391"/>
      <point x="90" y="385"/>
      <point x="90" y="383" type="curve" smooth="yes"/>
      <point x="88" y="375"/>
      <point x="82" y="344"/>
    </contour>
    <contour>
      <point x="487" y="1059" type="curve"/>
      <point x="487" y="1171" type="line" smooth="yes"/>
      <point x="487" y="1286" type="line" smooth="yes"/>
      <point x="487" y="1298"/>
      <point x="496" y="1407"/>
      <point x="496" y="1421" type="curve" smooth="yes"/>
      <point x="496" y="1431"/>
      <point x="489" y="1528"/>
      <point x="487" y="1540" type="curve" smooth="yes"/>
      <point x="487" y="1561" type="line" smooth="yes"/>
      <point x="487" y="1577"/>
      <point x="488" y="1586"/>
      <point x="496" y="1602" type="curve"/>
      <point x="545" y="1602" type="line" smooth="yes"/>
      <point x="649" y="1602"/>
      <point x="750" y="1594"/>
      <point x="834" y="1526" type="curve" smooth="yes"/>
      <point x="906" y="1469"/>
      <point x="938" y="1392"/>
      <point x="938" y="1300" type="curve" smooth="yes"/>
      <point x="938" y="1275"/>
      <point x="925" y="1230"/>
      <point x="915" y="1210" type="curve" smooth="yes"/>
      <point x="911" y="1200"/>
      <point x="891" y="1157"/>
      <point x="887" y="1149" type="curve" smooth="yes"/>
      <point x="885" y="1149"/>
      <point x="874" y="1139"/>
      <point x="870" y="1135" type="curve" smooth="yes"/>
      <point x="768" y="1045"/>
      <point x="647" y="1044"/>
      <point x="514" y="1044" type="curve" smooth="yes"/>
      <point x="504" y="1044"/>
      <point x="493" y="1053"/>
    </contour>
    <contour>
      <point x="756" y="1577" type="move" name="top"/>
    </contour>
    <contour>
      <point x="756" y="0" type="move" name="bottom"/>
    </contour>
  </outline>
</glyph>
<glyph name="S" format="1">
  <advance width="1394"/>
  <unicode hex="0053"/>
  <outline>
    <contour>
      <point x="774" y="-30" type="curve" smooth="yes"/>
      <point x="1085" y="-30"/>
      <point x="1304" y="124"/>
      <point x="1304" y="423" type="curve" smooth="yes"/>
      <point x="1304" y="607.365"/>
      <point x="1194" y="736"/>
      <point x="1000" y="840" type="curve" smooth="yes"/>
      <point x="694" y="1004" type="line" smooth="yes"/>
      <point x="614.896" y="1046.4"/>
      <point x="510" y="1116.1"/>
      <point x="510" y="1244.67" type="curve" smooth="yes"/>
      <point x="510" y="1416.45"/>
      <point x="606.206" y="1498"/>
      <point x="778" y="1498" type="curve" smooth="yes"/>
      <point x="1058.9" y="1498"/>
      <point x="1114" y="1352.67"/>
      <point x="1183" y="1148" type="curve"/>
      <point x="1193" y="1150"/>
      <point x="1212" y="1154"/>
      <point x="1212" y="1157" type="curve" smooth="yes"/>
      <point x="1212" y="1473" type="line"/>
      <point x="1122" y="1532"/>
      <point x="987" y="1591"/>
      <point x="802" y="1591" type="curve" smooth="yes"/>
      <point x="526" y="1591"/>
      <point x="295" y="1452.38"/>
      <point x="295" y="1187" type="curve" smooth="yes"/>
      <point x="295" y="977.677"/>
      <point x="425" y="864"/>
      <point x="568" y="787.993" type="curve" smooth="yes"/>
      <point x="834" y="646" type="line" smooth="yes"/>
      <point x="1021" y="546"/>
      <point x="1082" y="467.816"/>
      <point x="1082" y="330" type="curve" smooth="yes"/>
      <point x="1082" y="171.659"/>
      <point x="967.432" y="65"/>
      <point x="772" y="65" type="curve" smooth="yes"/>
      <point x="476.105" y="65"/>
      <point x="407" y="299.666"/>
      <point x="359" y="467" type="curve"/>
      <point x="325" y="467" type="line"/>
      <point x="313" y="82" type="line"/>
      <point x="347" y="58"/>
      <point x="518" y="-30"/>
    </contour>
  </outline>
</glyph>
<glyph name="T" format="1">
  <advance width="1628"/>
  <unicode hex="0054"/>
  <outline>
    <contour>
      <point x="836" y="1579" type="line"/>
      <point x="1454" y="1579" type="line" smooth="yes"/>
      <point x="1522" y="1579"/>
      <point x="1536" y="1567"/>
      <point x="1536" y="1544" type="curve" smooth="yes"/>
      <point x="1536" y="1526"/>
      <point x="1534" y="1501"/>
      <point x="1534" y="1470" type="curve" smooth="yes"/>
      <point x="1534" y="1353"/>
      <point x="1542" y="1284"/>
      <point x="1542" y="1239" type="curve" smooth="yes"/>
      <point x="1542" y="1231"/>
      <point x="1520" y="1227"/>
      <point x="1493" y="1227" type="curve" smooth="yes"/>
      <point x="1401" y="1227"/>
      <point x="1385" y="1481"/>
      <point x="1235" y="1481" type="curve" smooth="yes"/>
      <point x="934" y="1481" type="line"/>
      <point x="934" y="256" type="line" smooth="yes"/>
      <point x="934" y="98"/>
      <point x="1161" y="143"/>
      <point x="1167" y="96" type="curve"/>
      <point x="1167" y="82" type="line" smooth="yes"/>
      <point x="1167" y="49"/>
      <point x="1167" y="14"/>
      <point x="1157" y="0" type="curve"/>
      <point x="475" y="0" type="line"/>
      <point x="461" y="14"/>
      <point x="461" y="47"/>
      <point x="461" y="80" type="curve" smooth="yes"/>
      <point x="461" y="96" type="line" smooth="yes"/>
      <point x="461" y="143"/>
      <point x="694" y="98"/>
      <point x="694" y="256" type="curve" smooth="yes"/>
      <point x="694" y="1481" type="line"/>
      <point x="393" y="1481" type="line" smooth="yes"/>
      <point x="243" y="1481"/>
      <point x="227" y="1227"/>
      <point x="135" y="1227" type="curve" smooth="yes"/>
      <point x="108" y="1227"/>
      <point x="86" y="1231"/>
      <point x="86" y="1239" type="curve" smooth="yes"/>
      <point x="86" y="1284"/>
      <point x="94" y="1353"/>
      <point x="94" y="1470" type="curve" smooth="yes"/>
      <point x="94" y="1501"/>
      <point x="92" y="1526"/>
      <point x="92" y="1544" type="curve" smooth="yes"/>
      <point x="92" y="1567"/>
      <point x="106" y="1579"/>
      <point x="174" y="1579" type="curve" smooth="yes"/>
    </contour>
    <contour>
      <point x="814" y="1577" type="move" name="top"/>
    </contour>
    <contour>
      <point x="814" y="0" type="move" name="bottom"/>
    </contour>
    <contour>
      <point x="814" y="789" type="move" name="center"/>
    </contour>
  </outline>
</glyph>
<glyph name="Y" format="1">
  <advance width="1613"/>
  <unicode hex="0059"/>
  <outline>
    <contour>
      <point x="477" y="78" type="curve" smooth="yes"/>
      <point x="477" y="66"/>
      <point x="477" y="53"/>
      <point x="485" y="43" type="curve" smooth="yes"/>
      <point x="489" y="35"/>
      <point x="504" y="20"/>
      <point x="506" y="20" type="curve" smooth="yes"/>
      <point x="1130" y="20" type="line"/>
      <point x="1145" y="35" type="line"/>
      <point x="1145" y="57" type="line" smooth="yes"/>
      <point x="1145" y="75"/>
      <point x="1148" y="101"/>
      <point x="1130" y="113" type="curve"/>
      <point x="1028" y="117"/>
      <point x="977" y="133"/>
      <point x="940" y="231" type="curve" smooth="yes"/>
      <point x="938" y="237"/>
      <point x="934" y="256"/>
      <point x="934" y="260" type="curve" smooth="yes"/>
      <point x="932" y="270"/>
      <point x="934" y="348"/>
      <point x="934" y="358" type="curve" smooth="yes"/>
      <point x="934" y="366"/>
      <point x="928" y="434"/>
      <point x="926" y="442" type="curve" smooth="yes"/>
      <point x="926" y="565" type="line" smooth="yes"/>
      <point x="926" y="688" type="line"/>
      <point x="930" y="719"/>
      <point x="945" y="735"/>
      <point x="963" y="758" type="curve" smooth="yes"/>
      <point x="971" y="768"/>
      <point x="965" y="772"/>
      <point x="975" y="778" type="curve"/>
      <point x="995" y="815"/>
      <point x="1093" y="981"/>
      <point x="1116" y="1018" type="curve" smooth="yes"/>
      <point x="1143" y="1059"/>
      <point x="1173" y="1100"/>
      <point x="1200" y="1143" type="curve" smooth="yes"/>
      <point x="1251" y="1229"/>
      <point x="1296" y="1327"/>
      <point x="1362" y="1403" type="curve" smooth="yes"/>
      <point x="1372" y="1415"/>
      <point x="1405" y="1448"/>
      <point x="1411" y="1452" type="curve" smooth="yes"/>
      <point x="1417" y="1456"/>
      <point x="1477" y="1485"/>
      <point x="1495" y="1493" type="curve" smooth="yes"/>
      <point x="1497" y="1495"/>
      <point x="1520" y="1499"/>
      <point x="1522" y="1501" type="curve" smooth="yes"/>
      <point x="1528" y="1503"/>
      <point x="1536" y="1507"/>
      <point x="1536" y="1507" type="curve"/>
      <point x="1536" y="1579" type="line" smooth="yes"/>
      <point x="1536" y="1583"/>
      <point x="1516" y="1591"/>
      <point x="1516" y="1591" type="curve"/>
      <point x="1510" y="1591"/>
      <point x="1481" y="1593"/>
      <point x="1475" y="1593" type="curve" smooth="yes"/>
      <point x="1465" y="1593"/>
      <point x="1434" y="1591"/>
      <point x="1432" y="1591" type="curve" smooth="yes"/>
      <point x="1403" y="1591"/>
      <point x="1264" y="1587"/>
      <point x="1235" y="1585" type="curve"/>
      <point x="1221" y="1591" type="line"/>
      <point x="1004" y="1591" type="line" smooth="yes"/>
      <point x="990" y="1591"/>
      <point x="989" y="1542"/>
      <point x="989" y="1528" type="curve" smooth="yes"/>
      <point x="989" y="1520"/>
      <point x="987" y="1511"/>
      <point x="997" y="1507" type="curve" smooth="yes"/>
      <point x="1036" y="1491"/>
      <point x="1081" y="1501"/>
      <point x="1122" y="1481" type="curve" smooth="yes"/>
      <point x="1134" y="1475"/>
      <point x="1145" y="1452"/>
      <point x="1151" y="1444" type="curve" smooth="yes"/>
      <point x="1165" y="1426"/>
      <point x="1174" y="1401"/>
      <point x="1174" y="1374" type="curve" smooth="yes"/>
      <point x="1174" y="1372"/>
      <point x="1171" y="1362"/>
      <point x="1171" y="1360" type="curve" smooth="yes"/>
      <point x="1167" y="1342"/>
      <point x="1132" y="1253"/>
      <point x="1122" y="1235" type="curve" smooth="yes"/>
      <point x="1106" y="1200"/>
      <point x="1017" y="1043"/>
      <point x="997" y="1010" type="curve"/>
      <point x="985" y="1004"/>
      <point x="987" y="989"/>
      <point x="975" y="981" type="curve"/>
      <point x="891" y="836" type="line"/>
      <point x="889" y="828"/>
      <point x="882" y="821"/>
      <point x="874" y="821" type="curve" smooth="yes"/>
      <point x="870" y="821" type="line"/>
      <point x="866" y="825"/>
      <point x="852" y="844"/>
      <point x="850" y="848" type="curve" smooth="yes"/>
      <point x="842" y="856" type="line" smooth="yes"/>
      <point x="729" y="1044" type="line"/>
      <point x="694" y="1064"/>
      <point x="703" y="1131"/>
      <point x="668" y="1151" type="curve"/>
      <point x="654" y="1178"/>
      <point x="587" y="1310"/>
      <point x="575" y="1339" type="curve" smooth="yes"/>
      <point x="571" y="1347"/>
      <point x="563" y="1376"/>
      <point x="561" y="1382" type="curve"/>
      <point x="561" y="1407" type="line" smooth="yes"/>
      <point x="561" y="1491"/>
      <point x="649" y="1497"/>
      <point x="717" y="1507" type="curve"/>
      <point x="723" y="1516" type="line"/>
      <point x="723" y="1579" type="line" smooth="yes"/>
      <point x="723" y="1583"/>
      <point x="702" y="1591"/>
      <point x="702" y="1591" type="curve"/>
      <point x="141" y="1591" type="line"/>
      <point x="84" y="1585" type="line" smooth="yes"/>
      <point x="78" y="1583"/>
      <point x="78" y="1567"/>
      <point x="78" y="1561" type="curve" smooth="yes"/>
      <point x="78" y="1543"/>
      <point x="80" y="1517"/>
      <point x="98" y="1507" type="curve"/>
      <point x="110" y="1505"/>
      <point x="164" y="1491"/>
      <point x="176" y="1487" type="curve" smooth="yes"/>
      <point x="180" y="1485"/>
      <point x="209" y="1470"/>
      <point x="217" y="1466" type="curve" smooth="yes"/>
      <point x="219" y="1466"/>
      <point x="223" y="1460"/>
      <point x="225" y="1458" type="curve" smooth="yes"/>
      <point x="233" y="1448"/>
      <point x="258" y="1413"/>
      <point x="260" y="1409" type="curve" smooth="yes"/>
      <point x="451" y="1087" type="line"/>
      <point x="461" y="1081"/>
      <point x="467" y="1057"/>
      <point x="471" y="1053" type="curve" smooth="yes"/>
      <point x="524" y="967"/>
      <point x="584" y="881"/>
      <point x="633" y="793" type="curve" smooth="yes"/>
      <point x="649" y="762"/>
      <point x="657" y="723"/>
      <point x="682" y="694" type="curve"/>
      <point x="684" y="671"/>
      <point x="694" y="564"/>
      <point x="694" y="541" type="curve"/>
      <point x="696" y="537"/>
      <point x="696" y="491"/>
      <point x="696" y="473" type="curve" smooth="yes"/>
      <point x="696" y="416"/>
      <point x="694" y="364"/>
      <point x="688" y="309" type="curve" smooth="yes"/>
      <point x="686" y="289"/>
      <point x="682" y="240"/>
      <point x="682" y="238" type="curve" smooth="yes"/>
      <point x="674" y="220"/>
      <point x="639" y="160"/>
      <point x="633" y="154" type="curve" smooth="yes"/>
      <point x="604" y="133" type="line"/>
      <point x="590" y="131"/>
      <point x="526" y="117"/>
      <point x="512" y="113" type="curve" smooth="yes"/>
      <point x="494" y="107"/>
      <point x="477" y="101"/>
    </contour>
    <contour>
      <point x="954" y="965" type="curve" smooth="yes"/>
      <point x="950" y="965"/>
      <point x="950" y="956"/>
      <point x="954" y="956" type="curve" smooth="yes"/>
      <point x="958" y="956"/>
      <point x="958" y="965"/>
    </contour>
    <contour>
      <point x="807" y="1577" type="move" name="top"/>
    </contour>
  </outline>
</glyph>
<glyph name="a" format="1">
  <advance width="1036"/>
  <unicode hex="0061"/>
  <outline>
    <contour>
      <point x="849" y="694" type="line" smooth="yes"/>
      <point x="849" y="955"/>
      <point x="767" y="1059"/>
      <point x="503" y="1059" type="curve" smooth="yes"/>
      <point x="315" y="1059"/>
      <point x="141" y="953"/>
      <point x="141" y="801" type="curve" smooth="yes"/>
      <point x="141.0" y="709.321212923"/>
      <point x="194.22291236" y="637.0"/>
      <point x="270" y="637" type="curve" smooth="yes"/>
      <point x="322" y="637"/>
      <point x="366" y="678"/>
      <point x="366" y="706" type="curve" smooth="yes"/>
      <point x="366" y="715"/>
      <point x="363" y="722"/>
      <point x="354" y="727" type="curve" smooth="yes"/>
      <point x="310" y="753"/>
      <point x="279" y="793"/>
      <point x="279" y="834" type="curve" smooth="yes"/>
      <point x="279" y="939"/>
      <point x="407" y="977"/>
      <point x="479" y="977" type="curve" smooth="yes"/>
      <point x="620" y="977"/>
      <point x="658" y="882"/>
      <point x="658" y="662" type="curve" smooth="yes"/>
      <point x="658" y="629" type="line"/>
      <point x="658" y="629"/>
      <point x="333" y="504"/>
      <point x="333" y="504" type="curve"/>
      <point x="233" y="463"/>
      <point x="114" y="391"/>
      <point x="114" y="236" type="curve" smooth="yes"/>
      <point x="114" y="100"/>
      <point x="226" y="-10"/>
      <point x="366" y="-10" type="curve" smooth="yes"/>
      <point x="507" y="-10"/>
      <point x="630" y="67"/>
      <point x="675" y="151" type="curve"/>
      <point x="689" y="71"/>
      <point x="733" y="-6"/>
      <point x="825" y="-6" type="curve" smooth="yes"/>
      <point x="931.697915657" y="-6.0"/>
      <point x="982.0" y="86.1594724172"/>
      <point x="982" y="149" type="curve" smooth="yes"/>
      <point x="982" y="163"/>
      <point x="970" y="183"/>
      <point x="956" y="183" type="curve" smooth="yes"/>
      <point x="951" y="183"/>
      <point x="946" y="181"/>
      <point x="941" y="176" type="curve" smooth="yes"/>
      <point x="924" y="159"/>
      <point x="909" y="151"/>
      <point x="897" y="151" type="curve" smooth="yes"/>
      <point x="864" y="151"/>
      <point x="849" y="204"/>
      <point x="849" y="256" type="curve" smooth="yes"/>
    </contour>
    <contour>
      <point x="658" y="507"/>
      <point x="658" y="273"/>
      <point x="658" y="273" type="curve"/>
      <point x="658" y="256"/>
      <point x="656.0" y="249.0"/>
      <point x="652" y="244" type="curve" smooth="yes"/>
      <point x="601" y="180"/>
      <point x="532" y="139"/>
      <point x="446" y="139" type="curve" smooth="yes"/>
      <point x="390" y="139"/>
      <point x="311" y="179"/>
      <point x="311" y="272" type="curve" smooth="yes"/>
      <point x="311" y="406"/>
      <point x="454" y="460"/>
      <point x="562" y="504" type="curve" smooth="yes"/>
      <point x="579" y="511"/>
      <point x="633" y="532"/>
      <point x="651" y="532" type="curve" smooth="yes"/>
      <point x="657" y="532"/>
      <point x="658" y="523"/>
      <point x="658" y="507" type="curve"/>
    </contour>
    <contour>
      <point x="545" y="1059" type="move" name="top"/>
    </contour>
    <contour>
      <point x="957" y="10" type="move" name="ogonek"/>
    </contour>
  </outline>
</glyph>
<glyph name="b" format="1">
  <advance width="1229"/>
  <unicode hex="0062"/>
  <outline>
    <contour>
      <point x="208" y="103" type="curve"/>
      <point x="328.405" y="36.1203"/>
      <point x="448.148" y="-23"/>
      <point x="631" y="-23" type="curve" smooth="yes"/>
      <point x="954.434" y="-23"/>
      <point x="1163" y="233.436"/>
      <point x="1163" y="587" type="curve" smooth="yes"/>
      <point x="1163" y="874.212"/>
      <point x="975.542" y="1096.66"/>
      <point x="739.232" y="1096.66" type="curve" smooth="yes"/>
      <point x="632.841" y="1096.66"/>
      <point x="516.547" y="1051.57"/>
      <point x="403" y="947" type="curve"/>
      <point x="403" y="1009" type="line" smooth="yes"/>
      <point x="403" y="1079.54"/>
      <point x="402.391" y="1148.01"/>
      <point x="402.391" y="1215.9" type="curve" smooth="yes"/>
      <point x="402.391" y="1359.23"/>
      <point x="405.106" y="1499.95"/>
      <point x="422" y="1652" type="curve"/>
      <point x="422" y="1662" type="line" smooth="yes"/>
      <point x="422" y="1678.67"/>
      <point x="400.472" y="1680.06"/>
      <point x="386.352" y="1680.06" type="curve" smooth="yes"/>
      <point x="383.528" y="1680.06"/>
      <point x="381" y="1680"/>
      <point x="379" y="1680" type="curve" smooth="yes"/>
      <point x="351.363" y="1680"/>
      <point x="323.469" y="1659.93"/>
      <point x="303" y="1652" type="curve" smooth="yes"/>
      <point x="230.639" y="1623.98"/>
      <point x="152" y="1607"/>
      <point x="78" y="1580" type="curve"/>
      <point x="68" y="1568"/>
      <point x="68" y="1555"/>
      <point x="68" y="1541" type="curve" smooth="yes"/>
      <point x="68" y="1490"/>
      <point x="182" y="1471"/>
      <point x="213" y="1424" type="curve"/>
      <point x="212" y="442" type="line" smooth="yes"/>
      <point x="212" y="387.848"/>
      <point x="205.379" y="237.352"/>
      <point x="205.379" y="155.551" type="curve" smooth="yes"/>
      <point x="205.379" y="128.642"/>
      <point x="206.096" y="109.167"/>
    </contour>
    <contour>
      <point x="625" y="921" type="curve" smooth="yes"/>
      <point x="891.064" y="921"/>
      <point x="983" y="687.539"/>
      <point x="983" y="478" type="curve" smooth="yes"/>
      <point x="983" y="261.199"/>
      <point x="872.565" y="77"/>
      <point x="672" y="77" type="curve" smooth="yes"/>
      <point x="549" y="77"/>
      <point x="403" y="157"/>
      <point x="403" y="296" type="curve" smooth="yes"/>
      <point x="403" y="829" type="line" smooth="yes"/>
      <point x="403" y="895.227"/>
      <point x="555.39" y="921"/>
    </contour>
  </outline>
</glyph>
<glyph name="c" format="1">
  <advance width="980"/>
  <unicode hex="0063"/>
  <outline>
    <contour>
      <point x="914.565" y="225.008" type="curve" smooth="yes"/>
      <point x="914.565" y="250.876"/>
      <point x="897.141" y="279.545"/>
      <point x="873.745" y="279.545" type="curve" smooth="yes"/>
      <point x="835.594" y="279.545"/>
      <point x="770.527" y="158"/>
      <point x="592" y="158" type="curve" smooth="yes"/>
      <point x="375.303" y="158"/>
      <point x="238" y="345.846"/>
      <point x="238" y="593" type="curve" smooth="yes"/>
      <point x="238" y="791.655"/>
      <point x="315.942" y="972"/>
      <point x="518" y="972" type="curve" smooth="yes"/>
      <point x="659.276" y="972"/>
      <point x="695.016" y="885.95"/>
      <point x="757" y="781" type="curve" smooth="yes"/>
      <point x="768.527" y="761.483"/>
      <point x="788.207" y="750.887"/>
      <point x="811.514" y="750.887" type="curve" smooth="yes"/>
      <point x="852.265" y="750.887"/>
      <point x="898.758" y="780.373"/>
      <point x="898.758" y="833.055" type="curve" smooth="yes"/>
      <point x="898.758" y="990.334"/>
      <point x="686.808" y="1057.94"/>
      <point x="546.454" y="1058" type="curve" smooth="yes"/>
      <point x="265.28" y="1058"/>
      <point x="70" y="830.343"/>
      <point x="70" y="536" type="curve" smooth="yes"/>
      <point x="70" y="185.604"/>
      <point x="237.92" y="-23"/>
      <point x="518" y="-23" type="curve" smooth="yes"/>
      <point x="702.031" y="-23"/>
      <point x="854" y="81"/>
      <point x="914" y="215" type="curve"/>
      <point x="914.381" y="218.511"/>
      <point x="914.565" y="221.843"/>
    </contour>
    <contour>
      <point x="490" y="1059" type="move" name="top"/>
    </contour>
    <contour>
      <point x="490" y="0" type="move" name="bottom"/>
    </contour>
  </outline>
</glyph>
<glyph name="d" format="1">
  <advance width="1188"/>
  <unicode hex="0064"/>
  <outline>
    <contour>
      <point x="859" y="-25" type="curve" smooth="yes"/>
      <point x="884" y="-25"/>
      <point x="902" y="-9"/>
      <point x="927" y="-3" type="curve" smooth="yes"/>
      <point x="1005" y="15"/>
      <point x="1088" y="19"/>
      <point x="1164" y="46" type="curve" smooth="yes"/>
      <point x="1178" y="51"/>
      <point x="1179" y="72"/>
      <point x="1179" y="87" type="curve" smooth="yes"/>
      <point x="1179" y="130" type="line" smooth="yes"/>
      <point x="1178" y="135"/>
      <point x="1174" y="136"/>
      <point x="1170" y="136" type="curve" smooth="yes"/>
      <point x="1168" y="136"/>
      <point x="1166" y="136"/>
      <point x="1164" y="136" type="curve" smooth="yes"/>
      <point x="1152" y="136"/>
      <point x="1139" y="130"/>
      <point x="1125" y="130" type="curve" smooth="yes"/>
      <point x="1064" y="130"/>
      <point x="1020" y="168"/>
      <point x="1018" y="229" type="curve" smooth="yes"/>
      <point x="1018" y="1574" type="line"/>
      <point x="1018" y="1590"/>
      <point x="1018" y="1605"/>
      <point x="1004" y="1605" type="curve" smooth="yes"/>
      <point x="998" y="1605"/>
      <point x="991" y="1603"/>
      <point x="983" y="1599" type="curve" smooth="yes"/>
      <point x="968" y="1593"/>
      <point x="741" y="1505"/>
      <point x="689" y="1486" type="curve" smooth="yes"/>
      <point x="676" y="1481"/>
      <point x="671" y="1473"/>
      <point x="671" y="1465" type="curve" smooth="yes"/>
      <point x="671" y="1458"/>
      <point x="675" y="1451"/>
      <point x="682" y="1448" type="curve" smooth="yes"/>
      <point x="844" y="1351" type="line"/>
      <point x="844" y="989" type="line" smooth="yes"/>
      <point x="844" y="985"/>
      <point x="839" y="980"/>
      <point x="827" y="987" type="curve" smooth="yes"/>
      <point x="782" y="1013"/>
      <point x="692" y="1059"/>
      <point x="584" y="1059" type="curve" smooth="yes"/>
      <point x="221" y="1059"/>
      <point x="81" y="740"/>
      <point x="81" y="519" type="curve"/>
      <point x="81" y="291"/>
      <point x="208" y="-18"/>
      <point x="541" y="-18" type="curve" smooth="yes"/>
      <point x="682" y="-18"/>
      <point x="782" y="49"/>
      <point x="837" y="117" type="curve"/>
      <point x="839" y="117"/>
      <point x="842" y="116"/>
      <point x="843" y="116" type="curve"/>
      <point x="843" y="-11" type="line"/>
      <point x="843" y="-11"/>
      <point x="851" y="-21"/>
      <point x="855" y="-23" type="curve" smooth="yes"/>
      <point x="855" y="-23"/>
      <point x="857" y="-25"/>
    </contour>
    <contour>
      <point x="824" y="198"/>
      <point x="738" y="108"/>
      <point x="604" y="108" type="curve"/>
      <point x="403" y="108"/>
      <point x="262" y="294"/>
      <point x="262" y="553" type="curve" smooth="yes"/>
      <point x="262" y="799"/>
      <point x="397" y="965"/>
      <point x="587" y="965" type="curve" smooth="yes"/>
      <point x="729" y="965"/>
      <point x="844" y="872"/>
      <point x="844" y="781" type="curve" smooth="yes"/>
      <point x="844" y="224" type="line"/>
    </contour>
    <contour>
      <point x="607.0" y="530.0" type="move" name="center"/>
    </contour>
  </outline>
</glyph>
<glyph name="e" format="1">
  <advance width="1015"/>
  <unicode hex="0065"/>
  <outline>
    <contour>
      <point x="81" y="261"/>
      <point x="243" y="-23"/>
      <point x="547" y="-23" type="curve" smooth="yes"/>
      <point x="744" y="-23"/>
      <point x="878" y="115"/>
      <point x="924" y="212" type="curve"/>
      <point x="928" y="222"/>
      <point x="930" y="231"/>
      <point x="930" y="239" type="curve" smooth="yes"/>
      <point x="930" y="260"/>
      <point x="922" y="269"/>
      <point x="900" y="270" type="curve"/>
      <point x="896" y="270" type="line" smooth="yes"/>
      <point x="858" y="270"/>
      <point x="792" y="140"/>
      <point x="601" y="140" type="curve" smooth="yes"/>
      <point x="363" y="140"/>
      <point x="256" y="372"/>
      <point x="256" y="604" type="curve" smooth="yes"/>
      <point x="256" y="617"/>
      <point x="256" y="639"/>
      <point x="256" y="639" type="curve"/>
      <point x="776" y="639" type="line" smooth="yes"/>
      <point x="826" y="639"/>
      <point x="907" y="649"/>
      <point x="915" y="657" type="curve" smooth="yes"/>
      <point x="915" y="659"/>
      <point x="917" y="676"/>
      <point x="917" y="682" type="curve" smooth="yes"/>
      <point x="917" y="688"/>
      <point x="915" y="711"/>
      <point x="915" y="715" type="curve" smooth="yes"/>
      <point x="891" y="909"/>
      <point x="727" y="1059"/>
      <point x="525" y="1059" type="curve" smooth="yes"/>
      <point x="234" y="1059"/>
      <point x="81" y="797"/>
      <point x="81" y="538" type="curve" smooth="yes"/>
    </contour>
    <contour>
      <point x="269" y="827"/>
      <point x="364" y="975"/>
      <point x="505" y="975" type="curve" smooth="yes"/>
      <point x="655" y="975"/>
      <point x="709" y="811"/>
      <point x="709" y="748" type="curve" smooth="yes"/>
      <point x="709" y="731"/>
      <point x="704" y="721"/>
      <point x="693" y="721" type="curve" smooth="yes"/>
      <point x="644" y="721" type="line" smooth="yes"/>
      <point x="521" y="721"/>
      <point x="379" y="702"/>
      <point x="258" y="702" type="curve"/>
    </contour>
    <contour>
      <point x="511" y="1059" type="move" name="top"/>
    </contour>
    <contour>
      <point x="511" y="0" type="move" name="bottom"/>
    </contour>
    <contour>
      <point x="885" y="10" type="move" name="ogonek"/>
    </contour>
  </outline>
</glyph>
<glyph name="f" format="1">
  <advance width="878"/>
  <unicode hex="0066"/>
  <outline>
    <contour>
      <point x="595" y="0"/>
      <point x="603" y="22"/>
      <point x="603" y="43" type="curve" smooth="yes"/>
      <point x="603" y="59"/>
      <point x="598" y="75"/>
      <point x="584" y="76" type="curve"/>
      <point x="430" y="99"/>
      <point x="429" y="139"/>
      <point x="429" y="228" type="curve" smooth="yes"/>
      <point x="429" y="926" type="line"/>
      <point x="617" y="926" type="line"/>
      <point x="617" y="1039" type="line"/>
      <point x="429" y="1039" type="line"/>
      <point x="429" y="1040" type="line"/>
      <point x="429" y="1305"/>
      <point x="446" y="1507"/>
      <point x="574" y="1507" type="curve"/>
      <point x="662" y="1507"/>
      <point x="723" y="1356"/>
      <point x="806" y="1356" type="curve"/>
      <point x="861" y="1356"/>
      <point x="898" y="1429"/>
      <point x="898" y="1478" type="curve"/>
      <point x="898" y="1541"/>
      <point x="802" y="1604"/>
      <point x="660" y="1604" type="curve" smooth="yes"/>
      <point x="511" y="1604"/>
      <point x="255" y="1559"/>
      <point x="255" y="1078" type="curve"/>
      <point x="255" y="1048"/>
      <point x="232" y="1039"/>
      <point x="218" y="1039" type="curve" smooth="yes"/>
      <point x="202" y="1039"/>
      <point x="123" y="1039"/>
      <point x="102" y="1039" type="curve"/>
      <point x="102" y="926" type="line"/>
      <point x="255" y="926" type="line"/>
      <point x="255" y="228" type="line" smooth="yes"/>
      <point x="255" y="114"/>
      <point x="181" y="92"/>
      <point x="116" y="78" type="curve" smooth="yes"/>
      <point x="97" y="74"/>
      <point x="85" y="69"/>
      <point x="85" y="29" type="curve" smooth="yes"/>
      <point x="85" y="17"/>
      <point x="90" y="0"/>
      <point x="100" y="0" type="curve" smooth="yes"/>
      <point x="584" y="0" type="line" smooth="yes"/>
    </contour>
  </outline>
</glyph>
<glyph name="g" format="1">
  <advance width="1143"/>
  <unicode hex="0067"/>
  <outline>
    <contour>
      <point x="726" y="565"/>
      <point x="685" y="430"/>
      <point x="517" y="430" type="curve"/>
      <point x="455" y="430"/>
      <point x="314" y="468"/>
      <point x="314" y="708" type="curve" smooth="yes"/>
      <point x="314" y="873"/>
      <point x="405" y="971"/>
      <point x="520" y="971" type="curve" smooth="yes"/>
      <point x="677" y="971"/>
      <point x="722" y="832"/>
      <point x="726" y="706" type="curve" smooth="yes"/>
      <point x="726" y="688" type="line"/>
    </contour>
    <contour>
      <point x="1033" y="21"/>
      <point x="952" y="156"/>
      <point x="689" y="156" type="curve" smooth="yes"/>
      <point x="438" y="156" type="line" smooth="yes"/>
      <point x="367" y="156"/>
      <point x="305" y="176"/>
      <point x="305" y="233" type="curve" smooth="yes"/>
      <point x="305" y="281"/>
      <point x="369" y="331"/>
      <point x="415" y="331" type="curve" smooth="yes"/>
      <point x="450" y="331"/>
      <point x="474" y="321"/>
      <point x="517" y="321" type="curve" smooth="yes"/>
      <point x="820" y="321"/>
      <point x="909" y="520"/>
      <point x="909" y="709" type="curve" smooth="yes"/>
      <point x="909" y="795"/>
      <point x="878" y="873"/>
      <point x="878" y="874" type="curve" smooth="yes"/>
      <point x="878" y="897"/>
      <point x="886" y="927"/>
      <point x="920" y="927" type="curve" smooth="yes"/>
      <point x="1005" y="927"/>
      <point x="1030" y="833"/>
      <point x="1087" y="833" type="curve" smooth="yes"/>
      <point x="1124" y="833"/>
      <point x="1169" y="860"/>
      <point x="1169" y="935" type="curve" smooth="yes"/>
      <point x="1169" y="954"/>
      <point x="1149" y="1039"/>
      <point x="1032" y="1039" type="curve" smooth="yes"/>
      <point x="979" y="1039"/>
      <point x="907" y="1007"/>
      <point x="839" y="941" type="curve"/>
      <point x="755" y="1038"/>
      <point x="649" y="1078"/>
      <point x="527" y="1078" type="curve"/>
      <point x="173" y="1078"/>
      <point x="134" y="824"/>
      <point x="134" y="705" type="curve" smooth="yes"/>
      <point x="134" y="477"/>
      <point x="311.0" y="383.0"/>
      <point x="311" y="383" type="curve"/>
      <point x="185" y="329"/>
      <point x="113" y="246"/>
      <point x="113" y="171" type="curve" smooth="yes"/>
      <point x="113" y="122"/>
      <point x="141" y="37"/>
      <point x="265" y="-3" type="curve"/>
      <point x="135" y="-54"/>
      <point x="52" y="-137"/>
      <point x="52" y="-251" type="curve" smooth="yes"/>
      <point x="52" y="-421"/>
      <point x="344" y="-464"/>
      <point x="474" y="-464" type="curve" smooth="yes"/>
      <point x="474" y="-464"/>
      <point x="474" y="-464"/>
      <point x="474" y="-464" type="curve"/>
      <point x="780" y="-464"/>
      <point x="1033" y="-363"/>
      <point x="1033" y="-94" type="curve" smooth="yes"/>
    </contour>
    <contour>
      <point x="222" y="-146"/>
      <point x="301" y="-28"/>
      <point x="368" y="-28" type="curve" smooth="yes"/>
      <point x="718" y="-28" type="line" smooth="yes"/>
      <point x="725" y="-28"/>
      <point x="876" y="-49"/>
      <point x="876" y="-149" type="curve" smooth="yes"/>
      <point x="876" y="-263"/>
      <point x="768" y="-337"/>
      <point x="529" y="-337" type="curve" smooth="yes"/>
      <point x="297" y="-337"/>
      <point x="222" y="-275"/>
      <point x="222" y="-214" type="curve" smooth="yes"/>
    </contour>
    <contour>
      <point x="455" y="1059" type="move" name="top"/>
    </contour>
  </outline>
</glyph>
<glyph name="h" format="1">
  <advance width="1210"/>
  <unicode hex="0068"/>
  <outline>
    <contour>
      <point x="49.0" y="17.0"/>
      <point x="54.0" y="0.0"/>
      <point x="64.0" y="0.0" type="curve" smooth="yes"/>
      <point x="548.0" y="0.0" type="line" smooth="yes"/>
      <point x="559.0" y="0.0"/>
      <point x="573" y="22"/>
      <point x="573" y="43" type="curve" smooth="yes"/>
      <point x="573" y="59"/>
      <point x="562.0" y="75.0"/>
      <point x="548.0" y="76.0" type="curve"/>
      <point x="394.0" y="99.0"/>
      <point x="393.0" y="139.0"/>
      <point x="393.0" y="228.0" type="curve" smooth="yes"/>
      <point x="393.0" y="804.0" type="line"/>
      <point x="442.0" y="841.0"/>
      <point x="549" y="914"/>
      <point x="674" y="914" type="curve" smooth="yes"/>
      <point x="778" y="914"/>
      <point x="838" y="836"/>
      <point x="838" y="709" type="curve" smooth="yes"/>
      <point x="838" y="228" type="line" smooth="yes"/>
      <point x="838" y="114"/>
      <point x="764" y="92"/>
      <point x="699" y="78" type="curve" smooth="yes"/>
      <point x="680" y="74"/>
      <point x="668" y="69"/>
      <point x="668" y="29" type="curve" smooth="yes"/>
      <point x="668" y="17"/>
      <point x="673" y="0"/>
      <point x="683" y="0" type="curve" smooth="yes"/>
      <point x="1167" y="0" type="line" smooth="yes"/>
      <point x="1178" y="0"/>
      <point x="1186" y="22"/>
      <point x="1186" y="43" type="curve" smooth="yes"/>
      <point x="1186" y="59"/>
      <point x="1181" y="75"/>
      <point x="1167" y="76" type="curve"/>
      <point x="1013" y="99"/>
      <point x="1012" y="139"/>
      <point x="1012" y="228" type="curve" smooth="yes"/>
      <point x="1012" y="719" type="line" smooth="yes"/>
      <point x="1012" y="930"/>
      <point x="917" y="1059"/>
      <point x="740" y="1059" type="curve" smooth="yes"/>
      <point x="551" y="1059"/>
      <point x="393.0" y="879.0"/>
      <point x="393.0" y="879.0" type="curve" smooth="yes"/>
      <point x="393" y="1570" type="line" smooth="yes"/>
      <point x="393" y="1588"/>
      <point x="393" y="1603"/>
      <point x="379" y="1603" type="curve" smooth="yes"/>
      <point x="373" y="1603"/>
      <point x="366" y="1601"/>
      <point x="358" y="1597" type="curve" smooth="yes"/>
      <point x="343" y="1591"/>
      <point x="116" y="1503"/>
      <point x="64" y="1484" type="curve" smooth="yes"/>
      <point x="51" y="1479"/>
      <point x="46" y="1471"/>
      <point x="46" y="1463" type="curve" smooth="yes"/>
      <point x="46" y="1456"/>
      <point x="50" y="1449"/>
      <point x="57" y="1446" type="curve" smooth="yes"/>
      <point x="219" y="1349" type="line"/>
      <point x="219.0" y="228.0" type="line" smooth="yes"/>
      <point x="219.0" y="114.0"/>
      <point x="145.0" y="92.0"/>
      <point x="80.0" y="78.0" type="curve" smooth="yes"/>
      <point x="61.0" y="74.0"/>
      <point x="49.0" y="69.0"/>
      <point x="49.0" y="29.0" type="curve" smooth="yes"/>
    </contour>
    <contour>
      <point x="597.0" y="0.0" type="move" name="bottom"/>
    </contour>
    <contour>
      <point x="597.0" y="1059.0" type="move" name="top"/>
    </contour>
    <contour>
      <point x="605" y="1059" type="move" name="top"/>
    </contour>
    <contour>
      <point x="605" y="530" type="move" name="center"/>
    </contour>
  </outline>
</glyph>
<glyph name="i" format="1">
  <advance width="649"/>
  <unicode hex="0069"/>
  <outline>
    <contour>
      <point x="397.0" y="1026.0" type="curve" smooth="yes"/>
      <point x="397" y="1044"/>
      <point x="397.0" y="1059.0"/>
      <point x="383.0" y="1059.0" type="curve" smooth="yes"/>
      <point x="377.0" y="1059.0"/>
      <point x="370.0" y="1057.0"/>
      <point x="362.0" y="1053.0" type="curve" smooth="yes"/>
      <point x="347.0" y="1047.0"/>
      <point x="120.0" y="959.0"/>
      <point x="68.0" y="940.0" type="curve" smooth="yes"/>
      <point x="55.0" y="935.0"/>
      <point x="50.0" y="927.0"/>
      <point x="50.0" y="919.0" type="curve" smooth="yes"/>
      <point x="50.0" y="912.0"/>
      <point x="54.0" y="905.0"/>
      <point x="61.0" y="902.0" type="curve" smooth="yes"/>
      <point x="223.0" y="805.0" type="line"/>
      <point x="223.0" y="228.0" type="line" smooth="yes"/>
      <point x="223.0" y="114.0"/>
      <point x="149.0" y="92.0"/>
      <point x="84.0" y="78.0" type="curve" smooth="yes"/>
      <point x="65.0" y="74.0"/>
      <point x="53.0" y="69.0"/>
      <point x="53.0" y="29.0" type="curve" smooth="yes"/>
      <point x="53.0" y="17.0"/>
      <point x="58.0" y="0.0"/>
      <point x="68.0" y="0.0" type="curve" smooth="yes"/>
      <point x="552.0" y="0.0" type="line" smooth="yes"/>
      <point x="563.0" y="0.0"/>
      <point x="571.0" y="22.0"/>
      <point x="571.0" y="43.0" type="curve" smooth="yes"/>
      <point x="571.0" y="59.0"/>
      <point x="566.0" y="75.0"/>
      <point x="552.0" y="76.0" type="curve"/>
      <point x="398.0" y="99.0"/>
      <point x="397" y="139"/>
      <point x="397.0" y="228.0" type="curve" smooth="yes"/>
      <point x="397.0" y="228.0"/>
      <point x="397.0" y="1026.0"/>
    </contour>
    <contour>
      <point x="285" y="1458" type="curve" smooth="yes"/>
      <point x="365" y="1458"/>
      <point x="409" y="1405"/>
      <point x="409" y="1337" type="curve" smooth="yes"/>
      <point x="409" y="1249"/>
      <point x="346" y="1206"/>
      <point x="285" y="1206" type="curve" smooth="yes"/>
      <point x="224" y="1206"/>
      <point x="160" y="1249"/>
      <point x="160" y="1337" type="curve" smooth="yes"/>
      <point x="160" y="1405"/>
      <point x="205" y="1458"/>
    </contour>
  </outline>
</glyph>
<glyph name="k" format="1">
  <advance width="1619"/>
  <unicode hex="006B"/>
  <outline>
    <contour>
      <point x="485" y="35" type="line"/>
      <point x="698" y="37"/>
      <point x="907" y="29"/>
      <point x="1122" y="29" type="curve" smooth="yes"/>
      <point x="1137" y="29" type="line" smooth="yes"/>
      <point x="1141" y="29"/>
      <point x="1151" y="39"/>
      <point x="1151" y="43" type="curve" smooth="yes"/>
      <point x="1151" y="98" type="line" smooth="yes"/>
      <point x="1151" y="110"/>
      <point x="1122" y="119"/>
      <point x="1116" y="119" type="curve"/>
      <point x="1112" y="121"/>
      <point x="1083" y="125"/>
      <point x="1081" y="127" type="curve" smooth="yes"/>
      <point x="1063" y="131"/>
      <point x="1014" y="145"/>
      <point x="1010" y="147" type="curve" smooth="yes"/>
      <point x="969" y="188" type="line" smooth="yes"/>
      <point x="963" y="196"/>
      <point x="948" y="215"/>
      <point x="948" y="217" type="curve" smooth="yes"/>
      <point x="934" y="301" type="line"/>
      <point x="934" y="631" type="line" smooth="yes"/>
      <point x="934" y="645"/>
      <point x="928" y="764"/>
      <point x="926" y="778" type="curve" smooth="yes"/>
      <point x="926" y="799" type="line" smooth="yes"/>
      <point x="926" y="821" type="line" smooth="yes"/>
      <point x="928" y="844"/>
      <point x="934" y="1030"/>
      <point x="934" y="1053" type="curve" smooth="yes"/>
      <point x="934" y="1501" type="line"/>
      <point x="948" y="1516" type="line"/>
      <point x="952" y="1516"/>
      <point x="1008" y="1518"/>
      <point x="1028" y="1518" type="curve" smooth="yes"/>
      <point x="1057" y="1518"/>
      <point x="1143" y="1516"/>
      <point x="1151" y="1516" type="curve" smooth="yes"/>
      <point x="1157" y="1516"/>
      <point x="1213" y="1505"/>
      <point x="1229" y="1501" type="curve" smooth="yes"/>
      <point x="1249" y="1495"/>
      <point x="1297" y="1478"/>
      <point x="1313" y="1466" type="curve" smooth="yes"/>
      <point x="1364" y="1425"/>
      <point x="1405" y="1354"/>
      <point x="1438" y="1305" type="curve" smooth="yes"/>
      <point x="1458" y="1274"/>
      <point x="1464" y="1241"/>
      <point x="1509" y="1241" type="curve" smooth="yes"/>
      <point x="1523" y="1241"/>
      <point x="1544" y="1248"/>
      <point x="1550" y="1262" type="curve" smooth="yes"/>
      <point x="1550" y="1286" type="line" smooth="yes"/>
      <point x="1550" y="1325"/>
      <point x="1546" y="1360"/>
      <point x="1536" y="1397" type="curve" smooth="yes"/>
      <point x="1522" y="1452"/>
      <point x="1534" y="1520"/>
      <point x="1516" y="1579" type="curve" smooth="yes"/>
      <point x="1514" y="1587"/>
      <point x="1491" y="1591"/>
      <point x="1487" y="1591" type="curve" smooth="yes"/>
      <point x="1130" y="1591" type="line"/>
      <point x="1118" y="1593"/>
      <point x="1065" y="1597"/>
      <point x="1053" y="1599" type="curve"/>
      <point x="121" y="1599" type="line" smooth="yes"/>
      <point x="107" y="1599"/>
      <point x="98" y="1583"/>
      <point x="98" y="1571" type="curve" smooth="yes"/>
      <point x="96" y="1544"/>
      <point x="86" y="1422"/>
      <point x="84" y="1397" type="curve" smooth="yes"/>
      <point x="82" y="1366"/>
      <point x="78" y="1342"/>
      <point x="78" y="1311" type="curve" smooth="yes"/>
      <point x="78" y="1270" type="line" smooth="yes"/>
      <point x="78" y="1245"/>
      <point x="115" y="1247"/>
      <point x="129" y="1247" type="curve" smooth="yes"/>
      <point x="176" y="1247"/>
      <point x="191" y="1308"/>
      <point x="211" y="1339" type="curve" smooth="yes"/>
      <point x="268" y="1425"/>
      <point x="331" y="1505"/>
      <point x="442" y="1507" type="curve" smooth="yes"/>
      <point x="452" y="1507"/>
      <point x="553" y="1509"/>
      <point x="588" y="1509" type="curve" smooth="yes"/>
      <point x="615" y="1509"/>
      <point x="680" y="1507"/>
      <point x="682" y="1507" type="curve" smooth="yes"/>
      <point x="688" y="1481" type="line"/>
      <point x="688" y="1339" type="line" smooth="yes"/>
      <point x="688" y="1306"/>
      <point x="694" y="1037"/>
      <point x="694" y="1004" type="curve" smooth="yes"/>
      <point x="696" y="932"/>
      <point x="696" y="598"/>
      <point x="694" y="526" type="curve"/>
      <point x="698" y="512"/>
      <point x="702" y="448"/>
      <point x="702" y="434" type="curve" smooth="yes"/>
      <point x="702" y="420"/>
      <point x="690" y="297"/>
      <point x="688" y="281" type="curve"/>
      <point x="688" y="274" type="line"/>
      <point x="684" y="254"/>
      <point x="674" y="205"/>
      <point x="674" y="203" type="curve" smooth="yes"/>
      <point x="647" y="133"/>
      <point x="558" y="113"/>
      <point x="492" y="119" type="curve"/>
      <point x="474" y="107"/>
      <point x="477" y="84"/>
      <point x="477" y="66" type="curve" smooth="yes"/>
      <point x="477" y="43" type="line"/>
    </contour>
    <contour>
      <point x="547" y="1323" type="curve" smooth="yes"/>
      <point x="545" y="1323"/>
      <point x="545" y="1315"/>
      <point x="547" y="1315" type="curve" smooth="yes"/>
      <point x="551" y="1315"/>
      <point x="551" y="1323"/>
    </contour>
    <contour>
      <point x="810" y="0" type="move" name="bottom"/>
    </contour>
  </outline>
</glyph>
<glyph name="l" format="1">
  <advance width="615.0"/>
  <unicode hex="006C"/>
  <outline>
    <contour>
      <point x="64.0" y="0.0" type="curve" smooth="yes"/>
      <point x="548.0" y="0.0" type="line" smooth="yes"/>
      <point x="559.0" y="0.0"/>
      <point x="567.0" y="22.0"/>
      <point x="567.0" y="43.0" type="curve" smooth="yes"/>
      <point x="567.0" y="59.0"/>
      <point x="562.0" y="75.0"/>
      <point x="548.0" y="76.0" type="curve"/>
      <point x="394.0" y="99.0"/>
      <point x="393.0" y="139.0"/>
      <point x="393.0" y="228.0" type="curve" smooth="yes"/>
      <point x="393.0" y="1350.0" type="line"/>
      <point x="393.0" y="1350.0"/>
      <point x="393.0" y="1425.0"/>
      <point x="393.0" y="1425.0" type="curve" smooth="yes"/>
      <point x="393.0" y="1572.0" type="line" smooth="yes"/>
      <point x="393.0" y="1590.0"/>
      <point x="393.0" y="1605.0"/>
      <point x="379.0" y="1605.0" type="curve" smooth="yes"/>
      <point x="373.0" y="1605.0"/>
      <point x="366.0" y="1603.0"/>
      <point x="358.0" y="1599.0" type="curve" smooth="yes"/>
      <point x="343.0" y="1593.0"/>
      <point x="116.0" y="1505.0"/>
      <point x="64.0" y="1486.0" type="curve" smooth="yes"/>
      <point x="51.0" y="1481.0"/>
      <point x="46.0" y="1473.0"/>
      <point x="46.0" y="1465.0" type="curve" smooth="yes"/>
      <point x="46.0" y="1458.0"/>
      <point x="50.0" y="1451.0"/>
      <point x="57.0" y="1448.0" type="curve" smooth="yes"/>
      <point x="219.0" y="1351.0" type="line"/>
      <point x="219.0" y="228.0" type="line" smooth="yes"/>
      <point x="219.0" y="114.0"/>
      <point x="145.0" y="92.0"/>
      <point x="80.0" y="78.0" type="curve" smooth="yes"/>
      <point x="61.0" y="74.0"/>
      <point x="49.0" y="69.0"/>
      <point x="49.0" y="29.0" type="curve" smooth="yes"/>
      <point x="49.0" y="17.0"/>
      <point x="54.0" y="0.0"/>
    </contour>
  </outline>
</glyph>
<glyph name="m" format="1">
  <advance width="1779"/>
  <unicode hex="006D"/>
  <outline>
    <contour>
      <point x="559" y="0"/>
      <point x="567" y="22"/>
      <point x="567" y="43" type="curve" smooth="yes"/>
      <point x="567" y="59"/>
      <point x="562" y="75"/>
      <point x="548" y="76" type="curve"/>
      <point x="394" y="99"/>
      <point x="393" y="139"/>
      <point x="393" y="228" type="curve" smooth="yes"/>
      <point x="393" y="804" type="line"/>
      <point x="442" y="841"/>
      <point x="541" y="914"/>
      <point x="666" y="914" type="curve" smooth="yes"/>
      <point x="770" y="914"/>
      <point x="830" y="836"/>
      <point x="830" y="709" type="curve" smooth="yes"/>
      <point x="830" y="228" type="line" smooth="yes"/>
      <point x="830" y="114"/>
      <point x="756" y="92"/>
      <point x="691" y="78" type="curve" smooth="yes"/>
      <point x="672" y="74"/>
      <point x="660" y="69"/>
      <point x="660" y="29" type="curve" smooth="yes"/>
      <point x="660" y="17"/>
      <point x="665" y="0"/>
      <point x="675" y="0" type="curve" smooth="yes"/>
      <point x="1159" y="0" type="line" smooth="yes"/>
      <point x="1170" y="0"/>
      <point x="1178" y="22"/>
      <point x="1178" y="43" type="curve" smooth="yes"/>
      <point x="1178" y="59"/>
      <point x="1173" y="75"/>
      <point x="1159" y="76" type="curve"/>
      <point x="1005" y="99"/>
      <point x="1004" y="139"/>
      <point x="1004" y="228" type="curve" smooth="yes"/>
      <point x="1004" y="719" type="line" smooth="yes"/>
      <point x="1004" y="752"/>
      <point x="1002" y="782"/>
      <point x="997" y="811" type="curve"/>
      <point x="1046" y="849"/>
      <point x="1141" y="914"/>
      <point x="1259" y="914" type="curve" smooth="yes"/>
      <point x="1363" y="914"/>
      <point x="1423" y="836"/>
      <point x="1423" y="709" type="curve" smooth="yes"/>
      <point x="1423" y="228" type="line" smooth="yes"/>
      <point x="1423" y="114"/>
      <point x="1349" y="92"/>
      <point x="1284" y="78" type="curve" smooth="yes"/>
      <point x="1265" y="74"/>
      <point x="1253" y="69"/>
      <point x="1253" y="29" type="curve" smooth="yes"/>
      <point x="1253" y="17"/>
      <point x="1258" y="0"/>
      <point x="1268" y="0" type="curve" smooth="yes"/>
      <point x="1752" y="0" type="line" smooth="yes"/>
      <point x="1763" y="0"/>
      <point x="1771" y="22"/>
      <point x="1771" y="43" type="curve" smooth="yes"/>
      <point x="1771" y="59"/>
      <point x="1766" y="75"/>
      <point x="1752" y="76" type="curve"/>
      <point x="1598" y="99"/>
      <point x="1597" y="139"/>
      <point x="1597" y="228" type="curve" smooth="yes"/>
      <point x="1597" y="719" type="line" smooth="yes"/>
      <point x="1597" y="930"/>
      <point x="1502" y="1059"/>
      <point x="1325" y="1059" type="curve" smooth="yes"/>
      <point x="1157" y="1059"/>
      <point x="1009" y="917"/>
      <point x="979" y="885" type="curve"/>
      <point x="940" y="996"/>
      <point x="856" y="1059"/>
      <point x="732" y="1059" type="curve" smooth="yes"/>
      <point x="543" y="1059"/>
      <point x="393" y="879"/>
      <point x="393" y="879" type="curve" smooth="yes"/>
      <point x="393" y="1026" type="line" smooth="yes"/>
      <point x="393" y="1044"/>
      <point x="393" y="1059"/>
      <point x="379" y="1059" type="curve" smooth="yes"/>
      <point x="373" y="1059"/>
      <point x="366" y="1057"/>
      <point x="358" y="1053" type="curve" smooth="yes"/>
      <point x="343" y="1047"/>
      <point x="116" y="959"/>
      <point x="64" y="940" type="curve" smooth="yes"/>
      <point x="51" y="935"/>
      <point x="46" y="927"/>
      <point x="46" y="919" type="curve" smooth="yes"/>
      <point x="46" y="912"/>
      <point x="50" y="905"/>
      <point x="57" y="902" type="curve" smooth="yes"/>
      <point x="219" y="805" type="line"/>
      <point x="219" y="228" type="line" smooth="yes"/>
      <point x="219" y="114"/>
      <point x="145" y="92"/>
      <point x="80" y="78" type="curve" smooth="yes"/>
      <point x="61" y="74"/>
      <point x="49" y="69"/>
      <point x="49" y="29" type="curve" smooth="yes"/>
      <point x="49" y="17"/>
      <point x="54" y="0"/>
      <point x="64" y="0" type="curve" smooth="yes"/>
      <point x="548" y="0" type="line" smooth="yes"/>
    </contour>
  </outline>
</glyph>
<glyph name="n" format="1">
  <advance width="1186"/>
  <unicode hex="006E"/>
  <outline>
    <contour>
      <point x="49" y="17"/>
      <point x="54" y="0"/>
      <point x="64" y="0" type="curve" smooth="yes"/>
      <point x="548" y="0" type="line" smooth="yes"/>
      <point x="559" y="0"/>
      <point x="567" y="22"/>
      <point x="567" y="43" type="curve" smooth="yes"/>
      <point x="567" y="59"/>
      <point x="562" y="75"/>
      <point x="548" y="76" type="curve"/>
      <point x="394" y="99"/>
      <point x="393" y="139"/>
      <point x="393" y="228" type="curve" smooth="yes"/>
      <point x="393" y="804" type="line"/>
      <point x="442" y="841"/>
      <point x="541" y="914"/>
      <point x="666" y="914" type="curve" smooth="yes"/>
      <point x="770" y="914"/>
      <point x="830" y="836"/>
      <point x="830" y="709" type="curve" smooth="yes"/>
      <point x="830" y="228" type="line" smooth="yes"/>
      <point x="830" y="114"/>
      <point x="756" y="92"/>
      <point x="691" y="78" type="curve" smooth="yes"/>
      <point x="672" y="74"/>
      <point x="660" y="69"/>
      <point x="660" y="29" type="curve" smooth="yes"/>
      <point x="660" y="17"/>
      <point x="665" y="0"/>
      <point x="675" y="0" type="curve" smooth="yes"/>
      <point x="1159" y="0" type="line" smooth="yes"/>
      <point x="1170" y="0"/>
      <point x="1178" y="22"/>
      <point x="1178" y="43" type="curve" smooth="yes"/>
      <point x="1178" y="59"/>
      <point x="1173" y="75"/>
      <point x="1159" y="76" type="curve"/>
      <point x="1005" y="99"/>
      <point x="1004" y="139"/>
      <point x="1004" y="228" type="curve" smooth="yes"/>
      <point x="1004" y="719" type="line" smooth="yes"/>
      <point x="1004" y="930"/>
      <point x="909" y="1059"/>
      <point x="732" y="1059" type="curve" smooth="yes"/>
      <point x="543" y="1059"/>
      <point x="393" y="879"/>
      <point x="393" y="879" type="curve" smooth="yes"/>
      <point x="393" y="1026" type="line" smooth="yes"/>
      <point x="393" y="1044"/>
      <point x="393" y="1059"/>
      <point x="379" y="1059" type="curve" smooth="yes"/>
      <point x="373" y="1059"/>
      <point x="366" y="1057"/>
      <point x="358" y="1053" type="curve" smooth="yes"/>
      <point x="343" y="1047"/>
      <point x="116" y="959"/>
      <point x="64" y="940" type="curve" smooth="yes"/>
      <point x="51" y="935"/>
      <point x="46" y="927"/>
      <point x="46" y="919" type="curve" smooth="yes"/>
      <point x="46" y="912"/>
      <point x="50" y="905"/>
      <point x="57" y="902" type="curve" smooth="yes"/>
      <point x="219" y="805" type="line"/>
      <point x="219" y="228" type="line" smooth="yes"/>
      <point x="219" y="114"/>
      <point x="145" y="92"/>
      <point x="80" y="78" type="curve" smooth="yes"/>
      <point x="61" y="74"/>
      <point x="49" y="69"/>
      <point x="49" y="29" type="curve" smooth="yes"/>
    </contour>
    <contour>
      <point x="597.0" y="1059.0" type="move" name="top"/>
    </contour>
    <contour>
      <point x="597.0" y="0.0" type="move" name="bottom"/>
    </contour>
  </outline>
</glyph>
<glyph name="o" format="1">
  <advance width="1145"/>
  <unicode hex="006F"/>
  <outline>
    <contour>
      <point x="880" y="-18"/>
      <point x="1059" y="223"/>
      <point x="1059" y="519" type="curve" smooth="yes"/>
      <point x="1059" y="822"/>
      <point x="856" y="1059"/>
      <point x="580" y="1059" type="curve" smooth="yes"/>
      <point x="277" y="1059"/>
      <point x="86" y="837"/>
      <point x="86" y="552" type="curve" smooth="yes"/>
      <point x="86" y="237"/>
      <point x="268" y="-18"/>
      <point x="583" y="-18" type="curve" smooth="yes"/>
    </contour>
    <contour>
      <point x="849" y="280"/>
      <point x="793" y="80"/>
      <point x="581" y="80" type="curve" smooth="yes"/>
      <point x="379" y="80"/>
      <point x="298" y="314"/>
      <point x="298" y="538" type="curve" smooth="yes"/>
      <point x="298" y="758"/>
      <point x="365" y="969"/>
      <point x="572" y="969" type="curve" smooth="yes"/>
      <point x="741" y="969"/>
      <point x="849" y="790"/>
      <point x="849" y="494" type="curve" smooth="yes"/>
    </contour>
    <contour>
      <point x="570" y="1059" type="move" name="top"/>
    </contour>
  </outline>
</glyph>
<glyph name="p" format="1">
  <advance width="1174"/>
  <unicode hex="0070"/>
  <outline>
    <contour>
      <point x="922" y="287"/>
      <point x="839" y="76"/>
      <point x="634" y="76" type="curve" smooth="yes"/>
      <point x="469" y="76"/>
      <point x="368" y="164"/>
      <point x="368" y="430" type="curve" smooth="yes"/>
      <point x="368" y="786" type="line"/>
      <point x="368" y="828"/>
      <point x="508" y="897"/>
      <point x="603" y="897" type="curve" smooth="yes"/>
      <point x="915" y="897"/>
      <point x="922" y="536"/>
      <point x="922" y="470" type="curve" smooth="yes"/>
    </contour>
    <contour>
      <point x="534" y="-386"/>
      <point x="542" y="-364"/>
      <point x="542" y="-343" type="curve" smooth="yes"/>
      <point x="542" y="-327"/>
      <point x="537" y="-311"/>
      <point x="523" y="-310" type="curve"/>
      <point x="369" y="-287"/>
      <point x="368" y="-247"/>
      <point x="368" y="-158" type="curve" smooth="yes"/>
      <point x="368" y="81" type="line"/>
      <point x="401" y="40"/>
      <point x="492" y="-15"/>
      <point x="625" y="-15" type="curve" smooth="yes"/>
      <point x="836" y="-15"/>
      <point x="1085" y="145"/>
      <point x="1085" y="528" type="curve"/>
      <point x="1085" y="824"/>
      <point x="949" y="1060"/>
      <point x="687" y="1060" type="curve" smooth="yes"/>
      <point x="590" y="1060"/>
      <point x="428" y="992"/>
      <point x="368" y="881" type="curve"/>
      <point x="368" y="880"/>
      <point x="368.0" y="999.75"/>
      <point x="368" y="1026" type="curve" smooth="yes"/>
      <point x="368" y="1044"/>
      <point x="368" y="1059"/>
      <point x="354" y="1059" type="curve" smooth="yes"/>
      <point x="348" y="1059"/>
      <point x="341" y="1057"/>
      <point x="333" y="1053" type="curve" smooth="yes"/>
      <point x="318" y="1047"/>
      <point x="91" y="959"/>
      <point x="39" y="940" type="curve" smooth="yes"/>
      <point x="26" y="935"/>
      <point x="21" y="927"/>
      <point x="21" y="919" type="curve" smooth="yes"/>
      <point x="21" y="912"/>
      <point x="25" y="905"/>
      <point x="32" y="902" type="curve" smooth="yes"/>
      <point x="194" y="805" type="line"/>
      <point x="194" y="-158" type="line" smooth="yes"/>
      <point x="194" y="-272"/>
      <point x="120" y="-294"/>
      <point x="55" y="-308" type="curve" smooth="yes"/>
      <point x="36" y="-312"/>
      <point x="24" y="-317"/>
      <point x="24" y="-357" type="curve" smooth="yes"/>
      <point x="24" y="-369"/>
      <point x="29" y="-386"/>
      <point x="39" y="-386" type="curve"/>
      <point x="120" y="-386"/>
      <point x="195" y="-376"/>
      <point x="312" y="-376" type="curve" smooth="yes"/>
      <point x="370" y="-376"/>
      <point x="439" y="-379"/>
      <point x="523" y="-386" type="curve"/>
    </contour>
    <contour>
      <point x="572" y="0" type="move" name="bottom"/>
    </contour>
    <contour>
      <point x="572" y="1059" type="move" name="top"/>
    </contour>
  </outline>
</glyph>
<glyph name="q" format="1">
  <advance width="813"/>
  <unicode hex="0071"/>
  <outline>
    <contour>
      <point x="80" y="709" type="curve" smooth="yes"/>
      <point x="94" y="492" type="line" smooth="yes"/>
      <point x="94" y="476"/>
      <point x="125" y="455"/>
      <point x="135" y="449" type="curve" smooth="yes"/>
      <point x="211" y="412"/>
      <point x="291" y="371"/>
      <point x="377" y="371" type="curve" smooth="yes"/>
      <point x="471" y="371"/>
      <point x="585" y="401"/>
      <point x="655" y="469" type="curve" smooth="yes"/>
      <point x="680" y="496"/>
      <point x="703" y="536"/>
      <point x="719" y="567" type="curve"/>
      <point x="717" y="569"/>
      <point x="717" y="573"/>
      <point x="719" y="575" type="curve"/>
      <point x="719" y="581"/>
      <point x="731" y="625"/>
      <point x="731" y="631" type="curve"/>
      <point x="733" y="633"/>
      <point x="733" y="668"/>
      <point x="733" y="680" type="curve" smooth="yes"/>
      <point x="733" y="776"/>
      <point x="684" y="875"/>
      <point x="598" y="926" type="curve" smooth="yes"/>
      <point x="340" y="1079" type="line"/>
      <point x="332" y="1089"/>
      <point x="309" y="1104"/>
      <point x="305" y="1108" type="curve" smooth="yes"/>
      <point x="274" y="1135"/>
      <point x="240" y="1176"/>
      <point x="240" y="1217" type="curve" smooth="yes"/>
      <point x="240" y="1315"/>
      <point x="312" y="1368"/>
      <point x="406" y="1368" type="curve" smooth="yes"/>
      <point x="484" y="1368"/>
      <point x="532" y="1304"/>
      <point x="571" y="1249" type="curve" smooth="yes"/>
      <point x="571" y="1247"/>
      <point x="578" y="1237"/>
      <point x="578" y="1235" type="curve" smooth="yes"/>
      <point x="582" y="1225"/>
      <point x="610" y="1147"/>
      <point x="612" y="1137" type="curve" smooth="yes"/>
      <point x="614" y="1133"/>
      <point x="619" y="1122"/>
      <point x="621" y="1122" type="curve" smooth="yes"/>
      <point x="623" y="1120"/>
      <point x="643" y="1116"/>
      <point x="647" y="1116" type="curve" smooth="yes"/>
      <point x="674" y="1116"/>
      <point x="682" y="1134"/>
      <point x="684" y="1157" type="curve" smooth="yes"/>
      <point x="684" y="1169"/>
      <point x="682" y="1272"/>
      <point x="684" y="1284" type="curve" smooth="yes"/>
      <point x="684" y="1288"/>
      <point x="690" y="1333"/>
      <point x="690" y="1339" type="curve" smooth="yes"/>
      <point x="690" y="1370"/>
      <point x="606" y="1401"/>
      <point x="586" y="1409" type="curve" smooth="yes"/>
      <point x="578" y="1413"/>
      <point x="549" y="1423"/>
      <point x="543" y="1423" type="curve" smooth="yes"/>
      <point x="528" y="1423" type="line" smooth="yes"/>
      <point x="524" y="1425"/>
      <point x="491" y="1438"/>
      <point x="487" y="1438" type="curve" smooth="yes"/>
      <point x="448" y="1444"/>
      <point x="412" y="1446"/>
      <point x="373" y="1446" type="curve" smooth="yes"/>
      <point x="299" y="1446"/>
      <point x="235" y="1425"/>
      <point x="178" y="1374" type="curve" smooth="yes"/>
      <point x="166" y="1364"/>
      <point x="133" y="1331"/>
      <point x="129" y="1325" type="curve" smooth="yes"/>
      <point x="100" y="1284"/>
      <point x="80" y="1227"/>
      <point x="80" y="1176" type="curve" smooth="yes"/>
      <point x="80" y="1129"/>
      <point x="104" y="1051"/>
      <point x="135" y="1018" type="curve" smooth="yes"/>
      <point x="162" y="989"/>
      <point x="196" y="949"/>
      <point x="233" y="926" type="curve"/>
      <point x="258" y="914"/>
      <point x="364" y="854"/>
      <point x="389" y="842" type="curve" smooth="yes"/>
      <point x="389" y="840"/>
      <point x="393" y="836"/>
      <point x="395" y="836" type="curve" smooth="yes"/>
      <point x="401" y="830"/>
      <point x="441" y="805"/>
      <point x="453" y="799" type="curve" smooth="yes"/>
      <point x="455" y="799"/>
      <point x="463" y="795"/>
      <point x="465" y="793" type="curve" smooth="yes"/>
      <point x="479" y="781"/>
      <point x="543" y="721"/>
      <point x="557" y="709" type="curve" smooth="yes"/>
      <point x="584" y="682"/>
      <point x="586" y="643"/>
      <point x="586" y="608" type="curve" smooth="yes"/>
      <point x="586" y="553"/>
      <point x="534" y="471"/>
      <point x="479" y="457" type="curve" smooth="yes"/>
      <point x="477" y="455"/>
      <point x="461" y="457"/>
      <point x="459" y="457" type="curve" smooth="yes"/>
      <point x="455" y="455"/>
      <point x="428" y="449"/>
      <point x="424" y="449" type="curve" smooth="yes"/>
      <point x="393" y="449" type="line" smooth="yes"/>
      <point x="367" y="449" type="line" smooth="yes"/>
      <point x="357" y="453"/>
      <point x="311" y="471"/>
      <point x="305" y="477" type="curve" smooth="yes"/>
      <point x="293" y="485"/>
      <point x="239" y="541"/>
      <point x="227" y="555" type="curve" smooth="yes"/>
      <point x="219" y="563"/>
      <point x="197" y="606"/>
      <point x="193" y="616" type="curve" smooth="yes"/>
      <point x="187" y="634"/>
      <point x="166" y="719"/>
      <point x="164" y="737" type="curve"/>
      <point x="160" y="747"/>
      <point x="133" y="750"/>
      <point x="129" y="750" type="curve" smooth="yes"/>
      <point x="102" y="750"/>
      <point x="78" y="738"/>
    </contour>
  </outline>
</glyph>
<glyph name="r" format="1">
  <advance width="919"/>
  <unicode hex="0072"/>
  <outline>
    <contour>
      <point x="358" y="695"/>
      <point x="333" y="775"/>
      <point x="395" y="847" type="curve"/>
      <point x="453" y="930"/>
      <point x="579" y="1066"/>
      <point x="688" y="1060" type="curve" smooth="yes"/>
      <point x="749" y="1056"/>
      <point x="804" y="1004"/>
      <point x="827" y="947" type="curve"/>
      <point x="827" y="902" type="line" smooth="yes"/>
      <point x="827" y="819"/>
      <point x="742" y="717"/>
      <point x="694" y="786" type="curve" smooth="yes"/>
      <point x="657" y="843"/>
      <point x="638" y="878"/>
      <point x="604" y="878" type="curve" smooth="yes"/>
      <point x="531" y="878"/>
      <point x="419" y="720"/>
      <point x="393" y="677" type="curve"/>
    </contour>
    <contour>
      <point x="397" y="231" type="line" smooth="yes"/>
      <point x="397" y="140"/>
      <point x="397" y="98"/>
      <point x="553" y="75" type="curve"/>
      <point x="566" y="70"/>
      <point x="567" y="53"/>
      <point x="567" y="40" type="curve" smooth="yes"/>
      <point x="567" y="37"/>
      <point x="567" y="34"/>
      <point x="567" y="31" type="curve" smooth="yes"/>
      <point x="567" y="30"/>
      <point x="568" y="27"/>
      <point x="568" y="22" type="curve" smooth="yes"/>
      <point x="568" y="13"/>
      <point x="565" y="0"/>
      <point x="545" y="0" type="curve" smooth="yes"/>
      <point x="68" y="0" type="line" smooth="yes"/>
      <point x="58" y="0"/>
      <point x="53" y="17"/>
      <point x="53" y="29" type="curve" smooth="yes"/>
      <point x="53" y="69"/>
      <point x="65" y="74"/>
      <point x="84" y="78" type="curve" smooth="yes"/>
      <point x="149" y="92"/>
      <point x="223" y="114.256"/>
      <point x="223" y="228" type="curve" smooth="yes"/>
      <point x="223" y="805" type="line"/>
      <point x="223" y="805"/>
      <point x="61" y="902"/>
      <point x="61" y="902" type="curve" smooth="yes"/>
      <point x="54" y="905"/>
      <point x="50" y="912"/>
      <point x="50" y="919" type="curve" smooth="yes"/>
      <point x="50" y="927"/>
      <point x="55" y="935"/>
      <point x="68" y="940" type="curve" smooth="yes"/>
      <point x="120" y="959"/>
      <point x="347" y="1047"/>
      <point x="362" y="1053" type="curve" smooth="yes"/>
      <point x="370" y="1057"/>
      <point x="377" y="1059"/>
      <point x="383" y="1059" type="curve" smooth="yes"/>
      <point x="397" y="1059"/>
      <point x="397" y="1044"/>
      <point x="397" y="1026" type="curve" smooth="yes"/>
      <point x="397" y="879" type="line"/>
    </contour>
    <contour>
      <point x="460" y="1059" type="move" name="top"/>
    </contour>
    <contour>
      <point x="460" y="0" type="move" name="bottom"/>
    </contour>
  </outline>
</glyph>
<glyph name="t" format="1">
  <advance width="645"/>
  <unicode hex="0074"/>
  <outline>
    <contour>
      <point x="412" y="-16" type="curve" smooth="yes"/>
      <point x="520.12" y="-16"/>
      <point x="616" y="34.0747"/>
      <point x="616" y="90" type="curve" smooth="yes"/>
      <point x="616" y="109"/>
      <point x="608" y="123"/>
      <point x="588" y="123" type="curve" smooth="yes"/>
      <point x="586" y="123" type="line"/>
      <point x="553" y="117"/>
      <point x="525" y="114"/>
      <point x="502" y="114" type="curve" smooth="yes"/>
      <point x="392" y="114"/>
      <point x="377" y="179"/>
      <point x="377" y="340" type="curve" smooth="yes"/>
      <point x="377" y="922" type="line"/>
      <point x="513" y="922" type="line" smooth="yes"/>
      <point x="561" y="922"/>
      <point x="586" y="937"/>
      <point x="586" y="976" type="curve" smooth="yes"/>
      <point x="586" y="1012"/>
      <point x="558" y="1026"/>
      <point x="518" y="1026" type="curve" smooth="yes"/>
      <point x="377" y="1026" type="line"/>
      <point x="377" y="1210" type="line" smooth="yes"/>
      <point x="377" y="1247"/>
      <point x="373" y="1285"/>
      <point x="349" y="1285" type="curve" smooth="yes"/>
      <point x="338" y="1285"/>
      <point x="321" y="1280"/>
      <point x="305" y="1260" type="curve" smooth="yes"/>
      <point x="174" y="1095" type="line" smooth="yes"/>
      <point x="115" y="1020"/>
      <point x="42" y="988"/>
      <point x="42" y="957" type="curve" smooth="yes"/>
      <point x="42" y="922"/>
      <point x="66" y="922"/>
      <point x="89" y="922" type="curve" smooth="yes"/>
      <point x="186" y="922" type="line"/>
      <point x="186" y="314" type="line" smooth="yes"/>
      <point x="186" y="117"/>
      <point x="197" y="-16"/>
    </contour>
    <contour>
      <point x="323" y="0" type="move" name="bottom"/>
    </contour>
    <contour>
      <point x="323" y="530" type="move" name="center"/>
    </contour>
  </outline>
</glyph>
<glyph name="u" format="1">
  <advance width="1234"/>
  <unicode hex="0075"/>
  <outline>
    <contour>
      <point x="1014" y="211" type="line"/>
      <point x="1014" y="203.994" type="line" smooth="yes"/>
      <point x="1014" y="156.49"/>
      <point x="1015.82" y="141"/>
      <point x="1096" y="141" type="curve" smooth="yes"/>
      <point x="1151" y="141" type="line" smooth="yes"/>
      <point x="1160.76" y="141"/>
      <point x="1174" y="121.354"/>
      <point x="1174" y="100" type="curve" smooth="yes"/>
      <point x="1174" y="76"/>
      <point x="1157" y="51"/>
      <point x="1104" y="42" type="curve"/>
      <point x="901" y="0" type="line" smooth="yes"/>
      <point x="875" y="-5"/>
      <point x="859" y="-6"/>
      <point x="850" y="-6" type="curve" smooth="yes"/>
      <point x="829" y="-6"/>
      <point x="841" y="2"/>
      <point x="831" y="2" type="curve"/>
      <point x="831" y="147" type="line"/>
      <point x="777" y="85"/>
      <point x="656" y="-6"/>
      <point x="512" y="-6" type="curve" smooth="yes"/>
      <point x="274" y="-6"/>
      <point x="221" y="168"/>
      <point x="221" y="414" type="curve" smooth="yes"/>
      <point x="221" y="813" type="line" smooth="yes"/>
      <point x="221" y="916"/>
      <point x="154" y="944"/>
      <point x="74" y="944" type="curve" smooth="yes"/>
      <point x="61" y="944"/>
      <point x="48" y="973"/>
      <point x="48" y="998" type="curve" smooth="yes"/>
      <point x="48" y="1016"/>
      <point x="55" y="1032"/>
      <point x="75" y="1032" type="curve" smooth="yes"/>
      <point x="90" y="1032" type="line" smooth="yes"/>
      <point x="221" y="1044"/>
      <point x="367" y="1063"/>
      <point x="382" y="1063" type="curve" smooth="yes"/>
      <point x="397" y="1063"/>
      <point x="409" y="1053"/>
      <point x="410" y="1036" type="curve"/>
      <point x="410" y="338" type="line" smooth="yes"/>
      <point x="410" y="236"/>
      <point x="477" y="141"/>
      <point x="588" y="141" type="curve" smooth="yes"/>
      <point x="645" y="141"/>
      <point x="779" y="152"/>
      <point x="838" y="254" type="curve"/>
      <point x="838" y="813" type="line" smooth="yes"/>
      <point x="838" y="915"/>
      <point x="770" y="944"/>
      <point x="690" y="944" type="curve" smooth="yes"/>
      <point x="677" y="944"/>
      <point x="665" y="973"/>
      <point x="665" y="998" type="curve" smooth="yes"/>
      <point x="665" y="1016"/>
      <point x="672" y="1032"/>
      <point x="692" y="1032" type="curve" smooth="yes"/>
      <point x="706" y="1032" type="line"/>
      <point x="832" y="1044"/>
      <point x="971" y="1063"/>
      <point x="986" y="1063" type="curve" smooth="yes"/>
      <point x="1001" y="1063"/>
      <point x="1013" y="1053"/>
      <point x="1014" y="1036" type="curve"/>
    </contour>
    <contour>
      <point x="617" y="1059" type="move" name="top"/>
    </contour>
    <contour>
      <point x="1111" y="10" type="move" name="ogonek"/>
    </contour>
  </outline>
</glyph>
<glyph name="y" format="1">
  <advance width="1126"/>
  <unicode hex="0079"/>
  <outline>
    <contour>
      <point x="193" y="-344" type="curve"/>
      <point x="203" y="-348"/>
      <point x="258" y="-363"/>
      <point x="268" y="-365" type="curve"/>
      <point x="297" y="-365" type="line" smooth="yes"/>
      <point x="379" y="-365"/>
      <point x="445" y="-311"/>
      <point x="500" y="-260" type="curve"/>
      <point x="539" y="-201"/>
      <point x="586" y="-129"/>
      <point x="598" y="-55" type="curve"/>
      <point x="942" y="850" type="line"/>
      <point x="953" y="873"/>
      <point x="992" y="947"/>
      <point x="1020" y="961" type="curve"/>
      <point x="1028" y="969"/>
      <point x="1083" y="972"/>
      <point x="1083" y="983" type="curve" smooth="yes"/>
      <point x="1083" y="1044" type="line" smooth="yes"/>
      <point x="1083" y="1050"/>
      <point x="1061" y="1059"/>
      <point x="1061" y="1059" type="curve"/>
      <point x="725" y="1059" type="line"/>
      <point x="725" y="1059"/>
      <point x="719" y="1055"/>
      <point x="719" y="1053" type="curve" smooth="yes"/>
      <point x="715" y="1047"/>
      <point x="705" y="1026"/>
      <point x="705" y="1024" type="curve" smooth="yes"/>
      <point x="705" y="1020"/>
      <point x="709" y="991"/>
      <point x="711" y="983" type="curve" smooth="yes"/>
      <point x="717" y="965"/>
      <point x="785" y="954"/>
      <point x="803" y="940" type="curve"/>
      <point x="838" y="905" type="line" smooth="yes"/>
      <point x="844" y="897"/>
      <point x="844" y="893"/>
      <point x="844" y="885" type="curve" smooth="yes"/>
      <point x="844" y="877" type="line"/>
      <point x="828" y="783"/>
      <point x="797" y="713"/>
      <point x="768" y="625" type="curve" smooth="yes"/>
      <point x="766" y="621"/>
      <point x="756" y="579"/>
      <point x="754" y="575" type="curve" smooth="yes"/>
      <point x="752" y="569"/>
      <point x="727" y="518"/>
      <point x="725" y="512" type="curve" smooth="yes"/>
      <point x="705" y="461"/>
      <point x="697" y="414"/>
      <point x="670" y="365" type="curve" smooth="yes"/>
      <point x="666" y="361"/>
      <point x="651" y="346"/>
      <point x="647" y="344" type="curve"/>
      <point x="645" y="350"/>
      <point x="635" y="367"/>
      <point x="627" y="373" type="curve"/>
      <point x="613" y="436"/>
      <point x="580" y="488"/>
      <point x="557" y="547" type="curve" smooth="yes"/>
      <point x="547" y="574"/>
      <point x="469" y="782"/>
      <point x="459" y="807" type="curve" smooth="yes"/>
      <point x="447" y="840"/>
      <point x="424" y="870"/>
      <point x="424" y="909" type="curve" smooth="yes"/>
      <point x="424" y="956"/>
      <point x="481" y="961"/>
      <point x="514" y="969" type="curve" smooth="yes"/>
      <point x="518" y="969"/>
      <point x="539" y="973"/>
      <point x="543" y="983" type="curve" smooth="yes"/>
      <point x="549" y="999"/>
      <point x="551" y="1016"/>
      <point x="551" y="1032" type="curve" smooth="yes"/>
      <point x="551" y="1036"/>
      <point x="549" y="1044"/>
      <point x="549" y="1044" type="curve" smooth="yes"/>
      <point x="549" y="1050"/>
      <point x="539" y="1059"/>
      <point x="537" y="1059" type="curve" smooth="yes"/>
      <point x="100" y="1059" type="line" smooth="yes"/>
      <point x="84" y="1059"/>
      <point x="80" y="1018"/>
      <point x="80" y="1006" type="curve" smooth="yes"/>
      <point x="80" y="943"/>
      <point x="127" y="979"/>
      <point x="164" y="954" type="curve" smooth="yes"/>
      <point x="180" y="942"/>
      <point x="199" y="915"/>
      <point x="207" y="899" type="curve" smooth="yes"/>
      <point x="326" y="625" type="line"/>
      <point x="330" y="621"/>
      <point x="344" y="596"/>
      <point x="346" y="590" type="curve" smooth="yes"/>
      <point x="385" y="510"/>
      <point x="416" y="422"/>
      <point x="459" y="344" type="curve" smooth="yes"/>
      <point x="459" y="342"/>
      <point x="471" y="326"/>
      <point x="473" y="324" type="curve" smooth="yes"/>
      <point x="506" y="250"/>
      <point x="526" y="174"/>
      <point x="557" y="98" type="curve"/>
      <point x="557" y="70" type="line" smooth="yes"/>
      <point x="557" y="66"/>
      <point x="514" y="-50"/>
      <point x="494" y="-70" type="curve"/>
      <point x="486" y="-86"/>
      <point x="489" y="-90"/>
      <point x="479" y="-104" type="curve" smooth="yes"/>
      <point x="473" y="-112"/>
      <point x="430" y="-172"/>
      <point x="416" y="-188" type="curve" smooth="yes"/>
      <point x="416" y="-190"/>
      <point x="410" y="-195"/>
      <point x="410" y="-197" type="curve"/>
      <point x="385" y="-197" type="line" smooth="yes"/>
      <point x="354" y="-197"/>
      <point x="353" y="-190"/>
      <point x="326" y="-174" type="curve" smooth="yes"/>
      <point x="318" y="-170"/>
      <point x="256" y="-137"/>
      <point x="248" y="-133" type="curve"/>
      <point x="240" y="-125"/>
      <point x="218" y="-104"/>
      <point x="207" y="-104" type="curve" smooth="yes"/>
      <point x="205" y="-104"/>
      <point x="174" y="-121"/>
      <point x="164" y="-125" type="curve"/>
      <point x="139" y="-141"/>
      <point x="121" y="-196"/>
      <point x="121" y="-225" type="curve" smooth="yes"/>
      <point x="121" y="-229"/>
      <point x="121" y="-244"/>
      <point x="123" y="-246" type="curve" smooth="yes"/>
      <point x="123" y="-248"/>
      <point x="133" y="-277"/>
      <point x="135" y="-287" type="curve" smooth="yes"/>
      <point x="145" y="-314"/>
      <point x="175" y="-324"/>
    </contour>
    <contour>
      <point x="563" y="1059" type="move" name="top"/>
    </contour>
  </outline>
</glyph>
<glyph name="_116" format="1">
  <advance width="1331"/>
  <outline>
    <contour>
      <point x="590" y="315" type="line"/>
      <point x="598" y="313"/>
      <point x="641" y="307"/>
      <point x="649" y="307" type="curve" smooth="yes"/>
      <point x="653" y="307"/>
      <point x="664" y="313"/>
      <point x="666" y="315" type="curve"/>
      <point x="1153" y="315" type="line" smooth="yes"/>
      <point x="1167" y="315"/>
      <point x="1174" y="346"/>
      <point x="1176" y="352" type="curve" smooth="yes"/>
      <point x="1190" y="411"/>
      <point x="1198" y="467"/>
      <point x="1212" y="526" type="curve" smooth="yes"/>
      <point x="1222" y="565"/>
      <point x="1237" y="598"/>
      <point x="1237" y="639" type="curve" smooth="yes"/>
      <point x="1237" y="651"/>
      <point x="1226" y="662"/>
      <point x="1214" y="662" type="curve" smooth="yes"/>
      <point x="1183" y="662"/>
      <point x="1165" y="658"/>
      <point x="1145" y="631" type="curve" smooth="yes"/>
      <point x="1141" y="625"/>
      <point x="1106" y="569"/>
      <point x="1100" y="563" type="curve" smooth="yes"/>
      <point x="1088" y="549"/>
      <point x="1026" y="485"/>
      <point x="1010" y="473" type="curve" smooth="yes"/>
      <point x="1008" y="473"/>
      <point x="997" y="467"/>
      <point x="995" y="467" type="curve" smooth="yes"/>
      <point x="993" y="465"/>
      <point x="975" y="453"/>
      <point x="973" y="451" type="curve" smooth="yes"/>
      <point x="891" y="414"/>
      <point x="844" y="406"/>
      <point x="756" y="406" type="curve" smooth="yes"/>
      <point x="672" y="406" type="line"/>
      <point x="643" y="422"/>
      <point x="613" y="408"/>
      <point x="582" y="422" type="curve" smooth="yes"/>
      <point x="512" y="453"/>
      <point x="516" y="519"/>
      <point x="500" y="580" type="curve"/>
      <point x="500" y="946" type="line" smooth="yes"/>
      <point x="500" y="952"/>
      <point x="504" y="985"/>
      <point x="508" y="991" type="curve" smooth="yes"/>
      <point x="508" y="993"/>
      <point x="512" y="999"/>
      <point x="514" y="999" type="curve" smooth="yes"/>
      <point x="553" y="999" type="line" smooth="yes"/>
      <point x="590" y="999" type="line" smooth="yes"/>
      <point x="594" y="999"/>
      <point x="631" y="991"/>
      <point x="635" y="991" type="curve" smooth="yes"/>
      <point x="639" y="991"/>
      <point x="662" y="997"/>
      <point x="666" y="999" type="curve"/>
      <point x="823" y="991" type="line" smooth="yes"/>
      <point x="829" y="991"/>
      <point x="860" y="981"/>
      <point x="868" y="977" type="curve" smooth="yes"/>
      <point x="927" y="944"/>
      <point x="926" y="797"/>
      <point x="975" y="797" type="curve" smooth="yes"/>
      <point x="987" y="797" type="line"/>
      <point x="1001" y="799"/>
      <point x="1032" y="803"/>
      <point x="1032" y="805" type="curve" smooth="yes"/>
      <point x="1040" y="819" type="line"/>
      <point x="1040" y="1255" type="line" smooth="yes"/>
      <point x="1040" y="1257"/>
      <point x="1030" y="1270"/>
      <point x="1026" y="1270" type="curve" smooth="yes"/>
      <point x="1026" y="1270"/>
      <point x="1012" y="1272"/>
      <point x="1008" y="1272" type="curve" smooth="yes"/>
      <point x="996" y="1272"/>
      <point x="971" y="1269"/>
      <point x="965" y="1255" type="curve" smooth="yes"/>
      <point x="963" y="1249"/>
      <point x="946" y="1194"/>
      <point x="942" y="1188" type="curve" smooth="yes"/>
      <point x="936" y="1172"/>
      <point x="923" y="1149"/>
      <point x="913" y="1135" type="curve" smooth="yes"/>
      <point x="901" y="1121"/>
      <point x="870" y="1110"/>
      <point x="860" y="1104" type="curve"/>
      <point x="837" y="1096"/>
      <point x="824" y="1090"/>
      <point x="801" y="1090" type="curve" smooth="yes"/>
      <point x="774" y="1090"/>
      <point x="654" y="1083"/>
      <point x="627" y="1081" type="curve"/>
      <point x="623" y="1083"/>
      <point x="602" y="1090"/>
      <point x="598" y="1090" type="curve" smooth="yes"/>
      <point x="582" y="1090"/>
      <point x="514" y="1087"/>
      <point x="500" y="1087" type="curve"/>
      <point x="500" y="1126" type="line" smooth="yes"/>
      <point x="500" y="1153"/>
      <point x="514" y="1364"/>
      <point x="514" y="1391" type="curve" smooth="yes"/>
      <point x="516" y="1424"/>
      <point x="512" y="1577"/>
      <point x="512" y="1610" type="curve"/>
      <point x="567" y="1610"/>
      <point x="623" y="1616"/>
      <point x="680" y="1616" type="curve" smooth="yes"/>
      <point x="733" y="1616" type="line" smooth="yes"/>
      <point x="743" y="1616"/>
      <point x="828" y="1610"/>
      <point x="838" y="1608" type="curve" smooth="yes"/>
      <point x="971" y="1600"/>
      <point x="1012" y="1524"/>
      <point x="1063" y="1413" type="curve"/>
      <point x="1077" y="1405"/>
      <point x="1094" y="1397"/>
      <point x="1108" y="1397" type="curve" smooth="yes"/>
      <point x="1118" y="1397"/>
      <point x="1145" y="1401"/>
      <point x="1145" y="1413" type="curve" smooth="yes"/>
      <point x="1145" y="1669" type="line" smooth="yes"/>
      <point x="1145" y="1675"/>
      <point x="1136" y="1688"/>
      <point x="1130" y="1692" type="curve"/>
      <point x="800" y="1708"/>
      <point x="469" y="1694"/>
      <point x="139" y="1706" type="curve"/>
      <point x="119" y="1702"/>
      <point x="100" y="1692"/>
      <point x="100" y="1669" type="curve" smooth="yes"/>
      <point x="100" y="1661"/>
      <point x="107" y="1630"/>
      <point x="109" y="1624" type="curve"/>
      <point x="125" y="1610"/>
      <point x="150" y="1614"/>
      <point x="168" y="1608" type="curve" smooth="yes"/>
      <point x="213" y="1598"/>
      <point x="256" y="1577"/>
      <point x="274" y="1534" type="curve" smooth="yes"/>
      <point x="278" y="1522"/>
      <point x="289" y="1485"/>
      <point x="289" y="1481" type="curve" smooth="yes"/>
      <point x="289" y="856" type="line"/>
      <point x="275" y="739"/>
      <point x="288" y="621"/>
      <point x="274" y="504" type="curve" smooth="yes"/>
      <point x="266" y="447"/>
      <point x="205" y="412"/>
      <point x="154" y="406" type="curve" smooth="yes"/>
      <point x="152" y="406"/>
      <point x="127" y="408"/>
      <point x="123" y="406" type="curve" smooth="yes"/>
      <point x="117" y="404"/>
      <point x="96" y="393"/>
      <point x="94" y="391" type="curve" smooth="yes"/>
      <point x="90" y="387"/>
      <point x="86" y="360"/>
      <point x="86" y="352" type="curve" smooth="yes"/>
      <point x="86" y="348"/>
      <point x="98" y="328"/>
      <point x="100" y="324" type="curve"/>
      <point x="129" y="322"/>
      <point x="254" y="315"/>
      <point x="281" y="315" type="curve" smooth="yes"/>
    </contour>
    <contour>
      <point x="1229" y="711" type="curve" smooth="yes"/>
      <point x="1225" y="711"/>
      <point x="1225" y="702"/>
      <point x="1229" y="702" type="curve" smooth="yes"/>
      <point x="1233" y="702"/>
      <point x="1233" y="711"/>
    </contour>
    <contour>
      <point x="221" y="1575" type="curve" smooth="yes"/>
      <point x="217" y="1575"/>
      <point x="217" y="1567"/>
      <point x="221" y="1567" type="curve" smooth="yes"/>
      <point x="225" y="1567"/>
      <point x="225" y="1575"/>
    </contour>
  </outline>
</glyph>
<glyph name="_118" format="1">
  <advance width="1431"/>
  <outline>
    <contour>
      <point x="694" y="41" type="curve" smooth="yes"/>
      <point x="690" y="41"/>
      <point x="690" y="35"/>
      <point x="694" y="35" type="curve" smooth="yes"/>
      <point x="698" y="35"/>
      <point x="698" y="41"/>
    </contour>
    <contour>
      <point x="213" y="518" type="curve"/>
      <point x="221" y="510"/>
      <point x="258" y="473"/>
      <point x="266" y="467" type="curve" smooth="yes"/>
      <point x="289" y="444"/>
      <point x="319" y="413"/>
      <point x="348" y="397" type="curve" smooth="yes"/>
      <point x="387" y="377"/>
      <point x="498" y="319"/>
      <point x="506" y="315" type="curve" smooth="yes"/>
      <point x="518" y="311"/>
      <point x="570" y="295"/>
      <point x="582" y="293" type="curve"/>
      <point x="596" y="293"/>
      <point x="666" y="291"/>
      <point x="680" y="291" type="curve" smooth="yes"/>
      <point x="705" y="291"/>
      <point x="772" y="293"/>
      <point x="776" y="293" type="curve" smooth="yes"/>
      <point x="801" y="295"/>
      <point x="911" y="322"/>
      <point x="934" y="330" type="curve" smooth="yes"/>
      <point x="938" y="332"/>
      <point x="948" y="338"/>
      <point x="950" y="338" type="curve" smooth="yes"/>
      <point x="952" y="340"/>
      <point x="971" y="344"/>
      <point x="973" y="346" type="curve" smooth="yes"/>
      <point x="991" y="356"/>
      <point x="1076" y="404"/>
      <point x="1094" y="414" type="curve"/>
      <point x="1094" y="414"/>
      <point x="1100" y="420"/>
      <point x="1100" y="422" type="curve" smooth="yes"/>
      <point x="1106" y="426"/>
      <point x="1155" y="461"/>
      <point x="1161" y="467" type="curve" smooth="yes"/>
      <point x="1165" y="469"/>
      <point x="1194" y="506"/>
      <point x="1198" y="512" type="curve" smooth="yes"/>
      <point x="1288" y="614"/>
      <point x="1344" y="744"/>
      <point x="1364" y="879" type="curve"/>
      <point x="1364" y="989" type="line" smooth="yes"/>
      <point x="1364" y="1098" type="line" smooth="yes"/>
      <point x="1362" y="1116"/>
      <point x="1345" y="1201"/>
      <point x="1341" y="1217" type="curve"/>
      <point x="1329" y="1235"/>
      <point x="1325" y="1260"/>
      <point x="1319" y="1278" type="curve" smooth="yes"/>
      <point x="1307" y="1307"/>
      <point x="1263" y="1403"/>
      <point x="1257" y="1413" type="curve" smooth="yes"/>
      <point x="1255" y="1417"/>
      <point x="1231" y="1454"/>
      <point x="1221" y="1466" type="curve" smooth="yes"/>
      <point x="1219" y="1466"/>
      <point x="1206" y="1479"/>
      <point x="1206" y="1481" type="curve" smooth="yes"/>
      <point x="1118" y="1583"/>
      <point x="1010" y="1655"/>
      <point x="883" y="1698" type="curve" smooth="yes"/>
      <point x="842" y="1712"/>
      <point x="750" y="1714"/>
      <point x="711" y="1714" type="curve" smooth="yes"/>
      <point x="523" y="1714"/>
      <point x="359" y="1618"/>
      <point x="236" y="1481" type="curve" smooth="yes"/>
      <point x="232" y="1475"/>
      <point x="203" y="1425"/>
      <point x="199" y="1421" type="curve" smooth="yes"/>
      <point x="197" y="1419"/>
      <point x="184" y="1407"/>
      <point x="182" y="1405" type="curve" smooth="yes"/>
      <point x="180" y="1401"/>
      <point x="170" y="1386"/>
      <point x="168" y="1382" type="curve" smooth="yes"/>
      <point x="100" y="1247"/>
      <point x="55" y="1113"/>
      <point x="55" y="961" type="curve" smooth="yes"/>
      <point x="55" y="946" type="line" smooth="yes"/>
      <point x="55" y="944"/>
      <point x="63" y="913"/>
      <point x="63" y="909" type="curve" smooth="yes"/>
      <point x="63" y="872" type="line" smooth="yes"/>
      <point x="65" y="860"/>
      <point x="76" y="807"/>
      <point x="78" y="797" type="curve" smooth="yes"/>
      <point x="86" y="772"/>
      <point x="111" y="692"/>
      <point x="115" y="684" type="curve" smooth="yes"/>
      <point x="129" y="657"/>
      <point x="197" y="543"/>
    </contour>
    <contour>
      <point x="279" y="1040" type="curve" smooth="yes"/>
      <point x="279" y="1302"/>
      <point x="375" y="1632"/>
      <point x="686" y="1632" type="curve" smooth="yes"/>
      <point x="729" y="1632"/>
      <point x="766" y="1632"/>
      <point x="807" y="1616" type="curve" smooth="yes"/>
      <point x="813" y="1614"/>
      <point x="862" y="1581"/>
      <point x="866" y="1579" type="curve" smooth="yes"/>
      <point x="981" y="1509"/>
      <point x="1065" y="1399"/>
      <point x="1100" y="1270" type="curve" smooth="yes"/>
      <point x="1110" y="1233"/>
      <point x="1141" y="1059"/>
      <point x="1145" y="1022" type="curve" smooth="yes"/>
      <point x="1147" y="1018"/>
      <point x="1147" y="962"/>
      <point x="1147" y="944" type="curve" smooth="yes"/>
      <point x="1147" y="932"/>
      <point x="1147" y="876"/>
      <point x="1145" y="864" type="curve" smooth="yes"/>
      <point x="1143" y="860"/>
      <point x="1139" y="840"/>
      <point x="1139" y="834" type="curve" smooth="yes"/>
      <point x="1125" y="756"/>
      <point x="1114" y="674"/>
      <point x="1077" y="602" type="curve" smooth="yes"/>
      <point x="999" y="444"/>
      <point x="885" y="375"/>
      <point x="709" y="375" type="curve" smooth="yes"/>
      <point x="566" y="375"/>
      <point x="477" y="456"/>
      <point x="401" y="571" type="curve" smooth="yes"/>
      <point x="307" y="710"/>
      <point x="279" y="874"/>
    </contour>
  </outline>
</glyph>
<glyph name="_119" format="1">
  <advance width="1259"/>
  <outline>
    <contour>
      <point x="100" y="307" type="curve"/>
      <point x="131" y="309"/>
      <point x="266" y="309"/>
      <point x="297" y="307" type="curve" smooth="yes"/>
      <point x="328" y="307"/>
      <point x="573" y="301"/>
      <point x="604" y="301" type="curve" smooth="yes"/>
      <point x="618" y="301"/>
      <point x="682" y="305"/>
      <point x="694" y="307" type="curve"/>
      <point x="694" y="375" type="line" smooth="yes"/>
      <point x="694" y="377"/>
      <point x="690" y="381"/>
      <point x="688" y="383" type="curve" smooth="yes"/>
      <point x="665" y="397"/>
      <point x="652" y="391"/>
      <point x="621" y="397" type="curve" smooth="yes"/>
      <point x="521" y="420"/>
      <point x="502" y="486"/>
      <point x="500" y="580" type="curve" smooth="yes"/>
      <point x="500" y="586"/>
      <point x="494" y="854"/>
      <point x="492" y="963" type="curve"/>
      <point x="492" y="971" type="line" smooth="yes"/>
      <point x="492" y="983"/>
      <point x="492" y="983"/>
      <point x="500" y="999" type="curve"/>
      <point x="594" y="999" type="line" smooth="yes"/>
      <point x="688" y="999" type="line" smooth="yes"/>
      <point x="741" y="997"/>
      <point x="825" y="1001"/>
      <point x="868" y="954" type="curve" smooth="yes"/>
      <point x="884" y="934"/>
      <point x="918" y="899"/>
      <point x="928" y="872" type="curve" smooth="yes"/>
      <point x="946" y="827"/>
      <point x="934" y="774"/>
      <point x="991" y="774" type="curve" smooth="yes"/>
      <point x="1003" y="774"/>
      <point x="1036" y="777"/>
      <point x="1032" y="797" type="curve"/>
      <point x="1032" y="1036" type="line"/>
      <point x="1034" y="1050"/>
      <point x="1040" y="1159"/>
      <point x="1040" y="1171" type="curve" smooth="yes"/>
      <point x="1040" y="1181"/>
      <point x="1036" y="1241"/>
      <point x="1032" y="1255" type="curve" smooth="yes"/>
      <point x="1032" y="1259"/>
      <point x="1026" y="1270"/>
      <point x="1026" y="1270" type="curve"/>
      <point x="958" y="1270" type="line" smooth="yes"/>
      <point x="956" y="1270"/>
      <point x="950" y="1266"/>
      <point x="950" y="1264" type="curve" smooth="yes"/>
      <point x="948" y="1258"/>
      <point x="938" y="1214"/>
      <point x="936" y="1210" type="curve" smooth="yes"/>
      <point x="911" y="1144"/>
      <point x="842" y="1081"/>
      <point x="770" y="1081" type="curve" smooth="yes"/>
      <point x="500" y="1081" type="line"/>
      <point x="500" y="1081"/>
      <point x="494" y="1108"/>
      <point x="492" y="1120" type="curve"/>
      <point x="492" y="1126" type="line" smooth="yes"/>
      <point x="492" y="1135" type="line"/>
      <point x="494" y="1145"/>
      <point x="498" y="1186"/>
      <point x="500" y="1194" type="curve"/>
      <point x="500" y="1602" type="line"/>
      <point x="897" y="1602" type="line"/>
      <point x="995" y="1571" type="line" smooth="yes"/>
      <point x="999" y="1569"/>
      <point x="1032" y="1538"/>
      <point x="1040" y="1526" type="curve" smooth="yes"/>
      <point x="1046" y="1520"/>
      <point x="1084" y="1460"/>
      <point x="1094" y="1444" type="curve" smooth="yes"/>
      <point x="1110" y="1413"/>
      <point x="1114" y="1382"/>
      <point x="1153" y="1382" type="curve" smooth="yes"/>
      <point x="1167" y="1382"/>
      <point x="1198" y="1382"/>
      <point x="1198" y="1405" type="curve" smooth="yes"/>
      <point x="1198" y="1468" type="line" smooth="yes"/>
      <point x="1198" y="1534" type="line" smooth="yes"/>
      <point x="1198" y="1550"/>
      <point x="1192" y="1637"/>
      <point x="1190" y="1653" type="curve" smooth="yes"/>
      <point x="1186" y="1669"/>
      <point x="1177" y="1677"/>
      <point x="1161" y="1683" type="curve"/>
      <point x="621" y="1683" type="line" smooth="yes"/>
      <point x="584" y="1683"/>
      <point x="289" y="1690"/>
      <point x="252" y="1692" type="curve" smooth="yes"/>
      <point x="223" y="1692" type="line" smooth="yes"/>
      <point x="199" y="1692" type="line"/>
      <point x="183" y="1690"/>
      <point x="108" y="1685"/>
      <point x="94" y="1683" type="curve"/>
      <point x="84" y="1673"/>
      <point x="86" y="1659"/>
      <point x="86" y="1645" type="curve" smooth="yes"/>
      <point x="86" y="1584"/>
      <point x="156" y="1614"/>
      <point x="199" y="1585" type="curve" smooth="yes"/>
      <point x="242" y="1556"/>
      <point x="275" y="1534"/>
      <point x="281" y="1481" type="curve"/>
      <point x="285" y="1465"/>
      <point x="289" y="1405"/>
      <point x="289" y="1399" type="curve" smooth="yes"/>
      <point x="289" y="631" type="line" smooth="yes"/>
      <point x="289" y="541"/>
      <point x="290" y="430"/>
      <point x="184" y="397" type="curve" smooth="yes"/>
      <point x="178" y="397"/>
      <point x="129" y="391"/>
      <point x="123" y="391" type="curve" smooth="yes"/>
      <point x="90" y="385"/>
      <point x="92" y="363"/>
      <point x="86" y="330" type="curve"/>
      <point x="86" y="326" type="line" smooth="yes"/>
      <point x="86" y="324" type="line"/>
      <point x="88" y="322"/>
      <point x="98" y="309"/>
    </contour>
    <contour>
      <point x="748" y="1477" type="curve" smooth="yes"/>
      <point x="744" y="1477"/>
      <point x="744" y="1468"/>
      <point x="748" y="1468" type="curve" smooth="yes"/>
      <point x="752" y="1468"/>
      <point x="752" y="1477"/>
    </contour>
  </outline>
</glyph>
<glyph name="_120" format="1">
  <advance width="2787"/>
  <outline>
    <contour>
      <point x="1761" y="340" type="curve" smooth="yes"/>
      <point x="1761" y="328"/>
      <point x="1762" y="297"/>
      <point x="1778" y="293" type="curve" smooth="yes"/>
      <point x="1784" y="291"/>
      <point x="1817" y="287"/>
      <point x="1823" y="285" type="curve"/>
      <point x="1833" y="285"/>
      <point x="1917" y="287"/>
      <point x="1927" y="285" type="curve"/>
      <point x="1956" y="285"/>
      <point x="2191" y="279"/>
      <point x="2220" y="279" type="curve" smooth="yes"/>
      <point x="2290" y="279" type="line" smooth="yes"/>
      <point x="2333" y="279" type="line"/>
      <point x="2349" y="293" type="line"/>
      <point x="2349" y="346" type="line"/>
      <point x="2333" y="360" type="line"/>
      <point x="2288" y="368"/>
      <point x="2241" y="371"/>
      <point x="2206" y="406" type="curve" smooth="yes"/>
      <point x="2194" y="418"/>
      <point x="2177" y="439"/>
      <point x="2175" y="459" type="curve" smooth="yes"/>
      <point x="2175" y="463"/>
      <point x="2177" y="500"/>
      <point x="2175" y="504" type="curve"/>
      <point x="2175" y="514"/>
      <point x="2169" y="592"/>
      <point x="2169" y="602" type="curve" smooth="yes"/>
      <point x="2169" y="606"/>
      <point x="2167" y="684"/>
      <point x="2167" y="713" type="curve" smooth="yes"/>
      <point x="2167" y="740"/>
      <point x="2169" y="815"/>
      <point x="2169" y="819" type="curve" smooth="yes"/>
      <point x="2169" y="854"/>
      <point x="2171" y="882"/>
      <point x="2191" y="909" type="curve" smooth="yes"/>
      <point x="2197" y="917"/>
      <point x="2224" y="955"/>
      <point x="2228" y="963" type="curve" smooth="yes"/>
      <point x="2242" y="983"/>
      <point x="2253" y="1007"/>
      <point x="2265" y="1030" type="curve" smooth="yes"/>
      <point x="2310" y="1102"/>
      <point x="2421" y="1274"/>
      <point x="2423" y="1278" type="curve" smooth="yes"/>
      <point x="2431" y="1286" type="line"/>
      <point x="2507" y="1413" type="line"/>
      <point x="2517" y="1419"/>
      <point x="2525" y="1444"/>
      <point x="2529" y="1450" type="curve" smooth="yes"/>
      <point x="2531" y="1454"/>
      <point x="2558" y="1487"/>
      <point x="2566" y="1495" type="curve" smooth="yes"/>
      <point x="2572" y="1501"/>
      <point x="2587" y="1518"/>
      <point x="2589" y="1518" type="curve" smooth="yes"/>
      <point x="2595" y="1522"/>
      <point x="2659" y="1555"/>
      <point x="2679" y="1563" type="curve" smooth="yes"/>
      <point x="2691" y="1569"/>
      <point x="2718" y="1573"/>
      <point x="2718" y="1593" type="curve" smooth="yes"/>
      <point x="2718" y="1607"/>
      <point x="2715" y="1645"/>
      <point x="2695" y="1653" type="curve"/>
      <point x="2490" y="1653" type="line" smooth="yes"/>
      <point x="2486" y="1653"/>
      <point x="2451" y="1661"/>
      <point x="2445" y="1661" type="curve" smooth="yes"/>
      <point x="2345" y="1661" type="line" smooth="yes"/>
      <point x="2243" y="1661" type="line"/>
      <point x="2227" y="1643"/>
      <point x="2226" y="1628"/>
      <point x="2226" y="1608" type="curve" smooth="yes"/>
      <point x="2226" y="1553"/>
      <point x="2277" y="1573"/>
      <point x="2318" y="1563" type="curve"/>
      <point x="2345" y="1559"/>
      <point x="2358" y="1529"/>
      <point x="2372" y="1511" type="curve" smooth="yes"/>
      <point x="2382" y="1495"/>
      <point x="2386" y="1482"/>
      <point x="2386" y="1464" type="curve" smooth="yes"/>
      <point x="2386" y="1450" type="line"/>
      <point x="2318" y="1300" type="line"/>
      <point x="2130" y="999" type="line"/>
      <point x="2124" y="999" type="line" smooth="yes"/>
      <point x="2116" y="999"/>
      <point x="2113" y="1000"/>
      <point x="2107" y="1008" type="curve" smooth="yes"/>
      <point x="2101" y="1018"/>
      <point x="2081" y="1049"/>
      <point x="2079" y="1053" type="curve" smooth="yes"/>
      <point x="1868" y="1444" type="line" smooth="yes"/>
      <point x="1856" y="1464"/>
      <point x="1851" y="1486"/>
      <point x="1851" y="1511" type="curve" smooth="yes"/>
      <point x="1851" y="1558"/>
      <point x="1898" y="1563"/>
      <point x="1935" y="1571" type="curve" smooth="yes"/>
      <point x="1937" y="1571"/>
      <point x="1956" y="1577"/>
      <point x="1958" y="1579" type="curve" smooth="yes"/>
      <point x="2001" y="1585"/>
      <point x="2003" y="1575"/>
      <point x="2003" y="1626" type="curve" smooth="yes"/>
      <point x="2003" y="1653" type="line" smooth="yes"/>
      <point x="1999" y="1665"/>
      <point x="1970" y="1669"/>
      <point x="1966" y="1669" type="curve" smooth="yes"/>
      <point x="1446" y="1669" type="line" smooth="yes"/>
      <point x="1434" y="1669"/>
      <point x="1432" y="1640"/>
      <point x="1432" y="1630" type="curve" smooth="yes"/>
      <point x="1432" y="1618"/>
      <point x="1432" y="1591"/>
      <point x="1446" y="1585" type="curve"/>
      <point x="1503" y="1577"/>
      <point x="1544" y="1569"/>
      <point x="1575" y="1518" type="curve" smooth="yes"/>
      <point x="1593" y="1485"/>
      <point x="1684" y="1327"/>
      <point x="1702" y="1292" type="curve"/>
      <point x="1710" y="1286" type="line"/>
      <point x="1868" y="1014" type="line" smooth="yes"/>
      <point x="1872" y="1010"/>
      <point x="1888" y="989"/>
      <point x="1890" y="985" type="curve" smooth="yes"/>
      <point x="1906" y="956"/>
      <point x="1948" y="872"/>
      <point x="1950" y="864" type="curve" smooth="yes"/>
      <point x="1952" y="860"/>
      <point x="1956" y="787"/>
      <point x="1958" y="760" type="curve" smooth="yes"/>
      <point x="1958" y="711" type="line" smooth="yes"/>
      <point x="1958" y="662" type="line" smooth="yes"/>
      <point x="1956" y="627"/>
      <point x="1952" y="522"/>
      <point x="1950" y="512" type="curve" smooth="yes"/>
      <point x="1948" y="481"/>
      <point x="1927" y="422"/>
      <point x="1898" y="406" type="curve" smooth="yes"/>
      <point x="1861" y="386"/>
      <point x="1819" y="375"/>
      <point x="1778" y="369" type="curve"/>
      <point x="1762" y="363"/>
      <point x="1761" y="352"/>
    </contour>
    <contour>
      <point x="418" y="301" type="curve"/>
      <point x="490" y="299"/>
      <point x="831" y="295"/>
      <point x="905" y="293" type="curve" smooth="yes"/>
      <point x="946" y="293" type="line" smooth="yes"/>
      <point x="989" y="293" type="line"/>
      <point x="1001" y="301"/>
      <point x="1004" y="322"/>
      <point x="1004" y="334" type="curve" smooth="yes"/>
      <point x="1004" y="385"/>
      <point x="938" y="379"/>
      <point x="905" y="391" type="curve" smooth="yes"/>
      <point x="872" y="403"/>
      <point x="833" y="442"/>
      <point x="815" y="467" type="curve"/>
      <point x="819" y="526"/>
      <point x="807" y="586"/>
      <point x="807" y="645" type="curve" smooth="yes"/>
      <point x="807" y="670" type="line" smooth="yes"/>
      <point x="809" y="684"/>
      <point x="815" y="805"/>
      <point x="815" y="819" type="curve" smooth="yes"/>
      <point x="815" y="1436" type="line"/>
      <point x="825" y="1485"/>
      <point x="825" y="1544"/>
      <point x="823" y="1593" type="curve"/>
      <point x="829" y="1602" type="line"/>
      <point x="895" y="1602" type="line" smooth="yes"/>
      <point x="1045" y="1602"/>
      <point x="1145" y="1604"/>
      <point x="1229" y="1473" type="curve" smooth="yes"/>
      <point x="1235" y="1463"/>
      <point x="1282" y="1378"/>
      <point x="1288" y="1368" type="curve" smooth="yes"/>
      <point x="1296" y="1360" type="line"/>
      <point x="1323" y="1360" type="line" smooth="yes"/>
      <point x="1335" y="1360"/>
      <point x="1354" y="1358"/>
      <point x="1364" y="1368" type="curve"/>
      <point x="1364" y="1401" type="line" smooth="yes"/>
      <point x="1364" y="1436" type="line" smooth="yes"/>
      <point x="1362" y="1452"/>
      <point x="1343" y="1577"/>
      <point x="1341" y="1593" type="curve" smooth="yes"/>
      <point x="1339" y="1609"/>
      <point x="1347" y="1653"/>
      <point x="1327" y="1661" type="curve"/>
      <point x="1298" y="1663"/>
      <point x="1174" y="1667"/>
      <point x="1147" y="1669" type="curve"/>
      <point x="762" y="1669" type="line"/>
      <point x="752" y="1671"/>
      <point x="698" y="1675"/>
      <point x="688" y="1675" type="curve" smooth="yes"/>
      <point x="676" y="1677"/>
      <point x="585" y="1675"/>
      <point x="575" y="1675" type="curve" smooth="yes"/>
      <point x="542" y="1677"/>
      <point x="277" y="1683"/>
      <point x="244" y="1683" type="curve" smooth="yes"/>
      <point x="184" y="1683" type="line" smooth="yes"/>
      <point x="123" y="1683" type="line"/>
      <point x="117" y="1679"/>
      <point x="111" y="1669"/>
      <point x="109" y="1661" type="curve" smooth="yes"/>
      <point x="105" y="1632"/>
      <point x="88" y="1502"/>
      <point x="86" y="1473" type="curve" smooth="yes"/>
      <point x="86" y="1432" type="line" smooth="yes"/>
      <point x="86" y="1391" type="line"/>
      <point x="96" y="1377"/>
      <point x="115" y="1374"/>
      <point x="129" y="1374" type="curve" smooth="yes"/>
      <point x="168" y="1374"/>
      <point x="175" y="1425"/>
      <point x="193" y="1450" type="curve"/>
      <point x="242" y="1528"/>
      <point x="295" y="1598"/>
      <point x="395" y="1602" type="curve" smooth="yes"/>
      <point x="481" y="1602" type="line" smooth="yes"/>
      <point x="518" y="1602"/>
      <point x="573" y="1605"/>
      <point x="612" y="1593" type="curve"/>
      <point x="612" y="1423" type="line" smooth="yes"/>
      <point x="612" y="1255" type="line" smooth="yes"/>
      <point x="612" y="1230"/>
      <point x="606" y="1039"/>
      <point x="604" y="1014" type="curve" smooth="yes"/>
      <point x="602" y="830"/>
      <point x="606" y="655"/>
      <point x="590" y="473" type="curve" smooth="yes"/>
      <point x="588" y="471"/>
      <point x="577" y="455"/>
      <point x="575" y="451" type="curve" smooth="yes"/>
      <point x="573" y="449"/>
      <point x="561" y="424"/>
      <point x="559" y="422" type="curve" smooth="yes"/>
      <point x="526" y="387"/>
      <point x="457" y="381"/>
      <point x="418" y="375" type="curve"/>
      <point x="400" y="369"/>
      <point x="401" y="338"/>
      <point x="401" y="322" type="curve" smooth="yes"/>
      <point x="401" y="307" type="line" smooth="yes"/>
      <point x="403" y="305"/>
      <point x="414" y="299"/>
    </contour>
  </outline>
</glyph>
<glyph name="_121" format="1">
  <advance width="1263"/>
  <outline>
    <contour>
      <point x="102" y="293" type="curve"/>
      <point x="266" y="297"/>
      <point x="430" y="285"/>
      <point x="594" y="285" type="curve" smooth="yes"/>
      <point x="688" y="285" type="line"/>
      <point x="704" y="297"/>
      <point x="705" y="316"/>
      <point x="705" y="332" type="curve" smooth="yes"/>
      <point x="705" y="346"/>
      <point x="706" y="363"/>
      <point x="688" y="369" type="curve"/>
      <point x="604" y="371"/>
      <point x="522" y="397"/>
      <point x="502" y="489" type="curve"/>
      <point x="500" y="522"/>
      <point x="494" y="680"/>
      <point x="494" y="715" type="curve" smooth="yes"/>
      <point x="494" y="860" type="line" smooth="yes"/>
      <point x="494" y="999" type="line" smooth="yes"/>
      <point x="494" y="1013"/>
      <point x="502" y="1123"/>
      <point x="502" y="1135" type="curve" smooth="yes"/>
      <point x="502" y="1540" type="line" smooth="yes"/>
      <point x="502" y="1544"/>
      <point x="506" y="1567"/>
      <point x="508" y="1571" type="curve" smooth="yes"/>
      <point x="516" y="1579" type="line" smooth="yes"/>
      <point x="551" y="1587"/>
      <point x="579" y="1585"/>
      <point x="614" y="1585" type="curve" smooth="yes"/>
      <point x="796" y="1585"/>
      <point x="961" y="1495"/>
      <point x="961" y="1292" type="curve" smooth="yes"/>
      <point x="961" y="1249"/>
      <point x="960" y="1223"/>
      <point x="944" y="1180" type="curve" smooth="yes"/>
      <point x="903" y="1067"/>
      <point x="830" y="1018"/>
      <point x="711" y="1008" type="curve" smooth="yes"/>
      <point x="705" y="1008"/>
      <point x="657" y="999"/>
      <point x="651" y="999" type="curve" smooth="yes"/>
      <point x="647" y="999"/>
      <point x="625" y="1001"/>
      <point x="621" y="999" type="curve" smooth="yes"/>
      <point x="613" y="995"/>
      <point x="590" y="972"/>
      <point x="590" y="958" type="curve" smooth="yes"/>
      <point x="590" y="927"/>
      <point x="614" y="909"/>
      <point x="643" y="909" type="curve" smooth="yes"/>
      <point x="733" y="909" type="line" smooth="yes"/>
      <point x="786" y="909"/>
      <point x="815" y="904"/>
      <point x="862" y="918" type="curve"/>
      <point x="862" y="918"/>
      <point x="875" y="924"/>
      <point x="877" y="924" type="curve" smooth="yes"/>
      <point x="932" y="940"/>
      <point x="989" y="952"/>
      <point x="1034" y="991" type="curve" smooth="yes"/>
      <point x="1050" y="1005"/>
      <point x="1125" y="1076"/>
      <point x="1139" y="1090" type="curve"/>
      <point x="1182" y="1156"/>
      <point x="1194" y="1216"/>
      <point x="1194" y="1294" type="curve" smooth="yes"/>
      <point x="1194" y="1501"/>
      <point x="1036" y="1641"/>
      <point x="831" y="1661" type="curve"/>
      <point x="616" y="1659"/>
      <point x="403" y="1669"/>
      <point x="190" y="1669" type="curve" smooth="yes"/>
      <point x="133" y="1669" type="line" smooth="yes"/>
      <point x="111" y="1661" type="line"/>
      <point x="111" y="1593" type="line" smooth="yes"/>
      <point x="111" y="1581"/>
      <point x="184" y="1585"/>
      <point x="207" y="1571" type="curve" smooth="yes"/>
      <point x="213" y="1569"/>
      <point x="227" y="1556"/>
      <point x="229" y="1556" type="curve" smooth="yes"/>
      <point x="282" y="1511"/>
      <point x="291" y="1471"/>
      <point x="291" y="1403" type="curve" smooth="yes"/>
      <point x="291" y="1360" type="line" smooth="yes"/>
      <point x="289" y="1305"/>
      <point x="283" y="845"/>
      <point x="283" y="788" type="curve" smooth="yes"/>
      <point x="283" y="594" type="line" smooth="yes"/>
      <point x="283" y="576"/>
      <point x="272" y="485"/>
      <point x="268" y="467" type="curve"/>
      <point x="243" y="410"/>
      <point x="198" y="395"/>
      <point x="139" y="383" type="curve" smooth="yes"/>
      <point x="119" y="379"/>
      <point x="100" y="389"/>
      <point x="88" y="369" type="curve"/>
      <point x="88" y="365"/>
      <point x="86" y="346"/>
      <point x="86" y="342" type="curve" smooth="yes"/>
      <point x="86" y="324"/>
      <point x="86" y="305"/>
    </contour>
    <contour>
      <point x="215" y="1026" type="curve" smooth="yes"/>
      <point x="211" y="1026"/>
      <point x="211" y="1018"/>
      <point x="215" y="1018" type="curve" smooth="yes"/>
      <point x="219" y="1018"/>
      <point x="219" y="1026"/>
    </contour>
  </outline>
</glyph>
<glyph name="_122" format="1">
  <advance width="1327"/>
  <outline>
    <contour>
      <point x="106" y="293" type="curve"/>
      <point x="588" y="293" type="line" smooth="yes"/>
      <point x="600" y="293"/>
      <point x="709" y="287"/>
      <point x="723" y="285" type="curve"/>
      <point x="743" y="285"/>
      <point x="920" y="287"/>
      <point x="940" y="285" type="curve"/>
      <point x="971" y="285"/>
      <point x="1112" y="281"/>
      <point x="1143" y="279" type="curve"/>
      <point x="1157" y="281"/>
      <point x="1163" y="289"/>
      <point x="1165" y="301" type="curve" smooth="yes"/>
      <point x="1225" y="541" type="line"/>
      <point x="1223" y="555"/>
      <point x="1233" y="570"/>
      <point x="1233" y="584" type="curve" smooth="yes"/>
      <point x="1233" y="586" type="line"/>
      <point x="1231" y="594"/>
      <point x="1219" y="616"/>
      <point x="1219" y="616" type="curve" smooth="yes"/>
      <point x="1217" y="616"/>
      <point x="1202" y="618"/>
      <point x="1196" y="618" type="curve" smooth="yes"/>
      <point x="1190" y="618"/>
      <point x="1174" y="616"/>
      <point x="1174" y="616" type="curve" smooth="yes"/>
      <point x="1172" y="614"/>
      <point x="1149" y="594"/>
      <point x="1143" y="586" type="curve" smooth="yes"/>
      <point x="1137" y="578"/>
      <point x="1083" y="504"/>
      <point x="1075" y="496" type="curve" smooth="yes"/>
      <point x="1063" y="480"/>
      <point x="1024" y="446"/>
      <point x="1008" y="436" type="curve" smooth="yes"/>
      <point x="985" y="422"/>
      <point x="917" y="385"/>
      <point x="909" y="383" type="curve" smooth="yes"/>
      <point x="905" y="381"/>
      <point x="822" y="371"/>
      <point x="791" y="369" type="curve" smooth="yes"/>
      <point x="768" y="369" type="line" smooth="yes"/>
      <point x="709" y="369"/>
      <point x="647" y="379"/>
      <point x="588" y="375" type="curve"/>
      <point x="535" y="428" type="line" smooth="yes"/>
      <point x="533" y="430"/>
      <point x="528" y="442"/>
      <point x="526" y="444" type="curve" smooth="yes"/>
      <point x="524" y="446"/>
      <point x="498" y="477"/>
      <point x="498" y="481" type="curve" smooth="yes"/>
      <point x="496" y="487"/>
      <point x="498" y="543"/>
      <point x="498" y="549" type="curve"/>
      <point x="496" y="553"/>
      <point x="489" y="596"/>
      <point x="489" y="602" type="curve" smooth="yes"/>
      <point x="489" y="604"/>
      <point x="494" y="614"/>
      <point x="498" y="616" type="curve"/>
      <point x="496" y="659"/>
      <point x="496" y="858"/>
      <point x="498" y="901" type="curve" smooth="yes"/>
      <point x="498" y="911"/>
      <point x="502" y="953"/>
      <point x="504" y="963" type="curve" smooth="yes"/>
      <point x="506" y="975"/>
      <point x="528" y="971"/>
      <point x="530" y="971" type="curve" smooth="yes"/>
      <point x="536" y="971"/>
      <point x="555" y="969"/>
      <point x="557" y="969" type="curve" smooth="yes"/>
      <point x="571" y="969"/>
      <point x="693" y="963"/>
      <point x="707" y="963" type="curve" smooth="yes"/>
      <point x="787" y="959"/>
      <point x="885" y="969"/>
      <point x="918" y="879" type="curve" smooth="yes"/>
      <point x="924" y="865"/>
      <point x="950" y="790"/>
      <point x="954" y="774" type="curve"/>
      <point x="963" y="766" type="line"/>
      <point x="1022" y="766" type="line"/>
      <point x="1038" y="782" type="line"/>
      <point x="1036" y="823"/>
      <point x="1036" y="1018"/>
      <point x="1038" y="1059" type="curve" smooth="yes"/>
      <point x="1038" y="1071"/>
      <point x="1044" y="1161"/>
      <point x="1044" y="1171" type="curve" smooth="yes"/>
      <point x="1044" y="1194"/>
      <point x="1043" y="1233"/>
      <point x="1012" y="1233" type="curve" smooth="yes"/>
      <point x="998" y="1233"/>
      <point x="987" y="1231"/>
      <point x="971" y="1225" type="curve"/>
      <point x="957" y="1176"/>
      <point x="936" y="1095"/>
      <point x="881" y="1075" type="curve" smooth="yes"/>
      <point x="820" y="1050"/>
      <point x="760" y="1044"/>
      <point x="692" y="1044" type="curve" smooth="yes"/>
      <point x="670" y="1044" type="line" smooth="yes"/>
      <point x="623" y="1046"/>
      <point x="512" y="1053"/>
      <point x="512" y="1053" type="curve"/>
      <point x="504" y="1059" type="line" smooth="yes"/>
      <point x="504" y="1116" type="line" smooth="yes"/>
      <point x="504" y="1268"/>
      <point x="514" y="1419"/>
      <point x="512" y="1571" type="curve"/>
      <point x="569" y="1581"/>
      <point x="625" y="1579"/>
      <point x="684" y="1579" type="curve" smooth="yes"/>
      <point x="782" y="1579" type="line" smooth="yes"/>
      <point x="792" y="1577"/>
      <point x="856" y="1573"/>
      <point x="872" y="1571" type="curve" smooth="yes"/>
      <point x="915" y="1567"/>
      <point x="946" y="1545"/>
      <point x="977" y="1518" type="curve" smooth="yes"/>
      <point x="981" y="1516"/>
      <point x="991" y="1505"/>
      <point x="993" y="1503" type="curve" smooth="yes"/>
      <point x="1067" y="1376" type="line" smooth="yes"/>
      <point x="1075" y="1364"/>
      <point x="1090" y="1360"/>
      <point x="1102" y="1360" type="curve" smooth="yes"/>
      <point x="1106" y="1360" type="line"/>
      <point x="1116" y="1362"/>
      <point x="1143" y="1368"/>
      <point x="1143" y="1368" type="curve"/>
      <point x="1151" y="1372"/>
      <point x="1151" y="1391"/>
      <point x="1151" y="1399" type="curve" smooth="yes"/>
      <point x="1151" y="1413" type="line" smooth="yes"/>
      <point x="1149" y="1446"/>
      <point x="1145" y="1597"/>
      <point x="1143" y="1630" type="curve"/>
      <point x="1135" y="1640"/>
      <point x="1124" y="1651"/>
      <point x="1112" y="1653" type="curve" smooth="yes"/>
      <point x="1079" y="1655"/>
      <point x="922" y="1661"/>
      <point x="887" y="1661" type="curve" smooth="yes"/>
      <point x="500" y="1661" type="line" smooth="yes"/>
      <point x="113" y="1661" type="line"/>
      <point x="103" y="1651"/>
      <point x="104" y="1626"/>
      <point x="104" y="1614" type="curve" smooth="yes"/>
      <point x="104" y="1610"/>
      <point x="106" y="1595"/>
      <point x="106" y="1593" type="curve" smooth="yes"/>
      <point x="113" y="1585" type="line"/>
      <point x="129" y="1583"/>
      <point x="197" y="1567"/>
      <point x="211" y="1563" type="curve" smooth="yes"/>
      <point x="213" y="1563"/>
      <point x="223" y="1556"/>
      <point x="225" y="1556" type="curve" smooth="yes"/>
      <point x="252" y="1531"/>
      <point x="281" y="1510"/>
      <point x="287" y="1473" type="curve"/>
      <point x="289" y="1438"/>
      <point x="293" y="1276"/>
      <point x="293" y="1241" type="curve" smooth="yes"/>
      <point x="293" y="1235"/>
      <point x="295" y="1166"/>
      <point x="295" y="1141" type="curve" smooth="yes"/>
      <point x="295" y="1114"/>
      <point x="293" y="1048"/>
      <point x="293" y="1044" type="curve" smooth="yes"/>
      <point x="293" y="1030"/>
      <point x="287" y="915"/>
      <point x="287" y="901" type="curve" smooth="yes"/>
      <point x="285" y="842"/>
      <point x="285" y="563"/>
      <point x="287" y="504" type="curve" smooth="yes"/>
      <point x="287" y="467"/>
      <point x="258" y="426"/>
      <point x="242" y="397" type="curve"/>
      <point x="230" y="381"/>
      <point x="215" y="377"/>
      <point x="197" y="375" type="curve" smooth="yes"/>
      <point x="183" y="375"/>
      <point x="118" y="369"/>
      <point x="106" y="369" type="curve"/>
      <point x="88" y="365"/>
      <point x="90" y="344"/>
      <point x="90" y="330" type="curve" smooth="yes"/>
      <point x="90" y="318"/>
      <point x="88" y="297"/>
    </contour>
  </outline>
</glyph>
<glyph name="_130" format="1">
  <advance width="1546"/>
  <outline>
    <contour>
      <point x="80" y="319" type="curve" smooth="yes"/>
      <point x="80" y="296"/>
      <point x="75" y="260"/>
      <point x="106" y="258" type="curve" smooth="yes"/>
      <point x="114" y="256"/>
      <point x="187" y="258"/>
      <point x="195" y="258" type="curve" smooth="yes"/>
      <point x="234" y="256"/>
      <point x="541" y="250"/>
      <point x="578" y="248" type="curve"/>
      <point x="617" y="248"/>
      <point x="930" y="250"/>
      <point x="969" y="248" type="curve" smooth="yes"/>
      <point x="989" y="248"/>
      <point x="1154" y="240"/>
      <point x="1174" y="240" type="curve" smooth="yes"/>
      <point x="1292" y="240" type="line" smooth="yes"/>
      <point x="1368" y="240" type="line" smooth="yes"/>
      <point x="1376" y="248" type="line" smooth="yes"/>
      <point x="1378" y="250"/>
      <point x="1397" y="311"/>
      <point x="1405" y="338" type="curve"/>
      <point x="1411" y="367"/>
      <point x="1415" y="399"/>
      <point x="1421" y="426" type="curve" smooth="yes"/>
      <point x="1435" y="483"/>
      <point x="1458" y="537"/>
      <point x="1458" y="596" type="curve" smooth="yes"/>
      <point x="1458" y="623"/>
      <point x="1459" y="631"/>
      <point x="1432" y="631" type="curve" smooth="yes"/>
      <point x="1412" y="631"/>
      <point x="1390" y="630"/>
      <point x="1376" y="612" type="curve" smooth="yes"/>
      <point x="1370" y="604"/>
      <point x="1321" y="532"/>
      <point x="1315" y="524" type="curve" smooth="yes"/>
      <point x="1284" y="487"/>
      <point x="1246" y="471"/>
      <point x="1217" y="436" type="curve"/>
      <point x="1201" y="426"/>
      <point x="1112" y="383"/>
      <point x="1094" y="373" type="curve" smooth="yes"/>
      <point x="1090" y="373"/>
      <point x="1071" y="367"/>
      <point x="1067" y="365" type="curve" smooth="yes"/>
      <point x="1059" y="363"/>
      <point x="995" y="348"/>
      <point x="987" y="346" type="curve" smooth="yes"/>
      <point x="985" y="346"/>
      <point x="971" y="338"/>
      <point x="969" y="338" type="curve" smooth="yes"/>
      <point x="967" y="338"/>
      <point x="944" y="346"/>
      <point x="942" y="346" type="curve" smooth="yes"/>
      <point x="821" y="354"/>
      <point x="731" y="342"/>
      <point x="612" y="383" type="curve"/>
      <point x="551" y="451"/>
      <point x="567" y="567"/>
      <point x="567" y="649" type="curve" smooth="yes"/>
      <point x="567" y="966"/>
      <point x="576" y="1282"/>
      <point x="586" y="1599" type="curve" smooth="yes"/>
      <point x="590" y="1683"/>
      <point x="623" y="1755"/>
      <point x="711" y="1778" type="curve" smooth="yes"/>
      <point x="713" y="1778"/>
      <point x="735" y="1786"/>
      <point x="737" y="1786" type="curve" smooth="yes"/>
      <point x="786" y="1790"/>
      <point x="854" y="1763"/>
      <point x="854" y="1829" type="curve" smooth="yes"/>
      <point x="854" y="1860"/>
      <point x="846" y="1882"/>
      <point x="817" y="1892" type="curve"/>
      <point x="594" y="1890"/>
      <point x="375" y="1903"/>
      <point x="152" y="1903" type="curve" smooth="yes"/>
      <point x="113" y="1903"/>
      <point x="98" y="1892"/>
      <point x="98" y="1853" type="curve" smooth="yes"/>
      <point x="98" y="1820"/>
      <point x="98" y="1802"/>
      <point x="133" y="1794" type="curve" smooth="yes"/>
      <point x="141" y="1794"/>
      <point x="197" y="1788"/>
      <point x="205" y="1786" type="curve" smooth="yes"/>
      <point x="281" y="1774"/>
      <point x="309" y="1715"/>
      <point x="319" y="1645" type="curve"/>
      <point x="319" y="1417" type="line" smooth="yes"/>
      <point x="319" y="1190" type="line" smooth="yes"/>
      <point x="319" y="1124"/>
      <point x="311" y="582"/>
      <point x="311" y="516" type="curve" smooth="yes"/>
      <point x="311" y="471"/>
      <point x="277" y="445"/>
      <point x="250" y="410" type="curve" smooth="yes"/>
      <point x="236" y="392"/>
      <point x="202" y="379"/>
      <point x="186" y="373" type="curve" smooth="yes"/>
      <point x="166" y="367"/>
      <point x="106" y="372"/>
      <point x="88" y="356" type="curve" smooth="yes"/>
      <point x="82" y="348"/>
      <point x="80" y="331"/>
    </contour>
  </outline>
</glyph>
<glyph name="_133" format="1">
  <advance width="2361"/>
  <outline>
    <contour>
      <point x="1552" y="154" type="curve"/>
      <point x="1775" y="158"/>
      <point x="1999" y="145"/>
      <point x="2224" y="145" type="curve" smooth="yes"/>
      <point x="2259" y="145"/>
      <point x="2265" y="164"/>
      <point x="2265" y="195" type="curve" smooth="yes"/>
      <point x="2265" y="218"/>
      <point x="2267" y="236"/>
      <point x="2247" y="250" type="curve"/>
      <point x="2177" y="252"/>
      <point x="2096" y="284"/>
      <point x="2073" y="356" type="curve" smooth="yes"/>
      <point x="2046" y="440"/>
      <point x="2035" y="510"/>
      <point x="2023" y="598" type="curve" smooth="yes"/>
      <point x="2023" y="616" type="line" smooth="yes"/>
      <point x="1976" y="934" type="line" smooth="yes"/>
      <point x="1976" y="944" type="line" smooth="yes"/>
      <point x="1972" y="967"/>
      <point x="1950" y="1134"/>
      <point x="1948" y="1157" type="curve" smooth="yes"/>
      <point x="1930" y="1294"/>
      <point x="1908" y="1440"/>
      <point x="1898" y="1581" type="curve" smooth="yes"/>
      <point x="1898" y="1638" type="line" smooth="yes"/>
      <point x="1898" y="1699"/>
      <point x="1911" y="1765"/>
      <point x="1966" y="1802" type="curve" smooth="yes"/>
      <point x="2009" y="1831"/>
      <point x="2083" y="1794"/>
      <point x="2083" y="1866" type="curve" smooth="yes"/>
      <point x="2083" y="1884"/>
      <point x="2073" y="1927"/>
      <point x="2044" y="1927" type="curve" smooth="yes"/>
      <point x="1610" y="1927" type="line"/>
      <point x="1591" y="1909" type="line"/>
      <point x="1591" y="1796"/>
      <point x="1571" y="1677"/>
      <point x="1542" y="1571" type="curve" smooth="yes"/>
      <point x="1526" y="1512"/>
      <point x="1472" y="1335"/>
      <point x="1464" y="1321" type="curve"/>
      <point x="1456" y="1300" type="line"/>
      <point x="1196" y="637" type="line"/>
      <point x="1173" y="713"/>
      <point x="1131" y="782"/>
      <point x="1108" y="858" type="curve" smooth="yes"/>
      <point x="1100" y="891"/>
      <point x="1097" y="923"/>
      <point x="1079" y="954" type="curve"/>
      <point x="915" y="1475" type="line"/>
      <point x="915" y="1485" type="line"/>
      <point x="899" y="1526"/>
      <point x="831" y="1720"/>
      <point x="819" y="1763" type="curve" smooth="yes"/>
      <point x="813" y="1786"/>
      <point x="793" y="1894"/>
      <point x="791" y="1917" type="curve"/>
      <point x="787" y="1925"/>
      <point x="770" y="1937"/>
      <point x="762" y="1937" type="curve" smooth="yes"/>
      <point x="356" y="1937" type="line"/>
      <point x="338" y="1927" type="line" smooth="yes"/>
      <point x="336" y="1927"/>
      <point x="330" y="1886"/>
      <point x="328" y="1870" type="curve" smooth="yes"/>
      <point x="328" y="1860" type="line" smooth="yes"/>
      <point x="328" y="1825"/>
      <point x="446" y="1822"/>
      <point x="481" y="1763" type="curve" smooth="yes"/>
      <point x="485" y="1759"/>
      <point x="498" y="1718"/>
      <point x="502" y="1706" type="curve"/>
      <point x="504" y="1692"/>
      <point x="512" y="1653"/>
      <point x="510" y="1649" type="curve" smooth="yes"/>
      <point x="444" y="1137" type="line"/>
      <point x="444" y="1128" type="line"/>
      <point x="346" y="541" type="line" smooth="yes"/>
      <point x="346" y="535"/>
      <point x="332" y="487"/>
      <point x="328" y="473" type="curve" smooth="yes"/>
      <point x="328" y="471"/>
      <point x="319" y="455"/>
      <point x="317" y="453" type="curve" smooth="yes"/>
      <point x="288" y="373"/>
      <point x="285" y="362"/>
      <point x="213" y="309" type="curve" smooth="yes"/>
      <point x="211" y="307"/>
      <point x="205" y="299"/>
      <point x="203" y="299" type="curve" smooth="yes"/>
      <point x="195" y="295"/>
      <point x="125" y="274"/>
      <point x="117" y="270" type="curve" smooth="yes"/>
      <point x="97" y="260"/>
      <point x="96" y="254"/>
      <point x="96" y="238" type="curve" smooth="yes"/>
      <point x="96" y="215"/>
      <point x="100" y="199"/>
      <point x="106" y="174" type="curve"/>
      <point x="155" y="172"/>
      <point x="385" y="164"/>
      <point x="434" y="164" type="curve" smooth="yes"/>
      <point x="563" y="164" type="line" smooth="yes"/>
      <point x="645" y="164" type="line"/>
      <point x="666" y="182" type="line"/>
      <point x="666" y="260" type="line" smooth="yes"/>
      <point x="666" y="280"/>
      <point x="620" y="277"/>
      <point x="608" y="279" type="curve"/>
      <point x="592" y="285"/>
      <point x="551" y="297"/>
      <point x="549" y="299" type="curve" smooth="yes"/>
      <point x="543" y="303"/>
      <point x="510" y="336"/>
      <point x="502" y="346" type="curve" smooth="yes"/>
      <point x="467" y="391"/>
      <point x="471" y="449"/>
      <point x="471" y="500" type="curve" smooth="yes"/>
      <point x="471" y="520"/>
      <point x="471" y="576"/>
      <point x="473" y="578" type="curve"/>
      <point x="473" y="586"/>
      <point x="481" y="639"/>
      <point x="481" y="645" type="curve" smooth="yes"/>
      <point x="483" y="651"/>
      <point x="481" y="699"/>
      <point x="481" y="705" type="curve" smooth="yes"/>
      <point x="485" y="732"/>
      <point x="496" y="737"/>
      <point x="492" y="762" type="curve"/>
      <point x="549" y="1128" type="line"/>
      <point x="549" y="1147" type="line"/>
      <point x="608" y="1524" type="line"/>
      <point x="618" y="1534" type="line"/>
      <point x="780" y="1061" type="line"/>
      <point x="794" y="1041"/>
      <point x="791" y="1028"/>
      <point x="801" y="1001" type="curve" smooth="yes"/>
      <point x="817" y="954"/>
      <point x="897" y="731"/>
      <point x="915" y="684" type="curve"/>
      <point x="907" y="661"/>
      <point x="930" y="657"/>
      <point x="936" y="637" type="curve" smooth="yes"/>
      <point x="1040" y="193" type="line" smooth="yes"/>
      <point x="1050" y="154"/>
      <point x="1091" y="154"/>
      <point x="1124" y="154" type="curve" smooth="yes"/>
      <point x="1142" y="154"/>
      <point x="1159" y="151"/>
      <point x="1165" y="174" type="curve" smooth="yes"/>
      <point x="1427" y="926" type="line" smooth="yes"/>
      <point x="1431" y="934"/>
      <point x="1452" y="975"/>
      <point x="1456" y="983" type="curve"/>
      <point x="1456" y="993" type="line" smooth="yes"/>
      <point x="1456" y="1001"/>
      <point x="1464" y="1028"/>
      <point x="1464" y="1032" type="curve" smooth="yes"/>
      <point x="1474" y="1059"/>
      <point x="1551" y="1256"/>
      <point x="1571" y="1311" type="curve" smooth="yes"/>
      <point x="1573" y="1313"/>
      <point x="1581" y="1327"/>
      <point x="1581" y="1329" type="curve" smooth="yes"/>
      <point x="1589" y="1356"/>
      <point x="1622" y="1476"/>
      <point x="1628" y="1503" type="curve"/>
      <point x="1649" y="1503" type="line" smooth="yes"/>
      <point x="1651" y="1503"/>
      <point x="1663" y="1424"/>
      <point x="1667" y="1389" type="curve" smooth="yes"/>
      <point x="1669" y="1381"/>
      <point x="1669" y="1347"/>
      <point x="1667" y="1339" type="curve"/>
      <point x="1745" y="762" type="line"/>
      <point x="1741" y="717"/>
      <point x="1747" y="661"/>
      <point x="1763" y="616" type="curve"/>
      <point x="1763" y="395" type="line" smooth="yes"/>
      <point x="1763" y="393"/>
      <point x="1736" y="346"/>
      <point x="1724" y="328" type="curve" smooth="yes"/>
      <point x="1716" y="314"/>
      <point x="1691" y="295"/>
      <point x="1677" y="289" type="curve" smooth="yes"/>
      <point x="1638" y="275"/>
      <point x="1568" y="289"/>
      <point x="1552" y="250" type="curve" smooth="yes"/>
      <point x="1546" y="238"/>
      <point x="1542" y="211"/>
      <point x="1542" y="193" type="curve" smooth="yes"/>
      <point x="1542" y="179"/>
      <point x="1544" y="172"/>
    </contour>
    <contour>
      <point x="1427" y="285" type="curve" smooth="yes"/>
      <point x="1421" y="285"/>
      <point x="1421" y="274"/>
      <point x="1427" y="274" type="curve" smooth="yes"/>
      <point x="1431" y="274"/>
      <point x="1431" y="285"/>
    </contour>
    <contour>
      <point x="-96" y="872" type="curve" smooth="yes"/>
      <point x="-100" y="872"/>
      <point x="-100" y="862"/>
      <point x="-96" y="862" type="curve" smooth="yes"/>
      <point x="-92" y="862"/>
      <point x="-92" y="872"/>
    </contour>
  </outline>
</glyph>
<glyph name="_27" format="1">
  <advance width="1093"/>
  <outline>
    <contour>
      <point x="176" y="561" type="curve"/>
      <point x="190" y="543"/>
      <point x="271" y="465"/>
      <point x="289" y="449" type="curve" smooth="yes"/>
      <point x="293" y="445"/>
      <point x="353" y="411"/>
      <point x="373" y="399" type="curve" smooth="yes"/>
      <point x="422" y="374"/>
      <point x="475" y="371"/>
      <point x="530" y="371" type="curve" smooth="yes"/>
      <point x="657" y="371"/>
      <point x="752" y="412"/>
      <point x="850" y="492" type="curve" smooth="yes"/>
      <point x="860" y="500"/>
      <point x="893" y="533"/>
      <point x="899" y="541" type="curve" smooth="yes"/>
      <point x="903" y="547"/>
      <point x="942" y="617"/>
      <point x="948" y="625" type="curve" smooth="yes"/>
      <point x="948" y="625"/>
      <point x="952" y="631"/>
      <point x="954" y="631" type="curve" smooth="yes"/>
      <point x="960" y="645"/>
      <point x="985" y="715"/>
      <point x="989" y="729" type="curve" smooth="yes"/>
      <point x="995" y="754"/>
      <point x="1016" y="857"/>
      <point x="1018" y="877" type="curve" smooth="yes"/>
      <point x="1018" y="928" type="line" smooth="yes"/>
      <point x="1018" y="981" type="line" smooth="yes"/>
      <point x="1018" y="991"/>
      <point x="1008" y="1047"/>
      <point x="1004" y="1059" type="curve" smooth="yes"/>
      <point x="1002" y="1065"/>
      <point x="985" y="1110"/>
      <point x="983" y="1116" type="curve" smooth="yes"/>
      <point x="981" y="1118"/>
      <point x="977" y="1147"/>
      <point x="975" y="1151" type="curve" smooth="yes"/>
      <point x="973" y="1159"/>
      <point x="958" y="1194"/>
      <point x="954" y="1200" type="curve" smooth="yes"/>
      <point x="948" y="1212"/>
      <point x="917" y="1256"/>
      <point x="913" y="1262" type="curve" smooth="yes"/>
      <point x="893" y="1287"/>
      <point x="819" y="1360"/>
      <point x="807" y="1368" type="curve" smooth="yes"/>
      <point x="801" y="1372"/>
      <point x="717" y="1418"/>
      <point x="688" y="1432" type="curve" smooth="yes"/>
      <point x="645" y="1452"/>
      <point x="577" y="1446"/>
      <point x="532" y="1446" type="curve" smooth="yes"/>
      <point x="516" y="1446"/>
      <point x="473" y="1446"/>
      <point x="471" y="1444" type="curve"/>
      <point x="467" y="1444"/>
      <point x="432" y="1436"/>
      <point x="422" y="1432" type="curve" smooth="yes"/>
      <point x="399" y="1424"/>
      <point x="325" y="1393"/>
      <point x="315" y="1389" type="curve" smooth="yes"/>
      <point x="309" y="1387"/>
      <point x="276" y="1362"/>
      <point x="266" y="1354" type="curve" smooth="yes"/>
      <point x="260" y="1348"/>
      <point x="211" y="1298"/>
      <point x="197" y="1284" type="curve" smooth="yes"/>
      <point x="193" y="1278"/>
      <point x="172" y="1253"/>
      <point x="170" y="1249" type="curve" smooth="yes"/>
      <point x="160" y="1226"/>
      <point x="114" y="1125"/>
      <point x="106" y="1102" type="curve" smooth="yes"/>
      <point x="79" y="1036"/>
      <point x="78" y="951"/>
      <point x="78" y="883" type="curve" smooth="yes"/>
      <point x="78" y="807"/>
      <point x="84" y="740"/>
      <point x="113" y="666" type="curve" smooth="yes"/>
      <point x="129" y="625"/>
      <point x="164" y="598"/>
    </contour>
    <contour>
      <point x="281" y="981" type="line" smooth="yes"/>
      <point x="281" y="1087"/>
      <point x="278" y="1198"/>
      <point x="352" y="1284" type="curve" smooth="yes"/>
      <point x="399" y="1341"/>
      <point x="467" y="1354"/>
      <point x="537" y="1354" type="curve" smooth="yes"/>
      <point x="584" y="1354" type="line"/>
      <point x="607" y="1344"/>
      <point x="622" y="1327"/>
      <point x="645" y="1319" type="curve"/>
      <point x="678" y="1286"/>
      <point x="729" y="1235"/>
      <point x="743" y="1186" type="curve" smooth="yes"/>
      <point x="801" y="989" type="line"/>
      <point x="797" y="971"/>
      <point x="805" y="944"/>
      <point x="807" y="926" type="curve" smooth="yes"/>
      <point x="807" y="922"/>
      <point x="815" y="881"/>
      <point x="815" y="877" type="curve" smooth="yes"/>
      <point x="815" y="784" type="line" smooth="yes"/>
      <point x="815" y="678"/>
      <point x="811" y="545"/>
      <point x="702" y="492" type="curve" smooth="yes"/>
      <point x="665" y="474"/>
      <point x="625" y="455"/>
      <point x="584" y="455" type="curve" smooth="yes"/>
      <point x="529" y="455"/>
      <point x="481" y="483"/>
      <point x="442" y="518" type="curve" smooth="yes"/>
      <point x="428" y="532"/>
      <point x="389" y="571"/>
      <point x="387" y="575" type="curve" smooth="yes"/>
      <point x="375" y="591"/>
      <point x="340" y="666"/>
      <point x="338" y="680" type="curve" smooth="yes"/>
      <point x="281" y="911" type="line" smooth="yes"/>
    </contour>
  </outline>
</glyph>
<glyph name="_28" format="1">
  <advance width="1884"/>
  <outline>
    <contour>
      <point x="84" y="420" type="curve" smooth="yes"/>
      <point x="84" y="383"/>
      <point x="118" y="389"/>
      <point x="147" y="389" type="curve" smooth="yes"/>
      <point x="512" y="389" type="line" smooth="yes"/>
      <point x="522" y="389"/>
      <point x="572" y="387"/>
      <point x="582" y="385" type="curve"/>
      <point x="586" y="385" type="line" smooth="yes"/>
      <point x="600" y="385"/>
      <point x="610" y="396"/>
      <point x="610" y="410" type="curve" smooth="yes"/>
      <point x="610" y="426"/>
      <point x="608" y="451"/>
      <point x="602" y="463" type="curve"/>
      <point x="596" y="483"/>
      <point x="569" y="479"/>
      <point x="553" y="483" type="curve" smooth="yes"/>
      <point x="512" y="495"/>
      <point x="471" y="510"/>
      <point x="457" y="555" type="curve"/>
      <point x="441" y="596"/>
      <point x="451" y="655"/>
      <point x="449" y="694" type="curve" smooth="yes"/>
      <point x="449" y="710"/>
      <point x="442" y="834"/>
      <point x="442" y="848" type="curve" smooth="yes"/>
      <point x="442" y="856"/>
      <point x="440" y="973"/>
      <point x="440" y="1018" type="curve" smooth="yes"/>
      <point x="440" y="1043"/>
      <point x="442" y="1159"/>
      <point x="442" y="1186" type="curve" smooth="yes"/>
      <point x="444" y="1213"/>
      <point x="563" y="1270"/>
      <point x="590" y="1270" type="curve"/>
      <point x="590" y="1260" type="line"/>
      <point x="602" y="1260"/>
      <point x="590" y="1270"/>
      <point x="602" y="1276" type="curve" smooth="yes"/>
      <point x="606" y="1278"/>
      <point x="631" y="1284"/>
      <point x="639" y="1284" type="curve" smooth="yes"/>
      <point x="690" y="1284" type="line" smooth="yes"/>
      <point x="743" y="1284" type="line"/>
      <point x="809" y="1264"/>
      <point x="828" y="1214"/>
      <point x="848" y="1157" type="curve"/>
      <point x="858" y="1057"/>
      <point x="856" y="976"/>
      <point x="856" y="874" type="curve" smooth="yes"/>
      <point x="856" y="786"/>
      <point x="856" y="698"/>
      <point x="848" y="610" type="curve" smooth="yes"/>
      <point x="848" y="600"/>
      <point x="842" y="565"/>
      <point x="842" y="561" type="curve" smooth="yes"/>
      <point x="832" y="526"/>
      <point x="801" y="501"/>
      <point x="772" y="483" type="curve" smooth="yes"/>
      <point x="768" y="481"/>
      <point x="758" y="477"/>
      <point x="758" y="477" type="curve" smooth="yes"/>
      <point x="754" y="477"/>
      <point x="731" y="483"/>
      <point x="729" y="483" type="curve" smooth="yes"/>
      <point x="725" y="483" type="line" smooth="yes"/>
      <point x="719" y="483"/>
      <point x="694" y="471"/>
      <point x="694" y="463" type="curve" smooth="yes"/>
      <point x="694" y="399" type="line"/>
      <point x="700" y="393" type="line" smooth="yes"/>
      <point x="702" y="391"/>
      <point x="844" y="387"/>
      <point x="905" y="385" type="curve" smooth="yes"/>
      <point x="1038" y="385" type="line" smooth="yes"/>
      <point x="1171" y="385" type="line"/>
      <point x="1175" y="387"/>
      <point x="1194" y="391"/>
      <point x="1200" y="393" type="curve" smooth="yes"/>
      <point x="1210" y="397"/>
      <point x="1206" y="412"/>
      <point x="1206" y="420" type="curve" smooth="yes"/>
      <point x="1206" y="502"/>
      <point x="1145" y="467"/>
      <point x="1102" y="512" type="curve" smooth="yes"/>
      <point x="1063" y="551"/>
      <point x="1063" y="602"/>
      <point x="1053" y="651" type="curve"/>
      <point x="1053" y="1200" type="line"/>
      <point x="1059" y="1206" type="line" smooth="yes"/>
      <point x="1075" y="1216"/>
      <point x="1124" y="1247"/>
      <point x="1128" y="1249" type="curve" smooth="yes"/>
      <point x="1148" y="1257"/>
      <point x="1217" y="1282"/>
      <point x="1227" y="1284" type="curve" smooth="yes"/>
      <point x="1270" y="1284" type="line" smooth="yes"/>
      <point x="1331" y="1284"/>
      <point x="1392" y="1271"/>
      <point x="1423" y="1212" type="curve" smooth="yes"/>
      <point x="1429" y="1202"/>
      <point x="1450" y="1157"/>
      <point x="1452" y="1151" type="curve" smooth="yes"/>
      <point x="1452" y="1122" type="line" smooth="yes"/>
      <point x="1452" y="1112"/>
      <point x="1458" y="1069"/>
      <point x="1458" y="1059" type="curve" smooth="yes"/>
      <point x="1458" y="1030"/>
      <point x="1460" y="899"/>
      <point x="1460" y="870" type="curve" smooth="yes"/>
      <point x="1460" y="819"/>
      <point x="1458" y="688"/>
      <point x="1458" y="680" type="curve" smooth="yes"/>
      <point x="1458" y="670"/>
      <point x="1454" y="600"/>
      <point x="1452" y="582" type="curve" smooth="yes"/>
      <point x="1450" y="574"/>
      <point x="1446" y="549"/>
      <point x="1444" y="547" type="curve" smooth="yes"/>
      <point x="1442" y="543"/>
      <point x="1413" y="514"/>
      <point x="1403" y="506" type="curve" smooth="yes"/>
      <point x="1401" y="504"/>
      <point x="1391" y="498"/>
      <point x="1389" y="498" type="curve" smooth="yes"/>
      <point x="1379" y="496"/>
      <point x="1329" y="485"/>
      <point x="1319" y="483" type="curve"/>
      <point x="1303" y="475"/>
      <point x="1296" y="454"/>
      <point x="1296" y="438" type="curve" smooth="yes"/>
      <point x="1296" y="422"/>
      <point x="1299" y="393"/>
      <point x="1319" y="385" type="curve"/>
      <point x="1360" y="385" type="line" smooth="yes"/>
      <point x="1469" y="385"/>
      <point x="1575" y="393"/>
      <point x="1681" y="393" type="curve" smooth="yes"/>
      <point x="1704" y="393" type="line" smooth="yes"/>
      <point x="1708" y="393"/>
      <point x="1749" y="385"/>
      <point x="1753" y="385" type="curve" smooth="yes"/>
      <point x="1757" y="385"/>
      <point x="1782" y="391"/>
      <point x="1788" y="393" type="curve" smooth="yes"/>
      <point x="1804" y="399"/>
      <point x="1802" y="428"/>
      <point x="1802" y="438" type="curve" smooth="yes"/>
      <point x="1802" y="491"/>
      <point x="1790" y="478"/>
      <point x="1747" y="492" type="curve" smooth="yes"/>
      <point x="1677" y="512"/>
      <point x="1657" y="563"/>
      <point x="1655" y="631" type="curve" smooth="yes"/>
      <point x="1655" y="645"/>
      <point x="1649" y="764"/>
      <point x="1649" y="778" type="curve" smooth="yes"/>
      <point x="1649" y="786"/>
      <point x="1655" y="848"/>
      <point x="1655" y="856" type="curve" smooth="yes"/>
      <point x="1655" y="1020" type="line" smooth="yes"/>
      <point x="1655" y="1186" type="line" smooth="yes"/>
      <point x="1649" y="1338"/>
      <point x="1514" y="1452"/>
      <point x="1364" y="1452" type="curve" smooth="yes"/>
      <point x="1307" y="1452"/>
      <point x="1243" y="1448"/>
      <point x="1192" y="1417" type="curve" smooth="yes"/>
      <point x="1135" y="1382"/>
      <point x="1077" y="1339"/>
      <point x="1030" y="1290" type="curve" smooth="yes"/>
      <point x="1028" y="1290"/>
      <point x="1012" y="1294"/>
      <point x="1010" y="1298" type="curve" smooth="yes"/>
      <point x="1008" y="1300"/>
      <point x="997" y="1323"/>
      <point x="995" y="1325" type="curve" smooth="yes"/>
      <point x="987" y="1337"/>
      <point x="958" y="1378"/>
      <point x="954" y="1382" type="curve" smooth="yes"/>
      <point x="923" y="1413"/>
      <point x="870" y="1442"/>
      <point x="827" y="1452" type="curve"/>
      <point x="764" y="1452" type="line" smooth="yes"/>
      <point x="666" y="1452"/>
      <point x="621" y="1429"/>
      <point x="541" y="1374" type="curve" smooth="yes"/>
      <point x="533" y="1370"/>
      <point x="471" y="1323"/>
      <point x="463" y="1319" type="curve" smooth="yes"/>
      <point x="461" y="1317"/>
      <point x="451" y="1313"/>
      <point x="449" y="1311" type="curve"/>
      <point x="442" y="1313" type="line"/>
      <point x="442" y="1432" type="line" smooth="yes"/>
      <point x="442" y="1455"/>
      <point x="411" y="1452"/>
      <point x="395" y="1452" type="curve" smooth="yes"/>
      <point x="377" y="1452"/>
      <point x="354" y="1438"/>
      <point x="336" y="1432" type="curve" smooth="yes"/>
      <point x="324" y="1426"/>
      <point x="229" y="1380"/>
      <point x="217" y="1374" type="curve" smooth="yes"/>
      <point x="178" y="1358"/>
      <point x="137" y="1349"/>
      <point x="98" y="1333" type="curve" smooth="yes"/>
      <point x="88" y="1329"/>
      <point x="84" y="1313"/>
      <point x="84" y="1305" type="curve" smooth="yes"/>
      <point x="84" y="1285"/>
      <point x="146" y="1257"/>
      <point x="162" y="1249" type="curve" smooth="yes"/>
      <point x="168" y="1245"/>
      <point x="232" y="1210"/>
      <point x="238" y="1206" type="curve" smooth="yes"/>
      <point x="240" y="1206"/>
      <point x="246" y="1200"/>
      <point x="246" y="1200" type="curve"/>
      <point x="252" y="1143" type="line"/>
      <point x="252" y="659" type="line" smooth="yes"/>
      <point x="252" y="653"/>
      <point x="248" y="604"/>
      <point x="246" y="590" type="curve" smooth="yes"/>
      <point x="236" y="524"/>
      <point x="184" y="497"/>
      <point x="127" y="483" type="curve" smooth="yes"/>
      <point x="115" y="481"/>
      <point x="106" y="489"/>
      <point x="98" y="477" type="curve" smooth="yes"/>
      <point x="98" y="475"/>
      <point x="92" y="461"/>
      <point x="90" y="457" type="curve" smooth="yes"/>
      <point x="88" y="447"/>
      <point x="84" y="424"/>
    </contour>
    <contour>
      <point x="975" y="799" type="curve" smooth="yes"/>
      <point x="979" y="799"/>
      <point x="979" y="795"/>
      <point x="975" y="793" type="curve" smooth="yes"/>
      <point x="971" y="791"/>
      <point x="971" y="801"/>
    </contour>
    <contour>
      <point x="1767" y="1094" type="curve" smooth="yes"/>
      <point x="1769" y="1098"/>
      <point x="1743" y="1098"/>
      <point x="1747" y="1094" type="curve" smooth="yes"/>
      <point x="1749" y="1090"/>
      <point x="1763" y="1090"/>
    </contour>
  </outline>
</glyph>
<glyph name="_30" format="1">
  <advance width="679"/>
  <outline>
    <contour>
      <point x="197" y="649" type="line" smooth="yes"/>
      <point x="197" y="532" type="line" smooth="yes"/>
      <point x="225" y="442" type="line" smooth="yes"/>
      <point x="225" y="440"/>
      <point x="256" y="409"/>
      <point x="266" y="399" type="curve" smooth="yes"/>
      <point x="274" y="393"/>
      <point x="307" y="375"/>
      <point x="315" y="373" type="curve" smooth="yes"/>
      <point x="348" y="365"/>
      <point x="383" y="365"/>
      <point x="416" y="365" type="curve" smooth="yes"/>
      <point x="473" y="365"/>
      <point x="559" y="375"/>
      <point x="596" y="420" type="curve"/>
      <point x="598" y="426"/>
      <point x="598" y="445"/>
      <point x="598" y="449" type="curve" smooth="yes"/>
      <point x="598" y="484"/>
      <point x="602" y="494"/>
      <point x="561" y="498" type="curve" smooth="yes"/>
      <point x="553" y="500"/>
      <point x="479" y="504"/>
      <point x="471" y="506" type="curve" smooth="yes"/>
      <point x="467" y="506"/>
      <point x="453" y="510"/>
      <point x="451" y="512" type="curve" smooth="yes"/>
      <point x="439" y="518"/>
      <point x="410" y="539"/>
      <point x="408" y="541" type="curve" smooth="yes"/>
      <point x="406" y="543"/>
      <point x="395" y="578"/>
      <point x="393" y="590" type="curve" smooth="yes"/>
      <point x="391" y="600"/>
      <point x="387" y="639"/>
      <point x="387" y="645" type="curve" smooth="yes"/>
      <point x="387" y="1235" type="line"/>
      <point x="393" y="1305" type="line"/>
      <point x="575" y="1305" type="line" smooth="yes"/>
      <point x="598" y="1305"/>
      <point x="598" y="1336"/>
      <point x="598" y="1350" type="curve" smooth="yes"/>
      <point x="598" y="1368"/>
      <point x="600" y="1399"/>
      <point x="575" y="1403" type="curve" smooth="yes"/>
      <point x="565" y="1405"/>
      <point x="516" y="1409"/>
      <point x="506" y="1409" type="curve" smooth="yes"/>
      <point x="490" y="1411"/>
      <point x="409" y="1411"/>
      <point x="393" y="1409" type="curve"/>
      <point x="387" y="1417" type="line"/>
      <point x="387" y="1417"/>
      <point x="385" y="1436"/>
      <point x="385" y="1442" type="curve" smooth="yes"/>
      <point x="385" y="1483"/>
      <point x="393" y="1524"/>
      <point x="393" y="1565" type="curve" smooth="yes"/>
      <point x="393" y="1573"/>
      <point x="391" y="1599"/>
      <point x="379" y="1599" type="curve" smooth="yes"/>
      <point x="324" y="1599" type="line"/>
      <point x="310" y="1581"/>
      <point x="235" y="1497"/>
      <point x="217" y="1481" type="curve" smooth="yes"/>
      <point x="213" y="1475"/>
      <point x="174" y="1440"/>
      <point x="162" y="1432" type="curve" smooth="yes"/>
      <point x="158" y="1428"/>
      <point x="117" y="1399"/>
      <point x="113" y="1397" type="curve" smooth="yes"/>
      <point x="105" y="1389"/>
      <point x="80" y="1364"/>
      <point x="78" y="1360" type="curve" smooth="yes"/>
      <point x="78" y="1360"/>
      <point x="76" y="1347"/>
      <point x="76" y="1341" type="curve" smooth="yes"/>
      <point x="76" y="1337"/>
      <point x="78" y="1321"/>
      <point x="78" y="1319" type="curve" smooth="yes"/>
      <point x="78" y="1315"/>
      <point x="84" y="1309"/>
      <point x="84" y="1309" type="curve"/>
      <point x="182" y="1309" type="line"/>
      <point x="197" y="1290" type="line"/>
      <point x="197" y="1290"/>
      <point x="203" y="1221"/>
      <point x="205" y="1192" type="curve"/>
      <point x="205" y="1180" type="line" smooth="yes"/>
      <point x="205" y="1163" type="line" smooth="yes"/>
      <point x="203" y="1145"/>
      <point x="197" y="981"/>
      <point x="197" y="961" type="curve" smooth="yes"/>
      <point x="197" y="955"/>
      <point x="205" y="897"/>
      <point x="205" y="891" type="curve" smooth="yes"/>
      <point x="205" y="885"/>
      <point x="197" y="827"/>
      <point x="197" y="821" type="curve" smooth="yes"/>
    </contour>
  </outline>
</glyph>
<glyph name="_31" format="1">
  <advance width="1101"/>
  <outline>
    <contour>
      <point x="78" y="885" type="curve" smooth="yes"/>
      <point x="78" y="742"/>
      <point x="99" y="630"/>
      <point x="197" y="526" type="curve" smooth="yes"/>
      <point x="217" y="503"/>
      <point x="283" y="440"/>
      <point x="289" y="434" type="curve" smooth="yes"/>
      <point x="291" y="432"/>
      <point x="347" y="403"/>
      <point x="365" y="393" type="curve" smooth="yes"/>
      <point x="375" y="389"/>
      <point x="408" y="375"/>
      <point x="414" y="373" type="curve" smooth="yes"/>
      <point x="451" y="361"/>
      <point x="502" y="365"/>
      <point x="535" y="365" type="curve" smooth="yes"/>
      <point x="756" y="365"/>
      <point x="907" y="481"/>
      <point x="983" y="680" type="curve" smooth="yes"/>
      <point x="985" y="686"/>
      <point x="1002" y="744"/>
      <point x="1004" y="750" type="curve" smooth="yes"/>
      <point x="1004" y="752"/>
      <point x="1010" y="762"/>
      <point x="1010" y="764" type="curve" smooth="yes"/>
      <point x="1014" y="787"/>
      <point x="1022" y="888"/>
      <point x="1024" y="911" type="curve"/>
      <point x="1024" y="920" type="line" smooth="yes"/>
      <point x="1024" y="926" type="line"/>
      <point x="1012" y="1043"/>
      <point x="993" y="1172"/>
      <point x="913" y="1262" type="curve" smooth="yes"/>
      <point x="827" y="1358"/>
      <point x="711" y="1438"/>
      <point x="580" y="1438" type="curve" smooth="yes"/>
      <point x="242" y="1438"/>
      <point x="78" y="1211"/>
    </contour>
    <contour>
      <point x="365" y="582" type="curve"/>
      <point x="363" y="592"/>
      <point x="348" y="641"/>
      <point x="344" y="651" type="curve" smooth="yes"/>
      <point x="342" y="657"/>
      <point x="326" y="696"/>
      <point x="324" y="700" type="curve" smooth="yes"/>
      <point x="322" y="708"/>
      <point x="311" y="744"/>
      <point x="309" y="750" type="curve" smooth="yes"/>
      <point x="291" y="834"/>
      <point x="274" y="913"/>
      <point x="274" y="999" type="curve" smooth="yes"/>
      <point x="274" y="1101"/>
      <point x="281" y="1174"/>
      <point x="338" y="1262" type="curve"/>
      <point x="338" y="1266"/>
      <point x="354" y="1280"/>
      <point x="358" y="1284" type="curve" smooth="yes"/>
      <point x="409" y="1325"/>
      <point x="452" y="1348"/>
      <point x="520" y="1348" type="curve" smooth="yes"/>
      <point x="555" y="1348"/>
      <point x="573" y="1343"/>
      <point x="604" y="1333" type="curve"/>
      <point x="610" y="1333" type="line"/>
      <point x="647" y="1310"/>
      <point x="682" y="1282"/>
      <point x="709" y="1249" type="curve"/>
      <point x="719" y="1231"/>
      <point x="758" y="1146"/>
      <point x="766" y="1128" type="curve" smooth="yes"/>
      <point x="768" y="1124"/>
      <point x="782" y="1064"/>
      <point x="786" y="1044" type="curve" smooth="yes"/>
      <point x="806" y="950"/>
      <point x="821" y="850"/>
      <point x="821" y="750" type="curve" smooth="yes"/>
      <point x="821" y="611"/>
      <point x="764" y="446"/>
      <point x="600" y="446" type="curve" smooth="yes"/>
      <point x="539" y="446"/>
      <point x="485" y="465"/>
      <point x="442" y="506" type="curve" smooth="yes"/>
      <point x="430" y="516"/>
      <point x="377" y="570"/>
    </contour>
  </outline>
</glyph>
<glyph name="_32" format="1">
  <advance width="1083"/>
  <outline>
    <contour>
      <point x="70" y="459" type="curve" smooth="yes"/>
      <point x="70" y="451"/>
      <point x="70" y="416"/>
      <point x="84" y="414" type="curve" smooth="yes"/>
      <point x="197" y="408" type="line"/>
      <point x="883" y="408" type="line" smooth="yes"/>
      <point x="897" y="408"/>
      <point x="901" y="418"/>
      <point x="905" y="428" type="curve" smooth="yes"/>
      <point x="919" y="469"/>
      <point x="994" y="659"/>
      <point x="1010" y="700" type="curve" smooth="yes"/>
      <point x="1010" y="709" type="line" smooth="yes"/>
      <point x="1010" y="715" type="line"/>
      <point x="1008" y="719"/>
      <point x="997" y="729"/>
      <point x="995" y="729" type="curve" smooth="yes"/>
      <point x="932" y="729" type="line" smooth="yes"/>
      <point x="930" y="729"/>
      <point x="922" y="719"/>
      <point x="918" y="715" type="curve" smooth="yes"/>
      <point x="891" y="668"/>
      <point x="874" y="614"/>
      <point x="813" y="604" type="curve" smooth="yes"/>
      <point x="790" y="600"/>
      <point x="721" y="590"/>
      <point x="715" y="590" type="curve" smooth="yes"/>
      <point x="703" y="588"/>
      <point x="596" y="590"/>
      <point x="582" y="590" type="curve" smooth="yes"/>
      <point x="576" y="590"/>
      <point x="530" y="582"/>
      <point x="526" y="582" type="curve" smooth="yes"/>
      <point x="506" y="582" type="line" smooth="yes"/>
      <point x="483" y="582" type="line" smooth="yes"/>
      <point x="448" y="584"/>
      <point x="365" y="588"/>
      <point x="365" y="590" type="curve" smooth="yes"/>
      <point x="350" y="596" type="line"/>
      <point x="352" y="600"/>
      <point x="369" y="614"/>
      <point x="371" y="616" type="curve" smooth="yes"/>
      <point x="385" y="628"/>
      <point x="498" y="711"/>
      <point x="512" y="723" type="curve" smooth="yes"/>
      <point x="516" y="725"/>
      <point x="543" y="754"/>
      <point x="547" y="758" type="curve" smooth="yes"/>
      <point x="549" y="760"/>
      <point x="571" y="770"/>
      <point x="575" y="772" type="curve" smooth="yes"/>
      <point x="583" y="776"/>
      <point x="619" y="801"/>
      <point x="625" y="807" type="curve" smooth="yes"/>
      <point x="754" y="913"/>
      <point x="905" y="1014"/>
      <point x="905" y="1198" type="curve" smooth="yes"/>
      <point x="905" y="1411"/>
      <point x="721" y="1544"/>
      <point x="520" y="1544" type="curve" smooth="yes"/>
      <point x="481" y="1544"/>
      <point x="445" y="1528"/>
      <point x="406" y="1522" type="curve" smooth="yes"/>
      <point x="398" y="1522"/>
      <point x="373" y="1516"/>
      <point x="371" y="1516" type="curve" smooth="yes"/>
      <point x="301" y="1481" type="line" smooth="yes"/>
      <point x="276" y="1467"/>
      <point x="254" y="1441"/>
      <point x="231" y="1423" type="curve" smooth="yes"/>
      <point x="221" y="1417"/>
      <point x="192" y="1393"/>
      <point x="188" y="1389" type="curve" smooth="yes"/>
      <point x="186" y="1387"/>
      <point x="176" y="1370"/>
      <point x="174" y="1368" type="curve" smooth="yes"/>
      <point x="170" y="1362"/>
      <point x="145" y="1337"/>
      <point x="139" y="1333" type="curve" smooth="yes"/>
      <point x="139" y="1323" type="line" smooth="yes"/>
      <point x="139" y="1300"/>
      <point x="159" y="1276"/>
      <point x="182" y="1276" type="curve" smooth="yes"/>
      <point x="188" y="1276" type="line"/>
      <point x="282" y="1333"/>
      <point x="358" y="1376"/>
      <point x="471" y="1376" type="curve" smooth="yes"/>
      <point x="520" y="1376"/>
      <point x="563" y="1362"/>
      <point x="602" y="1333" type="curve" smooth="yes"/>
      <point x="676" y="1280"/>
      <point x="702" y="1253"/>
      <point x="702" y="1155" type="curve" smooth="yes"/>
      <point x="702" y="1149"/>
      <point x="700" y="1137"/>
      <point x="700" y="1137" type="curve" smooth="yes"/>
      <point x="698" y="1129"/>
      <point x="680" y="1062"/>
      <point x="674" y="1044" type="curve" smooth="yes"/>
      <point x="651" y="985"/>
      <point x="596" y="942"/>
      <point x="553" y="897" type="curve"/>
      <point x="547" y="885" type="line"/>
      <point x="510" y="844"/>
      <point x="463" y="801"/>
      <point x="420" y="764" type="curve" smooth="yes"/>
      <point x="365" y="719"/>
      <point x="301" y="676"/>
      <point x="246" y="631" type="curve" smooth="yes"/>
      <point x="215" y="606"/>
      <point x="187" y="580"/>
      <point x="154" y="555" type="curve" smooth="yes"/>
      <point x="121" y="528"/>
      <point x="70" y="508"/>
    </contour>
    <contour>
      <point x="322" y="1266" type="curve" smooth="yes"/>
      <point x="320" y="1266"/>
      <point x="320" y="1260"/>
      <point x="322" y="1260" type="curve" smooth="yes"/>
      <point x="326" y="1260"/>
      <point x="326" y="1266"/>
    </contour>
  </outline>
</glyph>
